<?xml version="1.0" encoding="utf-8"?>
<!-- Generator: Adobe Illustrator 25.2.3, SVG Export Plug-In . SVG Version: 6.00 Build 0)  -->
<svg version="1.1" xmlns="http://www.w3.org/2000/svg" xmlns:xlink="http://www.w3.org/1999/xlink" x="0px" y="0px"
	 viewBox="0 0 1082.7 445.2" style="enable-background:new 0 0 1082.7 445.2;" xml:space="preserve">
<style type="text/css">
	.st0{display:none;}
	.st1{display:inline;}
	.st2{fill:#FFFFFF;}
	.st3{stroke:#FFFFFF;stroke-width:7;stroke-miterlimit:10;}
	.st4{fill:#FCFCFC;}
	.st5{stroke:#FFFFFF;stroke-width:9;stroke-miterlimit:10;}
</style>
<g id="Layer_3" class="st0">
	<rect x="-524.9" y="-416" class="st1" width="2211" height="1152"/>
</g>
<g id="Layer_2">
	<g>
		<path class="st2" d="M36.5,143.1c-0.2-2.1-0.7-4.2-0.5-6.3c0.2-29.9,0.4-59.6,0.5-89.3c0-1.8,0-3.7,0-5.8
			c-10.5-0.4-20.6,2.5-32,2.6c1.4-2.6,1.9-3.9,2.8-4.9c1.9-2.3,4.6-4,6.2-6.3c4.2-6.2,10.2-7.9,17.1-8.4c15.1-0.9,30.2-2.1,45.4-3.2
			c3.2-0.2,6.5,0.2,9.3,1.2c6.2,2.5,7.2,7.9,2.8,12.7c-2.8,2.8-5.4,5.6-8.1,8.4c-1.4,1.2-3.2,2.3-4.9,3.7c-0.9-1.2-1.6-1.9-1.8-2.6
			c-1.1-3.3-3.5-4.7-6.7-4.7c-3.7-0.2-7.4,0-11.8,0c-0.2,2.6-0.4,4.7-0.5,6.9c-0.2,25-0.5,49.9-0.5,74.9c0,4.7-1.2,8.4-4.9,11.6
			c-2.5,2.1-4.4,4.6-6.7,6.9c-1.2,1.2-2.6,2.3-4,3.3C37.5,143.4,37,143.3,36.5,143.1z"/>
		<path class="st2" d="M197,124.6c-1.4,2.5-1.9,4-3,5.5c-2.8,3.2-5.8,6.2-8.6,9.5c-1.9,2.1-4,3.3-7.2,3.3c-6.9,0-13.7,0.5-20.4,0.7
			c-8.8,0.4-11.6-2.1-13-10.7c-0.4-2.8-0.4-5.6-0.4-8.4c0-10.4,0-20.9,0-31.3c-9,0.2-17.8,0.5-26.5,0.7c-0.9,12-1.6,23-2.5,34.3
			c-0.2,1.8-0.5,3.9-1.6,5.1c-3.2,3.9-6.5,7.6-10,11.1c-1.1,1.1-3.2,1.9-4.2,1.6c-1.1-0.5-1.8-2.8-1.8-4.2
			c0.5-7.7,1.4-15.5,1.9-23.2c0.4-7.6,0.5-15.1,0.9-23.2c-3.3-0.2-6.3-0.5-9.1-0.5c-1.6-2.1-0.7-3.3,0.5-4.7c1.9-2.1,3.9-4.4,6-6.5
			c1.9-1.8,3-4,3-6.9c0.4-10.2,0.9-20.6,0.9-30.9c0-3.9,1.1-6.9,3.7-9.5c2.8-2.6,5.3-5.6,7.9-8.4c1.2-1.2,2.6-2.3,4-3.5
			c0.5,0.4,1.1,0.5,1.6,0.9c1.1,16.5-1.2,33-0.7,49.9c8.6-0.2,17.2-0.4,26.5-0.5c0.2-5.6,0.4-11.1,0.5-16.5c0.2-6,0.2-12,0.4-17.8
			c0.2-1.8,0.4-3.9,1.4-5.1c3.9-4.6,8.1-8.8,12.1-13.2c0.4-0.4,1.2-0.5,1.8-0.9c2.6,1.2,2.1,3.5,2.1,5.3
			c-0.2,12.3-0.5,24.4-0.7,36.7c-0.4,16-0.5,32.2-0.7,48.2c-0.2,2.5,0.2,4.9,0.5,7.2c1.1,5.4,2.5,6.7,7.7,6.5
			c6.9-0.2,13.7-0.7,20.6-0.9C192.4,123.9,194.2,124.3,197,124.6z"/>
		<path class="st2" d="M203,44.5c0,9.7,0,19.2,0,29.4c11.8-0.4,23.2-0.7,34.5-1.1c1.9,2.5,0.9,4-0.5,5.4c-3.3,3.7-6.9,7.2-10.2,10.7
			c-1.9,1.9-4,2.5-6.7,2.5c-5.6,0-11.3,0.4-17.6,0.4c0,3.3-0.2,6,0,8.8c0.2,5.8,0.5,11.8,0.9,17.8c0.4,4.2,2.8,6.9,6.7,7.7
			c4.4,0.9,8.8,1.8,13.2,1.8c14.9-0.2,29.9-0.7,45-1.2c0.9,0,1.8,0.2,2.5,0.2c1.6,2.3,0.2,3.7-1.1,5.1c-3.3,3.5-6.7,6.9-10,10.4
			c-1.8,1.9-3.7,2.8-6.3,2.8c-16.7,0.4-33.2,0.7-49.9,0.9c-1.1,0-2.3-0.2-3.3-0.4c-10.9-1.9-14.8-6-14.9-17.1
			c-0.2-18.1-0.2-36.2-0.2-54.3c0-5.3,0-10.4,0.2-15.6c0.4-6.9,2.5-13,7.7-17.8c3-2.6,5.6-5.8,8.4-8.8c3.3-3.5,7.4-5.3,12.1-6
			c8.3-1.2,16.5-2.1,25-1.1c2.1,0.4,4.4,0.7,6.3,1.6c1.8,0.9,3.5,2.3,4.6,3.9c3.2,4.6,1.9,15.1-1.9,19.2c-2.6,2.8-5.3,5.6-8.1,8.3
			c-1.4,1.4-2.8,3.9-4.9,2.5c-1.1-0.7-1.2-3.2-1.4-4.9c-0.2-1.6,0.2-3.2,0-4.9c-0.2-3.9-1.4-5.6-4.9-6.3
			C219.7,42.5,211.4,42,203,44.5z"/>
		<path class="st2" d="M328.1,24.4c0,1.6,0.4,3.2,0.4,4.9c-0.5,27.1-1.1,54.3-1.6,81.4c-0.2,3.7-0.5,7.4-0.7,11.1
			c-0.2,2.6,1.1,4.2,3.9,4.4c7.2,0,14.4,0.2,21.6,0.4c2.8,0,5.4,0.2,8.3,0.2c3.3,0,3.9,2.8,2.1,4.6c-3.9,4.2-8.1,8.6-12.3,12.7
			c-0.7,0.7-1.9,1.1-3,1.1c-9.7,0-19.2,0.2-28.8-0.2c-7.9-0.4-9.8-2.8-9.7-10.9c0.4-8.8,1.1-17.4,1.2-26c0.4-20.4,0.9-40.8,0.9-61
			c0-5.3,1.2-9.5,5.3-12.8c2.5-2.1,4.6-4.7,7-7c1.2-1.2,2.6-2.3,3.9-3.3C327.1,23.9,327.6,24.3,328.1,24.4z"/>
		<path class="st2" d="M368,144.5c-1.8,0.2-2.1,0.2-2.5,0.2c-10.4,0.5-14.8-2.8-17.1-13.2c-0.2-1.2-0.4-2.5-0.4-3.9
			c-0.9-6.5,0-12.3,5.8-16.7c2.8-2.1,4.7-5.1,7.4-7.4c0.7-0.9,2.3-1.2,3.3-1.1c0.5,0.2,1.1,1.8,1.2,2.8c0.2,1.2-0.2,2.6-0.2,3.9
			c0.4,3.2,0.5,6.3,1.2,9.3c1.8,6.7,4,8.3,10.7,7.9c3.9-0.2,7.7-0.5,11.6-0.9c3-0.2,4.9-1.4,4.9-4.7c-0.2-5.3,0-10.7-0.9-16
			c-1.1-6.2-5.8-9.7-11.1-12.3c-5.1-2.8-10.2-5.1-15.3-7.7c-17.1-9.1-20.6-25.8-8.4-40.8c4.7-5.8,9.8-11.3,15.5-16
			c9.8-8.1,21.4-9.5,33.6-6c5.6,1.4,8.8,5.5,8.8,11.3c0,4-0.5,8.1-1.1,12.1c-0.2,1.6-0.7,3.3-1.8,4.6c-3.7,4.2-7.6,8.1-11.6,12
			c-0.7,0.9-2.3,0.9-3.3,1.2c-0.4-1.2-1.1-2.5-1.1-3.9c0.2-4,0.9-8.1,0.9-12.1c0-3.5-2.1-5.8-5.4-6.9c-6.5-2.1-13-1.8-19.7-0.2
			c-1.8,0.5-2.6,1.6-3.2,3.3c-2.3,8.4,0.9,16.3,9,21.4c4.6,2.6,9.5,5.1,14.2,7.4c16.2,7.2,20.4,15.6,18.6,34.1
			c-0.5,6.3-3,11.8-7.2,16.5c-4.2,4.6-8.4,9.3-12.8,13.7c-5.3,5.3-12,7-19.2,7.7C370.8,144.5,368.7,144.5,368,144.5z"/>
		<path class="st2" d="M443.8,23c0,1.9,0.2,3.9,0,5.8c-0.2,15.3-0.7,30.8-0.9,46.1c-0.2,13.9-0.4,27.8-0.4,41.5c0,7,1.1,8.6,7.9,9.5
			c5.8,0.7,11.8,0.4,17.8,0.4c4.4,0,8.8-0.4,13.2-0.4c1.2,0,2.8,0.5,3.2,1.4c0.4,0.9-0.2,2.6-0.9,3.3c-3.7,4-7.4,7.9-11.3,11.6
			c-1.1,1.1-2.8,1.8-4.4,1.8c-8.3,0.5-16.5,1.1-25,1.1c-3.7,0-7.7-0.9-11.4-1.9c-4.2-1.1-6.7-4.2-6.9-8.8c-0.2-2.5-0.2-4.9-0.2-7.2
			c0.4-22,0.9-44.1,1.2-66.1c0.2-6.2,0.4-12.5,0.2-18.8c0-3.3,1.1-6,3.5-8.3c3-2.8,5.6-5.8,8.6-8.6c1.2-1.2,2.6-2.1,4-3.2
			C442.7,22.3,443.3,22.7,443.8,23z"/>
		<path class="st2" d="M534.3,107.8c-5.8,6.9-8.6,13.2-14.1,19.3c-3.9,4.4-8.1,8.8-12.7,12.7c-2.5,1.9-5.8,3.5-9,4.2
			c-4.4,0.9-7.6-1.2-9-5.6c-1.1-3.7-1.8-7.4-1.9-11.3c-0.4-19.3-0.2-38.7,2.1-57.8c1.4-11.8,5.1-22.5,14.2-30.4
			c1.6-1.4,3-2.8,4.2-4.6c7.2-8.8,14.4-12.1,25.3-12c6,0.2,11.8,0.4,17.8,0.5c3.5,0.2,4.4,1.8,3.9,5.3c-0.4,2.1-0.9,4.4-0.9,6.7
			c-0.9,18.6-1.8,37.1-2.1,55.7c0,6.5,0.4,13.4,1.8,19.7c2.6,11.3,4.2,14.8,18.8,15.6c5.4,0.2,11.1-0.5,16.5-0.5
			c1.2,0,3.3,0.4,3.3,0.9c0.2,1.2,0,3-0.9,4c-3.5,4-7.2,8.1-11.1,11.8c-1.1,1.1-2.6,1.6-4,1.9c-8.3,1.4-16.5,1.6-24.8,0
			c-6.7-1.2-11.8-4.7-13.7-11.6c-1.2-5.1-2.3-10.4-3.2-15.5C534.5,113.9,534.5,111.1,534.3,107.8z M534.9,42
			c-8.3-0.7-13.9-1.1-21.8,0.2c-1.9,0.4-3.2,1.4-3.7,3.5c-0.5,3.3-1.6,6.7-1.8,10c-0.9,17.8-1.6,35.5-2.1,53.4
			c-0.2,3.5,0.5,7,1.1,10.7c0.4,2.5,1.2,4.9,4,5.3c2.6,0.4,4.7-0.9,6-3.2c1.9-3.7,4.2-7.2,5.4-11.3c5.3-15.3,7.9-30.8,10.5-46.9
			C533.8,56.8,535.2,49.8,534.9,42z"/>
		<path class="st2" d="M634.7,42.7c4.4-4.2,8.1-7.9,11.8-11.8c4.9-4.9,10.7-7,17.6-7c8.6,0.2,13.5,4.6,13.5,13.4
			c-0.4,13.4-0.9,26.5-1.4,39.9c-0.7,11.6-1.6,23.2-2.5,34.8c-0.2,1.8-0.2,3.3-0.2,5.1c0.2,4.9,1.8,7.2,6.9,7.7
			c7.2,0.7,14.4,0.9,21.6,1.4c1.4,0,2.8,0,5.3,0c-1.1,2.1-1.2,3.9-2.3,5.1c-3.2,3.7-6.7,7-10,10.5c-2.1,2.1-4.4,3.2-7.4,3
			c-6.9-0.5-13.7-0.5-20.6-1.4c-8.3-0.9-11.6-5.1-11.3-13.4c0.9-14.9,1.9-29.9,2.8-45c0.5-9.5,0.9-19.2,1.2-28.8c0-0.9,0-1.8,0-2.6
			c0.2-11.3-6-12-14.6-10.7c-2.5,0.4-3.3,2.5-3.7,4.4c-1.8,7.6-4,15.1-4.7,22.7c-1.9,17.9-3.2,35.9-4.4,53.6
			c-0.2,3.2-1.1,5.8-3.3,7.9c-3,3-5.8,6.2-9,9.1c-1.1,1.1-2.8,1.6-4.7,2.6c-1.8-5.1-0.9-9.5-0.7-13.9c0.7-21.8,1.4-43.6,1.9-65.4
			c0.2-4.4-0.4-9-1.4-13.2c-1.6-6.7-6.5-10-14.2-10.5c-0.2,2.5-0.5,4.9-0.7,7.6c-0.5,24.1-0.9,48.3-1.4,72.6c0,2.6,0,5.3-0.5,7.7
			c-0.2,1.8-0.9,3.7-2.1,4.9c-3.2,3.9-6.7,7.4-10.4,10.9c-0.9,0.9-2.5,1.1-3.7,1.6c-0.5-1.2-1.4-2.6-1.4-3.9
			c0.5-24.8,0.9-49.6,1.6-74.4c0.2-7.7,0.7-15.5,1.1-23.4c0.4-3.7,1.4-7,4.6-9.7c1.8-1.4,3.3-3,4.7-4.7c6.9-8.8,16.5-8.8,26-7.6
			c7.2,1.1,12,6.2,14.2,13.4C633.7,37.3,634,39.6,634.7,42.7z"/>
		<path class="st2" d="M714.9,24.4c0,1.6,0.4,3.2,0.4,4.9c-0.5,27.1-1.1,54.3-1.6,81.4c-0.2,3.7-0.5,7.4-0.7,11.1
			c-0.2,2.6,1.1,4.2,3.9,4.4c7.2,0,14.4,0.2,21.6,0.4c2.8,0,5.4,0.2,8.3,0.2c3.3,0,3.9,2.8,2.1,4.6c-3.9,4.2-8.1,8.6-12.3,12.7
			c-0.7,0.7-1.9,1.1-3,1.1c-9.7,0-19.2,0.2-28.8-0.2c-7.9-0.4-9.8-2.8-9.7-10.9c0.4-8.8,1.1-17.4,1.2-26c0.4-20.4,0.9-40.8,0.9-61
			c0-5.3,1.2-9.5,5.3-12.8c2.5-2.1,4.6-4.7,7-7c1.2-1.2,2.6-2.3,3.9-3.3C713.8,23.9,714.3,24.3,714.9,24.4z"/>
		<path class="st2" d="M756.4,43.1c-0.2,2.3-0.5,4-0.5,6c-0.2,18.1-0.5,36.2-0.5,54.3c0.2,4.6,1.1,9.1,2.1,13.5
			c0.9,4,3.7,6.9,7.9,7.9c3.9,1.1,7.9,1.9,12,1.9c8.4,0,16.9-0.5,25.5-0.9c4-0.2,8.1,0,12.8,0c-0.4,1.9-0.5,3.2-1.1,4.4
			c-0.2,0.7-0.9,1.2-1.4,1.8c-6.3,7.7-13,13.7-24.4,12.5c-9.8-1.1-20,0.4-29.9,0.4c-3,0-6-1.1-8.8-1.8c-5.3-1.8-8.8-5.5-10.2-10.7
			c-1.1-3.7-2.1-7.6-2.1-11.4c0.2-22.2,0.5-44.3,0.9-66.5c0-7.6,2.8-13.7,8.4-19.2c12.7-12,7-10.4,25-10.5c7.4-0.2,14.8,0.4,22,1.4
			c8.6,1.1,11.3,5.1,10.5,13.7c-0.5,5.3-1.9,9.7-6.2,13.2c-2.8,2.5-5.1,5.4-7.7,7.9c-0.9,0.9-2.6,1.1-3.9,1.6
			c-0.4-1.4-0.9-2.6-0.9-3.9c0-2.3,0.7-4.4,0.7-6.7c0.4-4.4-0.9-6.2-5.1-7.2C773.4,42.9,765.1,42.9,756.4,43.1z"/>
		<path class="st2" d="M899.6,87.5c-5.8,7.2-12.5,13.7-19,20.2c-2.8,2.6-6.3,4.6-10,7.2c0,4,0,8.1-0.2,12.1
			c-0.2,1.9-0.5,4.2-1.8,5.6c-3.3,4.2-7,8.1-10.7,12.1c-0.7,0.7-1.8,1.1-3.3,2.1c-0.5-1.6-1.4-2.8-1.4-4c0-10.4,0-20.9,0.2-31.5
			c0-14.1,0.2-28.1,0.4-42.2c0-8.1,0.2-16.3,0.4-24.4c0-1.8,0.4-4,1.4-5.3c5.4-6,9.8-12.8,17.2-16.9c1.4-0.9,3-1.8,4.6-1.9
			c7-1.2,14.2-1.9,21.4-0.2c9.3,2.1,14.1,7,15.1,16.7C915.6,55.9,911.6,73,899.6,87.5z M896.5,51.5c-0.5-4-2.1-7.6-5.8-9.7
			c-5.8-3.7-12.3-3.9-19.5-3.2c-0.2,20.2-0.4,39.7-0.5,59.8c9.7-0.4,17.1-4.4,20-10.7C895.9,76.1,898,64.2,896.5,51.5z"/>
		<path class="st2" d="M940.8,24.4c0,1.6,0.4,3.2,0.4,4.9c-0.5,27.1-1.1,54.3-1.6,81.4c-0.2,3.7-0.5,7.4-0.7,11.1
			c-0.2,2.6,1.1,4.2,3.9,4.4c7.2,0,14.4,0.2,21.6,0.4c2.8,0,5.5,0.2,8.3,0.2c3.3,0,3.9,2.8,2.1,4.6c-3.9,4.2-8.1,8.6-12.3,12.7
			c-0.7,0.7-1.9,1.1-3,1.1c-9.7,0-19.2,0.2-28.8-0.2c-7.9-0.4-9.8-2.8-9.7-10.9c0.4-8.8,1.1-17.4,1.2-26c0.4-20.4,0.9-40.8,0.9-61
			c0-5.3,1.2-9.5,5.3-12.8c2.5-2.1,4.6-4.7,7-7c1.2-1.2,2.6-2.3,3.9-3.3C939.7,23.9,940.2,24.3,940.8,24.4z"/>
		<path class="st2" d="M983.1,23c0,1.9,0.2,3.9,0,5.8c-0.2,15.3-0.7,30.8-0.9,46.1c-0.2,13.9-0.4,27.8-0.4,41.5c0,7,1.1,8.6,7.9,9.5
			c5.8,0.7,11.8,0.4,17.8,0.4c4.4,0,8.8-0.4,13.2-0.4c1.2,0,2.8,0.5,3.2,1.4c0.4,0.9-0.2,2.6-0.9,3.3c-3.7,4-7.4,7.9-11.3,11.6
			c-1.1,1.1-2.8,1.8-4.4,1.8c-8.3,0.5-16.5,1.1-25,1.1c-3.7,0-7.7-0.9-11.4-1.9c-4.2-1.1-6.7-4.2-6.9-8.8c-0.2-2.5-0.2-4.9-0.2-7.2
			c0.4-22,0.9-44.1,1.2-66.1c0.2-6.2,0.4-12.5,0.2-18.8c0-3.3,1.1-6,3.5-8.3c3-2.8,5.6-5.8,8.6-8.6c1.2-1.2,2.6-2.1,4-3.2
			C982.1,22.3,982.6,22.7,983.1,23z"/>
		<path class="st2" d="M1047.5,23c0,1.9,0.2,3.9,0,5.8c-0.2,15.3-0.7,30.8-0.9,46.1c-0.2,13.9-0.4,27.8-0.4,41.5
			c0,7,1.1,8.6,7.9,9.5c5.8,0.7,11.8,0.4,17.8,0.4c4.4,0,8.8-0.4,13.2-0.4c1.2,0,2.8,0.5,3.2,1.4c0.4,0.9-0.2,2.6-0.9,3.3
			c-3.7,4-7.4,7.9-11.3,11.6c-1.1,1.1-2.8,1.8-4.4,1.8c-8.3,0.5-16.5,1.1-25,1.1c-3.7,0-7.7-0.9-11.4-1.9c-4.2-1.1-6.7-4.2-6.9-8.8
			c-0.2-2.5-0.2-4.9-0.2-7.2c0.4-22,0.9-44.1,1.2-66.1c0.2-6.2,0.4-12.5,0.2-18.8c0-3.3,1.1-6,3.5-8.3c3-2.8,5.6-5.8,8.6-8.6
			c1.2-1.2,2.6-2.1,4-3.2C1046.4,22.3,1046.9,22.7,1047.5,23z"/>
	</g>
	<g>
		<path class="st2" d="M532.6,253.2c-0.1,0.4-0.3,0.8-0.6,1.1c-1.1,1.1-2.1,2.2-3.2,3.3c-0.3,0.3-0.9,0.5-1.3,0.7
			c-0.2-0.4-0.4-0.9-0.6-1.3c-0.2-0.8-0.2-1.7-0.6-2.4c-1.1-3-3.5-4.2-6.8-3.5c-0.4,3.2-0.3,6.5-0.3,9.9c3,0,5.8,0,8.9,0
			c-0.4,2.3-2.4,3.1-3.4,4.6c-1.3,1.9-3.5,0.8-5.3,1.5c0,2.4,0,4.6-0.1,6.8c0,3.1-0.1,6.2-0.2,9.2c-0.1,1.8-0.8,3.6-2,5
			c-1.6,1.8-3.3,3.5-5,5.3c-0.4,0.4-1,0.8-1.6,1.1c-0.3,0.2-0.6,0.1-1,0.1c0-0.4-0.2-0.8,0.1-1.1c0.6-0.8,1.3-1.6,2-2.2
			c1.2-1,1.8-2.4,1.9-3.9c0.1-2.6,0.2-5.2,0.2-7.7c0-3.6-0.1-7.2-0.2-10.8c0-0.4-0.1-0.9-0.1-1.6c-1.3,0-2.5,0-3.6,0
			c-0.5-0.7-0.1-1.2,0.2-1.6c0.8-0.8,1.5-1.6,2.4-2.4c0.8-0.7,1.1-1.6,1.1-2.6c0-1.9,0.2-3.8,0.3-5.7c0.1-2.1,0.8-3.9,2.5-5.3
			c1-0.8,1.8-1.9,2.7-2.7c0.6-0.6,1.3-1.1,2-1.3c2.2-0.6,4.4-0.7,6.6-0.1C530.7,246.2,533.1,250.2,532.6,253.2z"/>
		<path class="st2" d="M549.5,272.9c-0.3,2.2-1.2,4.1-2.9,5.7c-0.8,0.7-1.5,1.6-2.3,2.4c-1.4,1.5-3.2,2.2-5.2,2.2
			c-2,0.1-3.9,0.2-5.8,0.2c-2,0.1-2.2-0.1-2.1-2c0.1-3.3,0.2-6.7,0.2-10c0.1-7,0.1-14,0.2-21c0-0.8,0.1-1.5,0.7-2.1
			c1.1-1.1,2.2-2.3,3.3-3.4c0.3-0.3,0.8-0.5,1.6-0.9c0.2,3.6,0.1,6.8,0.1,10c-0.1,3.1,0,6.3,0,9.8c1.2-1.3,2.4-2.4,3.4-3.5
			c1.5-1.6,3.1-2.9,5.4-3.1c0.7-0.1,1.3-0.1,2-0.1c1.5,0.2,2.2,0.8,2.2,2.4C550.4,264,550.3,268.5,549.5,272.9z M544.7,264.5
			c0-0.6,0-1.2-0.7-1.5c-1.6-0.6-3.3,0.2-4.1,1.7c-2.1,4-2.3,8.4-2.8,12.6c2.3,0,4.5,0,6.9,0c0.2-1.7,0.4-3.3,0.4-4.9
			C544.6,269.8,544.6,267.2,544.7,264.5z"/>
		<path class="st2" d="M563.2,278.7c-0.1,0.3-0.2,0.7-0.4,0.9c-1.2,1.3-2.4,2.5-3.5,3.8c-0.6,0.6-1.2,0.8-1.9,0.2
			c-1.5-1.2-2.9-2.5-4.4-3.9c-0.2-0.2-0.2-1-0.1-1.2c1.5-1.6,3-3.1,4.6-4.8C559.6,275.5,561.4,277.1,563.2,278.7z"/>
		<path class="st2" d="M588.8,279.3c-1.1,1.2-2.1,2.4-3.3,3.5c-0.4,0.4-1.1,0.7-1.7,0.7c-4.6,0.1-9.2,0.1-13.8,0.1
			c-2.4-0.1-3.8-1.2-4.4-3.5c-0.3-1.2-0.5-2.5-0.5-3.7c0-2.6,0-5.3,0.2-7.9c0.2-2,1.1-3.9,2.5-5.4c1.2-1.2,2.4-2.5,3.6-3.6
			c2.3-2.2,5.1-2.2,8-1.8c1.4,0.3,2.1,1.5,2.4,2.9c0.2,1,0.2,2.1,0.2,3.1c0,0.4-0.2,0.8-0.4,1.1c-1.2,1.3-2.4,2.6-3.6,3.8
			c-0.3,0.3-0.8,0.4-1.1,0.3c-0.3-0.1-0.4-0.6-0.5-1c-0.1-0.6,0-1.2-0.1-1.7c-0.2-2.1-1.2-3-3.2-2.9c-0.6,0-1.2,0.1-2.1,0.2
			c-0.1,2.7-0.2,5.3-0.2,7.9c0,1.2,0.2,2.4,0.4,3.5c0.5,2,1.3,2.7,3.4,2.7c3.4,0.1,6.7,0.1,10.1,0.1c1.5,0,3,0,4.4,0
			C589.6,278.4,589.3,278.9,588.8,279.3z"/>
		<path class="st2" d="M603,274.6c0,1.7-0.6,3.3-2,4.4c-0.3,0.3-0.6,0.7-1,1c-2.7,2.8-2.7,2.9-6.5,3.1c-1.6,0.1-3.1,0.1-4.6-0.1
			c-2.7-0.3-3.8-1.4-3.9-4.1c-0.1-2.6,0.1-5.2,0.2-7.8c0.1-2.4,0.3-4.8,0.5-7.2c0.1-0.8,0.4-1.6,1-2.1c0.9-0.9,1.8-1.7,2.6-2.7
			c1-1.2,2.2-1.6,3.5-1.6c2.5-0.1,5-0.1,7.5-0.1c2,0,2.5,0.6,2.5,2.6C602.9,262.5,603,272.2,603,274.6z M597.2,263.5
			c-2.1-0.6-3.9-0.1-5.9-0.1c-0.1,1.3-0.2,2.4-0.3,3.6c-0.1,2.5-0.2,5.1-0.2,7.6c0.1,1.8,0.8,2.4,2.5,2.6c1.2,0.1,2.5,0,3.8,0
			C597.2,272.6,597.2,268,597.2,263.5z"/>
		<path class="st2" d="M646.9,277.6c-0.4,0.9-0.7,1.5-1,1.8c-1,1.1-2,2-2.9,3.1c-0.6,0.6-1.2,0.9-2,0.8c-2.7-0.1-5.4-0.1-8.2-0.1
			c-0.5,0-1.1-0.1-1.6-0.2c-1.3-0.3-2-0.9-2-2.3c-0.1-1.3,0.2-2.7,0.2-4c0.1-3.5,0.1-7,0.1-10.4c0-0.4-0.1-0.8-0.2-1.2
			c-0.2-0.8-0.7-1-1.4-1.1c-0.8-0.1-1.1,0.4-1.2,1.1c-0.7,2.5-1.3,5.1-2,7.7c-0.3,1.3-0.4,2.8-0.7,4.2c-0.1,0.4-0.1,0.8-0.4,1.1
			c-1.3,1.5-2.7,2.9-4.1,4.3c-0.2,0.2-0.6,0.2-1.2,0.2c-0.1-6.3-0.1-12.4-0.1-18.6c-2.2-0.5-2.3-0.4-3.1,1.2
			c-1.6,3.3-2.4,6.9-2.7,10.5c-0.2,1.7-0.7,3-2,4.1c-0.9,0.8-1.6,1.7-2.5,2.5c-0.3,0.2-0.8,0.4-1.1,0.3c-0.3-0.1-0.4-0.7-0.4-1
			c-0.1-0.9-0.1-1.8-0.1-2.7c0.1-5,0.1-10.1,0.1-15.2c0-1.2,0.3-2.2,1.2-3c1-0.8,1.7-1.8,2.6-2.7c0.4-0.4,0.8-0.7,1.6-1.2
			c0.6,2.6,0.1,4.9,0.4,7.3c1.7-1.6,3.3-3.1,4.8-4.7c1.1-1.1,2.5-1.8,4.1-1.8c2-0.1,2.5,0.3,2.8,2.3c0.1,0.6,0.1,1.2,0.1,1.8
			c0.1,0.6,0,1.1,0,2.1c1-1,1.7-1.6,2.4-2.3c0.8-0.7,1.5-1.6,2.3-2.2c0.8-0.6,1.7-1.1,2.6-1.3c2-0.5,3.5,0.6,3.8,2.6
			c0.5,3.8,0.5,7.7,0.1,11.5c-0.1,1-0.2,2-0.2,3c0,1.8,0.2,2,1.8,2.1c2,0.1,3.9,0,5.9,0.1C643.9,277.4,645.1,277.5,646.9,277.6z"/>
		<path class="st2" d="M641.3,285.9l15.6-40.6h3.8l-15.7,40.6H641.3z"/>
		<path class="st2" d="M678.9,259.9c0,4.9-0.1,9.8-0.2,14.6c-0.1,4.1-0.1,8.1-0.2,12.2c-0.1,2.1-0.8,4-2.4,5.5
			c-0.8,0.8-1.6,1.8-2.4,2.6c-1,1.1-2.2,1.7-3.7,1.9c-2.6,0.3-5.2,0.7-7.7,1c-0.3,0.1-0.7-0.1-1.1-0.2c0.1-0.4,0-1,0.3-1.3
			c1.1-1.3,2.2-2.7,3.5-3.9c0.6-0.5,1.6-0.7,2.4-0.8c1.8-0.3,3.6-0.5,5.5-0.7c0.4-4.5,0.2-9,0.2-13.8c-0.7,0.8-1.2,1.3-1.7,1.8
			c-1.5,1.7-3.2,3.3-5.3,4.4c-0.6,0.3-1.2,0.5-1.8,0.6c-1.2,0.1-1.9-0.4-2.2-1.6c-0.1-0.3-0.2-0.6-0.2-0.8c0-4.6-0.1-9.2,0-13.8
			c0-1.6,0.8-2.9,1.9-4.1c0.9-0.9,1.7-1.9,2.6-2.9c1.4-1.6,3.1-2.7,5.3-3c1.2-0.2,2.3-0.5,3.5-0.6c1.1-0.1,2.2,0,3.4,0.1
			C678.8,258.2,678.9,259,678.9,259.9z M673.3,262.8c-1.7,0.3-3.2,0.4-4.6,0.7c-1.3,0.2-1.4,0.3-1.4,1.6c0.1,3.6,0.1,7.2,0.2,10.8
			c0.1,0.6,0.3,1.2,0.4,1.8c2-0.1,3.1-0.7,3.6-2.2C672.7,271.4,673.2,267.3,673.3,262.8z"/>
		<path class="st2" d="M700.7,258.9c-1.2,1.5-2.6,2.8-4,4.1c-0.2,0.2-0.7,0.2-1.1,0.2c-0.7-0.1-1.4-0.2-2.1-0.2
			c-1.6,0.1-2.7,0.9-3.3,2.5c-1.1,3.5-2.1,7.1-2.2,10.9c0,1.1-0.4,2-1.2,2.8c-1,0.9-1.8,1.9-2.7,2.8c-0.4,0.4-0.8,1.1-1.5,0.6
			c-0.3-0.2-0.4-1-0.4-1.4c0-2.2,0.1-4.4,0.2-6.6c0.1-3.6,0.3-7.2,0.4-10.8c0-1.2,0.3-2.1,1.3-3c0.9-0.8,1.7-1.8,2.6-2.6
			c0.4-0.4,0.8-0.7,1.3-1.1c0.2,0.1,0.3,0.1,0.4,0.2c0,1.8,0,3.6,0,5.4c0.1,0.1,0.2,0.1,0.4,0.2c1-1,2-2,3-3c1.7-1.8,4-2.7,6.4-2.9
			c0.6-0.1,1.2,0,1.7,0.1C701,257.6,701.4,258.3,700.7,258.9z"/>
		<path class="st2" d="M720.2,274.6c0,1.7-0.6,3.3-2,4.4c-0.3,0.3-0.6,0.7-1,1c-2.7,2.8-2.7,2.9-6.5,3.1c-1.6,0.1-3.1,0.1-4.6-0.1
			c-2.7-0.3-3.8-1.4-3.9-4.1c-0.1-2.6,0.1-5.2,0.2-7.8c0.1-2.4,0.3-4.8,0.5-7.2c0.1-0.8,0.4-1.6,1-2.1c0.9-0.9,1.8-1.7,2.6-2.7
			c1-1.2,2.2-1.6,3.5-1.6c2.5-0.1,5-0.1,7.5-0.1c2,0,2.5,0.6,2.5,2.6C720.2,262.5,720.2,272.2,720.2,274.6z M714.4,263.5
			c-2.1-0.6-3.9-0.1-5.9-0.1c-0.1,1.3-0.2,2.4-0.3,3.6c-0.1,2.5-0.2,5.1-0.2,7.6c0.1,1.8,0.8,2.4,2.5,2.6c1.2,0.1,2.5,0,3.8,0
			C714.4,272.6,714.4,268,714.4,263.5z"/>
		<path class="st2" d="M752.9,276.9c-0.2,0.6-0.3,1-0.6,1.3c-1.2,1.2-2.4,2.5-3.6,3.7c-0.3,0.3-0.8,0.5-1.2,0.5
			c-2.7,0.2-5.5,0.3-8.3,0.4c-0.3,0-0.7,0-1.1-0.1c-1.7-0.2-2.3-0.7-2.4-2.5c-0.1-1.5,0-3,0-4.9c-0.6,0.4-0.8,0.7-1.1,0.9
			c-1.5,1.5-2.9,3.1-4.4,4.6c-1,0.9-2.1,1.7-3.3,2.3c-1.3,0.6-2.5,0.1-3.1-1.2c-0.3-0.7-0.4-1.4-0.4-2.1c0-5.4,0-10.8,0.1-16.1
			c0.1-0.6,0.3-1.2,0.6-1.6c1.2-1.3,2.4-2.6,3.7-3.8c0.2-0.2,0.7-0.3,1.2-0.6c0.1,0.7,0.1,1.1,0.1,1.6c0,5-0.1,10.1-0.1,15.2
			c0,0.7,0,1.3,0.2,1.9c0.4,1.1,1.3,1.3,2,0.4c0.6-0.6,1-1.3,1.3-2.1c1.6-3.8,2.9-7.6,3.2-11.7c0.1-0.9,0.3-1.6,1-2.2
			c1-1,1.8-2,2.8-2.9c0.4-0.4,0.9-0.7,1.7-1.3c0.1,1,0.3,1.6,0.3,2.2c0,3.5-0.1,7.1-0.1,10.6c0,1.8,0,3.5,0,5.3
			c0,0.6,0.1,1.2,0.1,1.7c1.4,0.6,2.7,0.4,4.1,0.3c2-0.1,3.9-0.2,5.8-0.3C751.9,276.7,752.3,276.8,752.9,276.9z"/>
		<path class="st2" d="M767.8,260.5c-0.2,3.9-0.3,7.8-0.5,11.8c-0.1,1.9-0.9,3.5-2.3,4.8c-0.9,0.8-1.7,1.8-2.6,2.7
			c-1.8,1.8-3.9,3-6.6,3.1c-0.2,0.1-0.4,0.1-0.7,0.1c-0.1,0-0.1,0.1-0.4,0.3c0,0.6-0.1,1.4,0,2.2c0.1,1-0.3,1.8-1,2.5
			c-0.9,0.9-1.7,1.8-2.7,2.8c-0.4,0.4-1,0.7-1.7,1.2c-0.2-0.8-0.3-1.3-0.3-1.8c0-8.9,0.1-17.8,0.1-26.7c0-0.6,0.2-1.3,0.6-1.8
			c1.2-1.4,2.5-2.6,3.8-3.9c0.2-0.2,0.5-0.3,1.1-0.6c0.4,2.4,0,4.5,0.3,7.1c1.1-1.1,1.9-2,2.8-2.8c0.9-0.9,1.7-1.7,2.7-2.5
			c1.7-1.2,3.7-1.5,5.7-1.5c0.8,0,1.3,0.4,1.5,1.2C767.7,259.3,767.9,259.9,767.8,260.5z M762.1,263.4c-0.7,0-1,0-1.3,0
			c-1.7-0.1-3,0.6-3.4,2.4c-0.6,2.4-1.3,4.9-1.8,7.3c-0.3,1.3-0.3,2.6-0.5,4c2.4,0,4.5,0.1,6.6-0.4
			C761.9,272.3,762.2,268,762.1,263.4z"/>
		<path class="st2" d="M788.5,276.1c-1.6,2.1-3.5,4.1-5.5,5.9c-0.9,0.8-2.4,1.1-3.6,1.2c-4.1,0.1-8.2-0.1-12.3-0.2
			c-0.2,0-0.3-0.2-0.7-0.3c0.2-0.4,0.3-0.8,0.5-1c1.2-1.3,2.4-2.6,3.6-3.8c0.5-0.4,1.3-0.6,2-0.6c2.5,0,5,0.1,7.6,0.2
			c1,0.1,2,0,3.1,0c-0.8-1.5-1.9-2.1-3.1-2.7c-1.3-0.7-2.7-1.3-4.1-2.1c-1-0.6-1.8-1.2-2.7-2c-1.6-1.3-2-3.1-1.2-4.9
			c0.3-0.7,0.7-1.4,1.2-2c1.3-1.5,2.6-2.9,4.1-4.2c2.3-2,5.2-2.7,8.2-2.5c1.6,0.2,2.6,1.2,3,2.6c0.2,0.8,0.1,1.4-0.4,2
			c-1.2,1.2-2.4,2.5-3.6,3.7c-0.3,0.3-0.7,0.4-1.2,0.6c-0.6-1.1-0.4-2.4-1.6-2.9c-1-0.3-2.7-0.3-4.1,0.3c-0.1,0.9,0.4,1.5,1.1,1.8
			c1.8,1.2,3.8,2.2,5.8,3.4c1.1,0.7,2.2,1.3,3.2,2.1C789.4,272.3,789.8,274.4,788.5,276.1z"/>
		<path class="st2" d="M790,285.9l15.6-40.6h3.8l-15.7,40.6H790z"/>
		<path class="st2" d="M831.9,277.7c-0.2,0.4-0.2,1-0.6,1.4c-1,1.1-2,2.1-3,3.2c-0.6,0.6-1.3,0.9-2.2,1c-3.1,0.1-6.2,0.2-9.4,0.3
			c-4,0.2-5.7-1.4-5.7-5.3c0-5.2,0.2-10.4,0.2-15.6c0.1-1.8,0.1-3.6,0.1-5.5c0-1,0.3-1.7,1-2.4c1-1,2-2,3-3c0.3-0.3,0.8-0.6,1.6-1.1
			c0,2.5,0,4.7,0,6.8c0.2-0.1,0.4-0.2,0.6-0.2c3.9,0,4.3,0,8.2,0.1c0.4,0,0.8,0.2,1.3,0.3c-0.2,0.5-0.2,0.8-0.3,1
			c-1.3,1.4-2.6,2.8-3.9,4.1c-0.3,0.3-1,0.5-1.5,0.5c-2.3,0.1-3.3,0.1-4.5,0c-0.1,3.6-0.1,7.2-0.2,10.8c0,0.5,0.1,1.1,0.3,1.5
			c0.4,1.6,1.1,2.1,2.7,2.1c1.1,0,2.2-0.1,3.3-0.1c2.6-0.1,5.1-0.2,7.6-0.2C831.1,277.3,831.5,277.5,831.9,277.7z"/>
		<path class="st2" d="M858.5,277.3c-0.1,0.4-0.2,0.7-0.3,0.9c-1.3,1.4-2.5,2.8-3.9,4.1c-0.3,0.4-1.1,0.5-1.6,0.6
			c-2,0.2-4.1,0.2-6.2,0.3c-0.3,0-0.7,0-1.1,0c-2.2-0.1-3-0.7-3-2.8c0-4.1,0.2-8.1,0.3-12.2c0.1-1.4,0-2.8-0.1-4.1
			c-0.3-0.2-0.4-0.2-0.5-0.3c-3.8-0.2-4.1-0.1-5.3,3.6c-1,3.2-1.9,6.4-2.7,9.6c-0.3,1.2-0.8,2.3-1.8,3.2c-0.8,0.7-1.5,1.6-2.4,2.4
			c-0.4,0.4-1,0.7-1.7,1.2c-0.1-0.8-0.2-1.2-0.2-1.7c0.3-10.4,0.6-20.8,0.8-31.3c0-1.3,0.4-2.3,1.3-3.1c1-0.8,1.7-1.8,2.6-2.6
			c0.4-0.4,0.8-0.6,1.5-1.1c0.6,2,0.2,3.6,0.2,5.3c0.1,1.8,0,3.5,0,5.3c-0.1,1.7-0.1,3.4-0.1,5.1c-0.1,1.7,0,3.4,0,5.3
			c0.4-0.3,0.6-0.5,0.8-0.7c1.2-1.2,2.4-2.2,3.4-3.5c2.1-2.5,4.8-3.3,8-3.1c1.1,0.1,1.6,0.4,1.7,1.6c0.2,1.2,0.2,2.5,0.2,3.7
			c-0.1,3.9-0.3,7.8-0.4,11.7c0,0.4-0.1,0.8,0,1.2c0.2,1.1,0.3,1.3,1.5,1.3c1.2,0,2.4-0.1,3.5-0.2
			C855.1,276.8,857.1,276.8,858.5,277.3z"/>
		<path class="st2" d="M879.2,277.4c-0.4,0.7-0.7,1.2-1,1.7c-0.7,0.8-1.6,1.5-2.2,2.4c-1,1.2-2.2,1.7-3.7,1.7
			c-4.3,0.1-8.5,0.2-12.7,0.2c-3.9,0-5-1.2-5.1-5.1c-0.1-3.6-0.1-7.3-0.1-11c0.1-2.4,0.7-4.5,2.6-6.1c0.8-0.7,1.5-1.5,2.2-2.3
			c1-1.1,2.2-1.7,3.7-1.7c1.6,0,3.2,0.1,4.7,0.3c1.8,0.4,2.7,1.6,2.7,3.5c0,2.7-0.7,5.2-2.7,7.2c-2.4,2.6-4.8,5.2-7.2,7.8
			c0.2,1,1,1.3,1.8,1.3c1.6,0.1,3.2,0.2,4.8,0.2c3.6-0.1,7.2-0.2,10.8-0.3C878.2,277.2,878.5,277.3,879.2,277.4z M860.2,272.8
			c0.2-0.1,0.5,0,0.6-0.1c1.7-1.2,3.1-2.6,3.6-4.8c0.9-3.6-0.2-5.1-4-4.9c-0.1,0-0.1,0.1-0.3,0.2
			C860.2,266.3,860.2,269.5,860.2,272.8z"/>
		<path class="st2" d="M890.2,279.2c-1,1.1-2,2.2-3.1,3.1c-0.6,0.5-1.3,1-2,1c-2.1,0.2-4.3,0.2-6.5,0.1c-2.2-0.1-3.3-1.4-3.4-3.9
			c-0.1-1.7-0.1-3.4,0.1-5.2c0.1-3,0.3-6.1,0.4-9.1c0.1-1,0.3-1.8,1.1-2.5c1-0.8,1.8-1.8,2.7-2.7c0.4-0.4,0.8-0.7,1.3-1
			c0.9,0.9,0.6,1.8,0.6,2.6c-0.2,4-0.4,7.9-0.6,11.8c0,0.8,0.1,1.6,0.2,2.3c0.3,1.5,0.7,1.8,2.2,1.8c2.4,0.1,4.9,0,7.5-0.1
			C891.1,278.2,890.6,278.7,890.2,279.2z M875.7,259.4c-0.3-0.2-0.5-0.6-0.5-1c0.1-1.7,0.2-5.2,0.3-6.8c0-0.4,0.2-0.8,0.5-1.1
			c1.2-1.3,2.5-2.7,3.8-4c0.2-0.2,0.6-0.2,1.2-0.5c0.2,2.4-0.1,6.4-0.3,8.5c-0.1,0.2-0.2,0.4-0.3,0.6c-1.2,1.3-2.5,2.6-3.8,4
			C876.4,259.3,875.9,259.6,875.7,259.4z"/>
		<path class="st2" d="M904.7,276.1c-1.6,2.1-3.5,4.1-5.5,5.9c-0.9,0.8-2.4,1.1-3.6,1.2c-4.1,0.1-8.2-0.1-12.3-0.2
			c-0.2,0-0.3-0.2-0.7-0.3c0.2-0.4,0.3-0.8,0.5-1c1.2-1.3,2.4-2.6,3.6-3.8c0.5-0.4,1.3-0.6,2-0.6c2.5,0,5,0.1,7.6,0.2
			c1,0.1,2,0,3.1,0c-0.8-1.5-1.9-2.1-3.1-2.7c-1.3-0.7-2.7-1.3-4.1-2.1c-1-0.6-1.8-1.2-2.7-2c-1.6-1.3-2-3.1-1.2-4.9
			c0.3-0.7,0.7-1.4,1.2-2c1.3-1.5,2.6-2.9,4.1-4.2c2.3-2,5.2-2.7,8.2-2.5c1.6,0.2,2.6,1.2,3,2.6c0.2,0.8,0.1,1.4-0.4,2
			c-1.2,1.2-2.4,2.5-3.6,3.7c-0.3,0.3-0.7,0.4-1.2,0.6c-0.6-1.1-0.4-2.4-1.6-2.9c-1-0.3-2.7-0.3-4.1,0.3c-0.1,0.9,0.4,1.5,1.1,1.8
			c1.8,1.2,3.8,2.2,5.8,3.4c1.1,0.7,2.2,1.3,3.2,2.1C905.6,272.3,906,274.4,904.7,276.1z"/>
		<path class="st2" d="M928.4,278.6c-1.1,1.1-2.1,2.3-3.2,3.3c-0.6,0.4-1.3,0.8-2,0.8c-3.6,0.3-7.2,0.5-10.8,0.8c-0.2,0-0.4,0-0.6,0
			c-2.7,0-3.8-0.9-3.8-3.7c0-4.4,0.1-8.9,0.2-13.2c0.1-5.3,0.2-10.6,0.2-16c0-1.1,0.3-2,1.1-2.8c1-0.9,1.8-1.8,2.7-2.7
			c0.4-0.4,0.9-0.7,1.3-1c0.2,0.1,0.3,0.2,0.5,0.3c0,0.8,0,1.5,0,2.2c-0.2,9.1-0.3,18.2-0.4,27.3c0,0.6,0,1.3,0.1,1.9
			c0.1,1.3,0.4,1.7,1.7,1.7c0.6,0,1.2,0,1.8,0c2.9-0.2,5.8-0.4,8.6-0.6c1-0.1,1.8,0,2.7,0C929.2,277.7,928.9,278.2,928.4,278.6z"/>
		<path class="st2" d="M953.2,277.2c-0.1,0.5-0.1,0.8-0.2,1.1c-0.2,0.3-0.4,0.6-0.7,0.8c-1.2,1.2-2.2,2.8-3.7,3.5
			c-1.5,0.6-3.4,0.3-5,0.4c-1.6,0.1-3.1,0.2-4.6,0.2c-2.1,0-2.9-0.6-3.3-2.7c-0.2-0.9-0.3-1.8-0.4-3c-0.6,0.5-1,0.8-1.3,1.2
			c-1.2,1.2-2.2,2.5-3.5,3.5c-0.9,0.7-2,1.3-3,1.7c-1.3,0.6-2.3-0.1-2.6-1.5c-0.2-0.7-0.2-1.5-0.2-2.3c0.2-4.4,0.3-8.8,0.5-13.2
			c0.1-2,0.8-3.6,2.3-5c1-0.8,1.8-1.8,2.7-2.8c0.7-0.8,1.7-1.2,2.8-1.3c2.1-0.2,4.2-0.3,6.3-0.4c1.7-0.1,1.9,0.1,1.9,1.9
			c-0.1,3.4-0.2,6.7-0.2,10.1c0,1.9,0.1,3.9,0.3,5.8c0.2,2,0.6,2.2,2.6,2.1c2.6-0.1,5.2-0.2,7.8-0.3
			C952.2,277,952.7,277.1,953.2,277.2z M935.5,263.3c-1.6,0.1-3.1,0.2-4.6,0.2c-0.6,4.4-0.4,8.7-0.4,13c0,0.6-0.2,1.5,0.6,1.7
			c0.8,0.2,1.1-0.6,1.5-1.2c0.3-0.4,0.6-1,0.8-1.5c1.2-2.9,2-5.8,2-8.9C935.5,265.6,935.5,264.5,935.5,263.3z"/>
		<path class="st2" d="M990.1,277.6c-0.4,0.9-0.7,1.5-1,1.8c-1,1.1-2,2-2.9,3.1c-0.6,0.6-1.2,0.9-2,0.8c-2.7-0.1-5.4-0.1-8.2-0.1
			c-0.5,0-1.1-0.1-1.6-0.2c-1.3-0.3-2-0.9-2-2.3c-0.1-1.3,0.2-2.7,0.2-4c0.1-3.5,0.1-7,0.1-10.4c0-0.4-0.1-0.8-0.2-1.2
			c-0.2-0.8-0.7-1-1.4-1.1c-0.8-0.1-1.1,0.4-1.2,1.1c-0.7,2.5-1.3,5.1-2,7.7c-0.3,1.3-0.4,2.8-0.7,4.2c-0.1,0.4-0.1,0.8-0.4,1.1
			c-1.3,1.5-2.7,2.9-4.1,4.3c-0.2,0.2-0.6,0.2-1.2,0.2c-0.1-6.3-0.1-12.4-0.1-18.6c-2.2-0.5-2.3-0.4-3.1,1.2
			c-1.6,3.3-2.4,6.9-2.7,10.5c-0.2,1.7-0.7,3-2,4.1c-0.9,0.8-1.6,1.7-2.5,2.5c-0.3,0.2-0.8,0.4-1.1,0.3c-0.3-0.1-0.4-0.7-0.4-1
			c-0.1-0.9-0.1-1.8-0.1-2.7c0.1-5,0.1-10.1,0.1-15.2c0-1.2,0.3-2.2,1.2-3c1-0.8,1.7-1.8,2.6-2.7c0.4-0.4,0.8-0.7,1.6-1.2
			c0.6,2.6,0.1,4.9,0.4,7.3c1.7-1.6,3.2-3.1,4.8-4.7c1.1-1.1,2.5-1.8,4.1-1.8c2-0.1,2.5,0.3,2.8,2.3c0.1,0.6,0.1,1.2,0.1,1.8
			c0.1,0.6,0,1.1,0,2.1c1-1,1.7-1.6,2.4-2.3c0.8-0.7,1.5-1.6,2.3-2.2c0.8-0.6,1.7-1.1,2.6-1.3c2-0.5,3.5,0.6,3.8,2.6
			c0.5,3.8,0.5,7.7,0.1,11.5c-0.1,1-0.2,2-0.2,3c0,1.8,0.2,2,1.8,2.1c2,0.1,3.9,0,5.9,0.1C987,277.4,988.3,277.5,990.1,277.6z"/>
		<path class="st2" d="M1001.2,279.2c-1,1.1-2,2.2-3.1,3.1c-0.6,0.5-1.3,1-2,1c-2.1,0.2-4.3,0.2-6.5,0.1c-2.2-0.1-3.3-1.4-3.4-3.9
			c-0.1-1.7-0.1-3.4,0.1-5.2c0.1-3,0.3-6.1,0.4-9.1c0.1-1,0.3-1.8,1.1-2.5c1-0.8,1.8-1.8,2.7-2.7c0.4-0.4,0.8-0.7,1.3-1
			c0.9,0.9,0.6,1.8,0.6,2.6c-0.2,4-0.4,7.9-0.6,11.8c0,0.8,0.1,1.6,0.2,2.3c0.3,1.5,0.7,1.8,2.2,1.8c2.4,0.1,4.9,0,7.5-0.1
			C1002.1,278.2,1001.6,278.7,1001.2,279.2z M986.7,259.4c-0.3-0.2-0.5-0.6-0.5-1c0.1-1.7,0.2-5.2,0.3-6.8c0-0.4,0.2-0.8,0.5-1.1
			c1.2-1.3,2.5-2.7,3.8-4c0.2-0.2,0.6-0.2,1.2-0.5c0.2,2.4-0.1,6.4-0.3,8.5c-0.1,0.2-0.2,0.4-0.3,0.6c-1.2,1.3-2.5,2.6-3.8,4
			C987.4,259.3,986.9,259.6,986.7,259.4z"/>
		<path class="st2" d="M1021.2,279.3c-1.1,1.2-2.1,2.4-3.3,3.5c-0.4,0.4-1.1,0.7-1.7,0.7c-4.6,0.1-9.2,0.1-13.8,0.1
			c-2.4-0.1-3.8-1.2-4.4-3.5c-0.3-1.2-0.5-2.5-0.5-3.7c0-2.6,0-5.3,0.2-7.9c0.2-2,1.1-3.9,2.5-5.4c1.2-1.2,2.4-2.5,3.6-3.6
			c2.3-2.2,5.1-2.2,8-1.8c1.4,0.3,2.1,1.5,2.4,2.9c0.2,1,0.2,2.1,0.2,3.1c0,0.4-0.2,0.8-0.4,1.1c-1.2,1.3-2.4,2.6-3.6,3.8
			c-0.3,0.3-0.8,0.4-1.1,0.3c-0.3-0.1-0.4-0.6-0.5-1c-0.1-0.6,0-1.2-0.1-1.7c-0.2-2.1-1.2-3-3.2-2.9c-0.6,0-1.2,0.1-2.1,0.2
			c-0.1,2.7-0.2,5.3-0.2,7.9c0,1.2,0.2,2.4,0.4,3.5c0.5,2,1.3,2.7,3.4,2.7c3.4,0.1,6.7,0.1,10.1,0.1c1.5,0,3,0,4.4,0
			C1022,278.4,1021.7,278.9,1021.2,279.3z"/>
		<path class="st2" d="M1036.6,260.5c-0.2,3.9-0.3,7.8-0.5,11.8c-0.1,1.9-0.9,3.5-2.3,4.8c-0.9,0.8-1.7,1.8-2.6,2.7
			c-1.8,1.8-3.9,3-6.6,3.1c-0.2,0.1-0.4,0.1-0.7,0.1c-0.1,0-0.1,0.1-0.4,0.3c0,0.6-0.1,1.4,0,2.2c0.1,1-0.3,1.8-1,2.5
			c-0.9,0.9-1.7,1.8-2.7,2.8c-0.4,0.4-1,0.7-1.7,1.2c-0.2-0.8-0.3-1.3-0.3-1.8c0-8.9,0.1-17.8,0.1-26.7c0-0.6,0.2-1.3,0.6-1.8
			c1.2-1.4,2.5-2.6,3.8-3.9c0.2-0.2,0.5-0.3,1.1-0.6c0.4,2.4,0,4.5,0.3,7.1c1.1-1.1,1.9-2,2.8-2.8c0.9-0.9,1.7-1.7,2.7-2.5
			c1.7-1.2,3.7-1.5,5.7-1.5c0.8,0,1.3,0.4,1.5,1.2C1036.5,259.3,1036.6,259.9,1036.6,260.5z M1030.9,263.4c-0.7,0-1,0-1.3,0
			c-1.7-0.1-3,0.6-3.4,2.4c-0.6,2.4-1.3,4.9-1.8,7.3c-0.3,1.3-0.3,2.6-0.5,4c2.4,0,4.5,0.1,6.6-0.4
			C1030.7,272.3,1030.9,268,1030.9,263.4z"/>
		<path class="st2" d="M1054.5,279.2c-1,1.1-2,2.2-3.1,3.1c-0.6,0.5-1.3,1-2,1c-2.1,0.2-4.3,0.2-6.5,0.1c-2.2-0.1-3.3-1.4-3.4-3.9
			c-0.1-1.7-0.1-3.4,0.1-5.2c0.1-3,0.3-6.1,0.4-9.1c0.1-1,0.3-1.8,1.1-2.5c1-0.8,1.8-1.8,2.7-2.7c0.4-0.4,0.8-0.7,1.3-1
			c0.9,0.9,0.6,1.8,0.6,2.6c-0.2,4-0.4,7.9-0.6,11.8c0,0.8,0.1,1.6,0.2,2.3c0.3,1.5,0.7,1.8,2.2,1.8c2.4,0.1,4.9,0,7.5-0.1
			C1055.4,278.2,1054.8,278.7,1054.5,279.2z M1040,259.4c-0.3-0.2-0.5-0.6-0.5-1c0.1-1.7,0.2-5.2,0.3-6.8c0-0.4,0.2-0.8,0.5-1.1
			c1.2-1.3,2.5-2.7,3.8-4c0.2-0.2,0.6-0.2,1.2-0.5c0.2,2.4-0.1,6.4-0.3,8.5c-0.1,0.2-0.2,0.4-0.3,0.6c-1.2,1.3-2.5,2.6-3.8,4
			C1040.7,259.3,1040.2,259.6,1040,259.4z"/>
		<path class="st2" d="M1071.7,278.6c-1.1,1.1-2.1,2.3-3.2,3.3c-0.6,0.4-1.3,0.8-2,0.8c-3.6,0.3-7.2,0.5-10.8,0.8
			c-0.2,0-0.4,0-0.6,0c-2.7,0-3.8-0.9-3.8-3.7c0-4.4,0.1-8.9,0.2-13.2c0.1-5.3,0.2-10.6,0.2-16c0-1.1,0.3-2,1.1-2.8
			c1-0.9,1.8-1.8,2.7-2.7c0.4-0.4,0.9-0.7,1.3-1c0.2,0.1,0.3,0.2,0.5,0.3c0,0.8,0,1.5,0,2.2c-0.2,9.1-0.3,18.2-0.4,27.3
			c0,0.6,0,1.3,0.1,1.9c0.1,1.3,0.4,1.7,1.7,1.7c0.6,0,1.2,0,1.8,0c2.9-0.2,5.8-0.4,8.6-0.6c1-0.1,1.8,0,2.7,0
			C1072.4,277.7,1072.1,278.2,1071.7,278.6z"/>
		<path class="st2" d="M1088.8,278.6c-1.1,1.1-2.1,2.3-3.2,3.3c-0.6,0.4-1.3,0.8-2,0.8c-3.6,0.3-7.2,0.5-10.8,0.8
			c-0.2,0-0.4,0-0.6,0c-2.7,0-3.8-0.9-3.8-3.7c0-4.4,0.1-8.9,0.2-13.2c0.1-5.3,0.2-10.6,0.2-16c0-1.1,0.3-2,1.1-2.8
			c1-0.9,1.8-1.8,2.7-2.7c0.4-0.4,0.9-0.7,1.3-1c0.2,0.1,0.3,0.2,0.5,0.3c0,0.8,0,1.5,0,2.2c-0.2,9.1-0.3,18.2-0.4,27.3
			c0,0.6,0,1.3,0.1,1.9c0.1,1.3,0.4,1.7,1.7,1.7c0.6,0,1.2,0,1.8,0c2.9-0.2,5.8-0.4,8.6-0.6c1-0.1,1.8,0,2.7,0
			C1089.5,277.7,1089.2,278.2,1088.8,278.6z"/>
	</g>
	<g>
		<path class="st2" d="M539,404.4c0.1,0.4-0.4,1-0.7,1.5c-0.1,0.2-0.2,0.3-0.3,0.4c-1.2,1.2-2.5,2.4-3.8,3.5
			c-3.1,0.1-6.3,0.8-9.5,0.2c-1.5-0.3-2.3-1.3-2.8-2.7c-0.3-0.6-0.4-1.3-0.7-2.2c-0.7,0.7-1.3,1.4-2,2c-1.2,1-2.5,2.1-3.8,2.8
			c-2.2,1.2-4,0.3-4.6-2.1c-0.7-2.8-0.5-5.7-0.3-8.6c0.1-0.5,0.1-1,0.2-1.4c0.4-3.2,1.5-6.1,4-8.2c0.3-0.2,0.6-0.6,0.8-0.8
			c1.7-2,3.6-3.6,6.4-3.9c0-2.4,0.1-4.6,0-6.8c-0.1-1,0.2-1.7,0.9-2.4c1-1,1.9-2,2.9-2.9c0.4-0.4,0.9-0.7,1.6-1.2
			c0.2,1,0.3,1.6,0.3,2.2c-0.1,7.5-1,26.5-0.4,28.3c0.5,1.6,1.3,2.2,3,2.2c2.3,0,4.6-0.2,6.9-0.2C537.9,404,538.8,403.6,539,404.4z
			 M521.8,390.4c-1.6,0.1-3.1,0.2-4.8,0.4c-1,4.1-1.4,8-0.6,11.9c0.2,0.7,0.4,1.5,1.3,1.7c0.7,0.2,1.8-0.3,2.2-1.2
			c0.4-1,0.8-2,1.1-3.1c0.3-1.6,0.4-3.3,0.6-4.9C521.7,393.7,522.2,392.1,521.8,390.4z"/>
		<path class="st2" d="M550,406.2c-1,1.1-2,2.2-3.1,3.1c-0.6,0.5-1.3,1-2,1c-2.1,0.2-4.3,0.2-6.5,0.1c-2.2-0.1-3.3-1.4-3.4-3.9
			c-0.1-1.7-0.1-3.4,0.1-5.2c0.1-3,0.3-6.1,0.4-9.1c0.1-1,0.3-1.8,1.1-2.5c1-0.8,1.8-1.8,2.7-2.7c0.4-0.4,0.8-0.7,1.3-1
			c0.9,0.9,0.6,1.8,0.6,2.6c-0.2,4-0.4,7.9-0.6,11.8c0,0.8,0.1,1.6,0.2,2.3c0.3,1.5,0.7,1.8,2.2,1.8c2.4,0.1,4.9,0,7.5-0.1
			C550.9,405.2,550.4,405.7,550,406.2z M535.6,386.4c-0.3-0.2-0.5-0.6-0.5-1c0.1-1.7,0.2-5.2,0.3-6.8c0-0.4,0.2-0.8,0.5-1.1
			c1.2-1.3,2.5-2.7,3.8-4c0.2-0.2,0.6-0.2,1.2-0.5c0.2,2.4-0.1,6.4-0.3,8.5c-0.1,0.2-0.2,0.4-0.3,0.6c-1.2,1.3-2.5,2.6-3.8,4
			C536.3,386.3,535.8,386.6,535.6,386.4z"/>
		<path class="st2" d="M564.6,403.1c-1.6,2.1-3.5,4.1-5.5,5.9c-0.9,0.8-2.4,1.1-3.6,1.2c-4.1,0.1-8.2-0.1-12.3-0.2
			c-0.2,0-0.3-0.2-0.7-0.3c0.2-0.4,0.3-0.8,0.5-1c1.2-1.3,2.4-2.6,3.6-3.8c0.5-0.4,1.3-0.6,2-0.6c2.5,0,5,0.1,7.6,0.2
			c1,0.1,2,0,3.1,0c-0.8-1.5-1.9-2.1-3.1-2.7c-1.3-0.7-2.7-1.3-4.1-2.1c-1-0.6-1.8-1.2-2.7-2c-1.6-1.3-2-3.1-1.2-4.9
			c0.3-0.7,0.7-1.4,1.2-2c1.3-1.5,2.6-2.9,4.1-4.2c2.3-2,5.2-2.7,8.2-2.5c1.6,0.2,2.6,1.2,3,2.6c0.2,0.8,0.1,1.4-0.4,2
			c-1.2,1.2-2.4,2.5-3.6,3.7c-0.3,0.3-0.7,0.4-1.2,0.6c-0.6-1.1-0.4-2.4-1.6-2.9c-1-0.3-2.7-0.3-4.1,0.3c-0.1,0.9,0.4,1.5,1.1,1.8
			c1.8,1.2,3.8,2.2,5.8,3.4c1.1,0.7,2.2,1.3,3.2,2.1C565.5,399.3,565.8,401.4,564.6,403.1z"/>
		<path class="st2" d="M591.1,406.3c-1.1,1.2-2.1,2.4-3.3,3.5c-0.4,0.4-1.1,0.7-1.7,0.7c-4.6,0.1-9.2,0.1-13.8,0.1
			c-2.4-0.1-3.8-1.2-4.4-3.5c-0.3-1.2-0.5-2.5-0.5-3.7c0-2.6,0-5.3,0.2-7.9c0.2-2,1.1-3.9,2.5-5.4c1.2-1.2,2.4-2.5,3.6-3.6
			c2.3-2.2,5.1-2.2,8-1.8c1.4,0.3,2.1,1.5,2.4,2.9c0.2,1,0.2,2.1,0.2,3.1c0,0.4-0.2,0.8-0.4,1.1c-1.2,1.3-2.4,2.6-3.6,3.8
			c-0.3,0.3-0.8,0.4-1.1,0.3c-0.3-0.1-0.4-0.6-0.5-1c-0.1-0.6,0-1.2-0.1-1.7c-0.2-2.1-1.2-3-3.2-2.9c-0.6,0-1.2,0.1-2.1,0.2
			c-0.1,2.7-0.2,5.3-0.2,7.9c0,1.2,0.2,2.4,0.4,3.5c0.5,2,1.3,2.7,3.4,2.7c3.4,0.1,6.7,0.1,10.1,0.1c1.5,0,3,0,4.4,0
			C591.9,405.4,591.6,405.9,591.1,406.3z"/>
		<path class="st2" d="M605.3,401.6c0,1.7-0.6,3.3-2,4.4c-0.3,0.3-0.6,0.7-1,1c-2.7,2.8-2.7,2.9-6.5,3.1c-1.6,0.1-3.1,0.1-4.6-0.1
			c-2.7-0.3-3.8-1.4-3.9-4.1c-0.1-2.6,0.1-5.2,0.2-7.8c0.1-2.4,0.3-4.8,0.5-7.2c0.1-0.8,0.4-1.6,1-2.1c0.9-0.9,1.8-1.7,2.6-2.7
			c1-1.2,2.2-1.6,3.5-1.6c2.5-0.1,5-0.1,7.5-0.1c2,0,2.5,0.6,2.5,2.6C605.2,389.5,605.3,399.2,605.3,401.6z M599.5,390.5
			c-2.1-0.6-3.9-0.1-5.9-0.1c-0.1,1.3-0.2,2.4-0.3,3.6c-0.1,2.5-0.2,5.1-0.2,7.6c0.1,1.8,0.8,2.4,2.5,2.6c1.2,0.1,2.5,0,3.8,0
			C599.5,399.6,599.5,395,599.5,390.5z"/>
		<path class="st2" d="M626.8,385.9c-1.2,1.5-2.6,2.8-4,4.1c-0.2,0.2-0.7,0.2-1.1,0.2c-0.7-0.1-1.4-0.2-2.1-0.2
			c-1.6,0.1-2.7,0.9-3.3,2.5c-1.1,3.5-2.1,7.1-2.2,10.9c0,1.1-0.4,2-1.2,2.8c-1,0.9-1.8,1.9-2.7,2.8c-0.4,0.4-0.8,1.1-1.5,0.6
			c-0.3-0.2-0.4-1-0.4-1.4c0-2.2,0.1-4.4,0.2-6.6c0.1-3.6,0.3-7.2,0.4-10.8c0-1.2,0.3-2.1,1.3-3c0.9-0.8,1.7-1.8,2.6-2.6
			c0.4-0.4,0.8-0.7,1.3-1.1c0.2,0.1,0.3,0.1,0.4,0.2c0,1.8,0,3.6,0,5.4c0.1,0.1,0.2,0.1,0.4,0.2c1-1,2-2,3-3c1.7-1.8,4-2.7,6.4-2.9
			c0.6-0.1,1.2,0,1.7,0.1C627,384.6,627.4,385.3,626.8,385.9z"/>
		<path class="st2" d="M656.6,404.4c0.1,0.4-0.4,1-0.7,1.5c-0.1,0.2-0.2,0.3-0.3,0.4c-1.2,1.2-2.5,2.4-3.8,3.5
			c-3.1,0.1-6.3,0.8-9.5,0.2c-1.5-0.3-2.3-1.3-2.8-2.7c-0.3-0.6-0.4-1.3-0.7-2.2c-0.7,0.7-1.3,1.4-2,2c-1.2,1-2.5,2.1-3.8,2.8
			c-2.2,1.2-4,0.3-4.6-2.1c-0.7-2.8-0.5-5.7-0.3-8.6c0.1-0.5,0.1-1,0.2-1.4c0.4-3.2,1.5-6.1,4-8.2c0.3-0.2,0.6-0.6,0.8-0.8
			c1.7-2,3.6-3.6,6.4-3.9c0-2.4,0.1-4.6,0-6.8c-0.1-1,0.2-1.7,0.9-2.4c1-1,1.9-2,2.9-2.9c0.4-0.4,0.9-0.7,1.6-1.2
			c0.2,1,0.3,1.6,0.3,2.2c-0.1,7.5-1,26.5-0.4,28.3c0.5,1.6,1.3,2.2,3,2.2c2.3,0,4.6-0.2,6.9-0.2C655.6,404,656.4,403.6,656.6,404.4
			z M639.4,390.4c-1.6,0.1-3.1,0.2-4.8,0.4c-1,4.1-1.4,8-0.6,11.9c0.2,0.7,0.4,1.5,1.3,1.7c0.7,0.2,1.8-0.3,2.2-1.2
			c0.4-1,0.8-2,1.1-3.1c0.3-1.6,0.4-3.3,0.6-4.9C639.4,393.7,639.8,392.1,639.4,390.4z"/>
		<path class="st2" d="M662.6,405.7c-0.1,0.3-0.2,0.7-0.4,0.9c-1.2,1.3-2.4,2.5-3.5,3.8c-0.6,0.6-1.2,0.8-1.9,0.2
			c-1.5-1.2-2.9-2.5-4.4-3.9c-0.2-0.2-0.2-1-0.1-1.2c1.5-1.6,3-3.1,4.6-4.8C659,402.5,660.8,404.1,662.6,405.7z"/>
		<path class="st2" d="M681.5,386.9c0,4.9-0.1,9.8-0.2,14.6c-0.1,4.1-0.1,8.1-0.2,12.2c-0.1,2.1-0.8,4-2.4,5.5
			c-0.8,0.8-1.6,1.8-2.4,2.6c-1,1.1-2.2,1.7-3.7,1.9c-2.6,0.3-5.2,0.7-7.7,1c-0.3,0.1-0.7-0.1-1.1-0.2c0.1-0.4,0-1,0.3-1.3
			c1.1-1.3,2.2-2.7,3.5-3.9c0.6-0.5,1.6-0.7,2.4-0.8c1.8-0.3,3.6-0.5,5.5-0.7c0.4-4.5,0.2-9,0.2-13.8c-0.7,0.8-1.2,1.3-1.7,1.8
			c-1.5,1.7-3.2,3.3-5.3,4.4c-0.6,0.3-1.2,0.5-1.8,0.6c-1.2,0.1-1.9-0.4-2.2-1.6c-0.1-0.3-0.2-0.6-0.2-0.8c0-4.6-0.1-9.2,0-13.8
			c0-1.6,0.8-2.9,1.9-4.1c0.9-0.9,1.7-1.9,2.6-2.9c1.4-1.6,3.1-2.7,5.3-3c1.2-0.2,2.3-0.5,3.5-0.6c1.1-0.1,2.2,0,3.4,0.1
			C681.4,385.2,681.6,386,681.5,386.9z M676,389.8c-1.7,0.3-3.2,0.4-4.6,0.7c-1.3,0.2-1.4,0.3-1.4,1.6c0.1,3.6,0.1,7.2,0.2,10.8
			c0.1,0.6,0.3,1.2,0.4,1.8c2-0.1,3.1-0.7,3.6-2.2C675.3,398.4,675.8,394.3,676,389.8z"/>
		<path class="st2" d="M701.7,386.9c0,4.9-0.1,9.8-0.2,14.6c-0.1,4.1-0.1,8.1-0.2,12.2c-0.1,2.1-0.8,4-2.4,5.5
			c-0.8,0.8-1.6,1.8-2.4,2.6c-1,1.1-2.2,1.7-3.7,1.9c-2.6,0.3-5.2,0.7-7.7,1c-0.3,0.1-0.7-0.1-1.1-0.2c0.1-0.4,0-1,0.3-1.3
			c1.1-1.3,2.2-2.7,3.5-3.9c0.6-0.5,1.6-0.7,2.4-0.8c1.8-0.3,3.6-0.5,5.5-0.7c0.4-4.5,0.2-9,0.2-13.8c-0.7,0.8-1.2,1.3-1.7,1.8
			c-1.5,1.7-3.2,3.3-5.3,4.4c-0.6,0.3-1.2,0.5-1.8,0.6c-1.2,0.1-1.9-0.4-2.2-1.6c-0.1-0.3-0.2-0.6-0.2-0.8c0-4.6-0.1-9.2,0-13.8
			c0-1.6,0.8-2.9,1.9-4.1c0.9-0.9,1.7-1.9,2.6-2.9c1.4-1.6,3.1-2.7,5.3-3c1.2-0.2,2.3-0.5,3.5-0.6c1.1-0.1,2.2,0,3.4,0.1
			C701.6,385.2,701.8,386,701.7,386.9z M696.2,389.8c-1.7,0.3-3.2,0.4-4.6,0.7c-1.3,0.2-1.4,0.3-1.4,1.6c0.1,3.6,0.1,7.2,0.2,10.8
			c0.1,0.6,0.3,1.2,0.4,1.8c2-0.1,3.1-0.7,3.6-2.2C695.6,398.4,696,394.3,696.2,389.8z"/>
		<path class="st2" d="M703.6,412.9l15.6-40.6h3.8l-15.7,40.6H703.6z"/>
		<path class="st2" d="M754,403.9c-0.2,0.6-0.3,1-0.6,1.3c-1.2,1.2-2.4,2.5-3.6,3.7c-0.3,0.3-0.8,0.5-1.2,0.5
			c-2.7,0.2-5.5,0.3-8.3,0.4c-0.3,0-0.7,0-1.1-0.1c-1.7-0.2-2.3-0.7-2.4-2.5c-0.1-1.5,0-3,0-4.9c-0.6,0.4-0.8,0.7-1.1,0.9
			c-1.5,1.5-2.9,3.1-4.4,4.6c-1,0.9-2.1,1.7-3.3,2.3c-1.3,0.6-2.5,0.1-3.1-1.2c-0.3-0.7-0.4-1.4-0.4-2.1c0-5.4,0-10.8,0.1-16.1
			c0.1-0.6,0.3-1.2,0.6-1.6c1.2-1.3,2.4-2.6,3.7-3.8c0.2-0.2,0.7-0.3,1.2-0.6c0.1,0.7,0.1,1.1,0.1,1.6c0,5-0.1,10.1-0.1,15.2
			c0,0.7,0,1.3,0.2,1.9c0.4,1.1,1.3,1.3,2,0.4c0.6-0.6,1-1.3,1.3-2.1c1.6-3.8,2.9-7.6,3.2-11.7c0.1-0.9,0.3-1.6,1-2.2
			c1-1,1.8-2,2.8-2.9c0.4-0.4,0.9-0.7,1.7-1.3c0.1,1,0.3,1.6,0.3,2.2c0,3.5-0.1,7.1-0.1,10.6c0,1.8,0,3.5,0,5.3
			c0,0.6,0.1,1.2,0.1,1.7c1.4,0.6,2.7,0.4,4.1,0.3c2-0.1,3.9-0.2,5.8-0.3C753,403.7,753.4,403.8,754,403.9z"/>
		<path class="st2" d="M756,378.7c0,3.1,0,6.1,0,9.4c3.8-0.1,7.4-0.2,11-0.3c0.6,0.8,0.3,1.3-0.2,1.7c-1.1,1.2-2.2,2.3-3.3,3.4
			c-0.6,0.6-1.3,0.8-2.1,0.8c-1.8,0-3.6,0.1-5.6,0.1c0,1.1-0.1,1.9,0,2.8c0.1,1.8,0.2,3.8,0.3,5.7c0.1,1.3,0.9,2.2,2.1,2.5
			c1.4,0.3,2.8,0.6,4.2,0.6c4.8-0.1,9.5-0.2,14.3-0.4c0.3,0,0.6,0.1,0.8,0.1c0.5,0.7,0.1,1.2-0.3,1.6c-1.1,1.1-2.1,2.2-3.2,3.3
			c-0.6,0.6-1.2,0.9-2,0.9c-5.3,0.1-10.6,0.2-15.9,0.3c-0.3,0-0.7-0.1-1.1-0.1c-3.5-0.6-4.7-1.9-4.8-5.4c-0.1-5.8-0.1-11.5-0.1-17.3
			c0-1.7,0-3.3,0.1-5c0.1-2.2,0.8-4.1,2.5-5.7c1-0.8,1.8-1.8,2.7-2.8c1.1-1.1,2.4-1.7,3.9-1.9c2.6-0.4,5.3-0.7,8-0.3
			c0.7,0.1,1.4,0.2,2,0.5c0.6,0.3,1.1,0.7,1.5,1.2c1,1.5,0.6,4.8-0.6,6.1c-0.8,0.9-1.7,1.8-2.6,2.6c-0.4,0.4-0.9,1.2-1.6,0.8
			c-0.3-0.2-0.4-1-0.4-1.6c-0.1-0.5,0.1-1,0-1.6c-0.1-1.2-0.4-1.8-1.6-2C761.3,378.1,758.7,377.9,756,378.7z"/>
		<path class="st2" d="M786.4,404.7c1.2-3.9,1.3-7.7,1.5-12c-0.7,0.7-1.2,1.2-1.6,1.6c-0.8,0.8-1.5,1.7-2.2,2.4
			c-1.1,0.8-2.2,1.7-3.4,2.2c-3.3,1.4-6.7-0.8-6.9-4.4c-0.3-4.7,0.2-9.2,2.3-13.5c1.7-3.2,4.3-5.7,7-8c2.1-1.6,6.2-1.3,8.1,0.6
			c0.6,0.6,1.1,1.5,1.3,2.3c0.8,2.2,1.1,4.5,1.2,6.8c0.1,5.2-0.1,10.4-1.1,15.6c-0.6,3-1.7,5.7-4,7.8c-0.8,0.7-1.5,1.6-2.2,2.4
			c-1.1,1.2-2.5,2.1-4.1,2.2c-1.8,0.2-3.8,0.3-5.6,0.4c-0.4,0-1-0.2-1-0.5c-0.2-0.3,0.1-0.8,0.3-1.1c1.2-1.3,2.4-2.7,3.7-4
			c0.4-0.4,1.1-0.4,1.7-0.5C782.9,404.9,784.6,404.8,786.4,404.7z M779.4,389.8c0.3,2,2.2,3.6,4,3.4c2.1-0.3,3.3-1.8,4.4-3.3
			c0.2-0.2,0.2-0.5,0.2-0.7c0.1-2.9-0.2-5.7-1.2-8.5c-0.3-1-1-1.7-2-2c-0.7-0.2-1.6-0.4-2.4-0.5c-1.4-0.1-1.7,0-2,1.5
			C779.9,382.1,779.2,388.9,779.4,389.8z"/>
		<path class="st2" d="M824.8,373.1c0,3.6,0.1,7.2-0.1,10.8c-0.1,4.5-0.2,9-0.5,13.5c-0.1,1.7-0.5,3.4-1,5c-0.3,1-1,2-1.6,2.8
			c-0.7,1-1.6,1.8-2.3,2.8c-2.9,3.6-5.9,3-8.9-0.1c-0.4-0.4-0.7-0.8-1.1-1.4c-0.8,0.9-1.4,1.7-2.1,2.4c-1.1,1.1-2.1,2.5-3.8,2.3
			c-2.1-0.2-3.9-1.1-5.2-2.9c-1.5-2.1-2.1-4.4-2.1-6.9c-0.1-3,0-5.9,0-8.9c0.1-4.3,0.2-8.6,0.1-12.9c0-1.8,0.3-3.4,1.7-4.8
			c0.9-0.8,1.6-1.8,2.4-2.7c0.2-0.3,0.7-0.4,1.2-0.8c0.1,0.8,0.2,1.4,0.2,2c-0.1,6.3-0.2,12.6-0.2,18.9c0,2.3,0.1,4.6,0.4,6.8
			c0.5,2.6,1.8,4.8,5,5.5c0.2-2.5,0.5-4.8,0.6-7.1c0.1-5.4,0.1-10.9,0.1-16.4c0-1.1,0-2.3,0.1-3.5c0.1-0.4,0.2-1,0.4-1.3
			c1.2-1.6,2.6-3,3.9-4.5c0.1-0.1,0.3-0.1,0.5-0.2c0.8,0.3,0.7,1,0.8,1.7c0.1,5,0.2,10,0.3,15.1c0.1,3,0.1,6.1,0.3,9.2
			c0.2,2.9,1.3,5.3,4.5,6.4c0.1-0.7,0.3-1.3,0.3-1.9c0.2-2.7,0.3-5.4,0.3-8.1c0.1-5.2,0.2-10.4,0.2-15.6c0-1.2,0.3-2.1,1.1-3
			c0.9-1,1.7-2,2.6-3c0.4-0.4,0.8-0.7,1.6-1.4C824.7,372,824.8,372.5,824.8,373.1z"/>
		<path class="st2" d="M833.7,410.6c-0.6,0.1-0.7,0.1-0.8,0.1c-3.3,0.2-4.7-0.9-5.4-4.2c-0.1-0.4-0.1-0.8-0.1-1.2
			c-0.3-2.1,0-3.9,1.8-5.3c0.9-0.7,1.5-1.6,2.4-2.4c0.2-0.3,0.7-0.4,1.1-0.3c0.2,0.1,0.3,0.6,0.4,0.9c0.1,0.4-0.1,0.8-0.1,1.2
			c0.1,1,0.2,2,0.4,3c0.6,2.1,1.3,2.6,3.4,2.5c1.2-0.1,2.5-0.2,3.7-0.3c1-0.1,1.6-0.4,1.6-1.5c-0.1-1.7,0-3.4-0.3-5.1
			c-0.3-2-1.8-3.1-3.5-3.9c-1.6-0.9-3.3-1.6-4.9-2.5c-5.4-2.9-6.6-8.2-2.7-13c1.5-1.8,3.1-3.6,4.9-5.1c3.1-2.6,6.8-3,10.7-1.9
			c1.8,0.4,2.8,1.7,2.8,3.6c0,1.3-0.2,2.6-0.3,3.9c-0.1,0.5-0.2,1.1-0.6,1.5c-1.2,1.3-2.4,2.6-3.7,3.8c-0.2,0.3-0.7,0.3-1.1,0.4
			c-0.1-0.4-0.3-0.8-0.3-1.2c0.1-1.3,0.3-2.6,0.3-3.9c0-1.1-0.7-1.8-1.7-2.2c-2.1-0.7-4.1-0.6-6.3-0.1c-0.6,0.2-0.8,0.5-1,1.1
			c-0.7,2.7,0.3,5.2,2.9,6.8c1.5,0.8,3,1.6,4.5,2.4c5.2,2.3,6.5,5,5.9,10.9c-0.2,2-1,3.8-2.3,5.3c-1.3,1.5-2.7,3-4.1,4.4
			c-1.7,1.7-3.8,2.2-6.1,2.5C834.6,410.6,833.9,410.6,833.7,410.6z"/>
		<path class="st2" d="M867.1,404.8c0.2-3.7,0.4-7.4,0.6-11.3c-1.7-0.3-3.3-0.7-4.9-0.4c-0.7,0.1-1.2,0.8-1.9,1.1
			c-0.3,0.2-0.8,0.3-1.1,0.2c-0.6-0.3-0.4-0.8-0.1-1.2c0.3-0.4,0.6-0.8,0.9-1.1c1-1.1,2-2.2,3-3.3c1.1-1.2,2.4-1.8,3.9-1.8
			c1.2,0.1,2.5,0.1,3.7,0.3c1.8,0.3,2.1,0.7,2,2.5c-0.1,2.9-0.2,5.7-0.4,8.5c-0.1,1.5-0.3,3.1-0.4,4.7c-0.2,1.3-0.6,2.4-1.6,3.3
			c-0.8,0.8-1.7,1.7-2.5,2.6c-1.1,1.2-2.4,1.9-4,2c-2.9,0.2-5.9-0.1-8.7-0.7c-2-0.4-3.2-1.6-3.5-3.6c-0.3-3-0.7-6-0.8-9
			c-0.3-5,0.1-10,1-14.9c0.4-2.2,1.2-4.3,3-5.8c0.6-0.5,1.1-1.1,1.6-1.7c1.7-2.2,3.9-3.3,6.5-3.5c2.6-0.3,5.2-0.3,7.7,0.5
			c2.9,1,4.4,4.1,3.5,7.1c-0.1,0.2-0.2,0.4-0.3,0.6c-1.2,1.3-2.5,2.6-3.7,3.9c-0.3,0.2-0.8,0.4-1.1,0.3s-0.4-0.6-0.5-1
			c-0.1-0.3,0-0.7,0-1.1c-0.1-2.4-0.8-3.5-3.2-4.1c-2.5-0.7-5.1-0.6-7.8-0.1c-0.3,2.6-0.7,5.2-0.9,7.7c-0.3,5-0.1,10.1,0.6,15.1
			c0.3,2.6,1.1,3.3,3.6,3.6C863.1,404.9,865,405.2,867.1,404.8z"/>
		<path class="st2" d="M883.5,384.4c0.1,0.8,0.2,1.2,0.2,1.6c-0.3,8.7-0.6,17.5-0.9,26.3c-0.1,2.7-0.8,5.2-3,7.1
			c-0.3,0.3-0.6,0.6-0.8,0.9c-1.7,2.2-4,3.3-6.7,3.6c-2.1,0.2-4.2,0.3-6.3,0.4c-0.4,0-0.9-0.3-1.1-0.6c-0.2-0.2,0.1-0.8,0.4-1.1
			c1.1-1.2,2.3-2.5,3.6-3.6c0.4-0.4,1.1-0.5,1.7-0.6c2.1-0.2,4.2-0.3,6.4-0.5c0.1-0.7,0.1-1,0.1-1.3c0.3-8.1,0.6-16.3,0.8-24.4
			c0-1.9,0.4-3.5,2-4.7c0.8-0.6,1.4-1.5,2.1-2.2C882.4,385.2,882.8,384.9,883.5,384.4z M878.3,386.4c-0.3-0.2-0.5-0.6-0.5-1
			c0.1-1.7,0.2-5.2,0.3-6.8c0.1-0.4,0.3-0.8,0.5-1.1c1.3-1.3,2.5-2.7,3.8-4c0.2-0.2,0.6-0.2,1.2-0.5c0.2,2.4-0.1,6.4-0.3,8.5
			c0,0.2-0.2,0.4-0.3,0.6c-1.2,1.3-2.5,2.6-3.8,4C879,386.3,878.4,386.6,878.3,386.4z"/>
		<path class="st2" d="M915.4,404.7c-0.1,0.4-0.1,0.7-0.2,1c-0.2,0.3-0.4,0.6-0.6,0.8c-1.2,1.2-2.1,2.7-3.5,3.4
			c-1.4,0.7-3.2,0.6-4.8,0.7c-1.6,0.1-3.1,0.1-4.8,0.1c-1.7,0-2.9-0.6-3.6-2.3c-1.3-3.2-2.6-6.4-4-9.6c-0.2-0.5-0.4-1-0.6-1.5
			c-0.1,0-0.3,0-0.4,0.1c0,2.1-0.1,4.2,0.1,6.3c0.1,1.3-0.3,2.2-1.3,3.1c-1,0.8-1.8,1.8-2.7,2.7c-0.3,0.3-0.8,0.4-1.2,0.6
			c-0.1-0.4-0.4-0.8-0.4-1.2c0-3.4,0-6.7,0.1-10.1c0.1-6.8,0.3-13.6,0.4-20.3c0-1.1,0.3-2,1.1-2.7c1.1-1,2-2,3-3
			c0.3-0.3,0.7-0.5,1.4-0.9c0.1,0.9,0.2,1.5,0.2,2.1c-0.1,5.8-0.2,11.7-0.2,17.5c0,0.6,0,1.1,0,1.8c0.5-0.4,0.8-0.6,1.1-0.8
			c0.9-0.8,1.7-1.7,2.6-2.3c1.6-1.1,2.5-2.6,2.7-4.4c0.3-2.2,0.6-4.5,0.7-6.7c0.1-1.4,0.4-2.6,1.6-3.6c0.9-0.7,1.6-1.7,2.5-2.5
			c0.4-0.3,0.8-0.7,1.5-1.1c0.2,0.6,0.4,0.8,0.3,1.1c-0.2,2.6-0.4,5.3-0.8,7.9c-0.2,2.3-1.2,4.3-2.7,6.1c-1,1.2-2,2.3-3.1,3.4
			c-0.7,0.7-0.8,1.3-0.6,2.2c1.2,3.8,2.6,7.5,4.4,11c0.6,1,1.2,1.5,2.4,1.4c2.8-0.1,5.5-0.1,8.4-0.2
			C914.5,404.6,914.9,404.7,915.4,404.7z"/>
		<path class="st2" d="M942.4,404c-0.4,0.8-0.6,1.4-0.9,1.8c-0.4,0.6-1.1,1.1-1.5,1.7c-1.4,2.2-3.5,3-6,3c-1,0.1-2,0.1-3,0.2
			c-2.6,0.1-4.5-0.9-5.9-3.1c-2.1-3.4-5.2-8.6-7.3-12.2c-0.7,0.1-0.6,0.8-0.6,1.4c0,2.1-0.1,5.8,0.1,7.9c0,1.1-0.3,1.9-1.1,2.7
			c-1,1-1.8,2.1-2.9,3.1c-0.3,0.2-0.9,0.5-1,0.4c-0.3-0.2-0.6-0.7-0.6-1.1c0.1-5.4,0.1-12.4,0.2-17.8c0.1-4.4,0.2-8.7,0.3-13.1
			c0-1.2,0.2-2.3,1.2-3.1c0.6-0.6,1.2-1.1,1.6-1.8c1.1-1.6,2.7-2.2,4.5-2.4c1.9-0.2,3.8-0.4,5.7-0.2c1.2,0.1,2.5,0.6,3.6,1.2
			c2.1,1.2,2.8,3.1,2.4,5.4c-0.6,2.6-1.7,4.9-3.4,7c-1.2,1.4-2.4,2.8-3.6,4.1c-0.6,0.6-0.7,1.2-0.3,2c1.7,3.5,4.8,8.6,7,11.8
			c0.8,1.2,2,1.9,3.5,1.8c2-0.1,4-0.3,6-0.4C940.9,404.2,941.5,404.1,942.4,404z M925.6,382.6c0.5-2.2-0.2-3.6-2.2-4.7
			c-1.7-0.9-3.6-0.8-5.7-0.7c-0.2,5.2-0.3,10.1-0.5,15.5c1.8-1.6,3.4-2.9,4.9-4.3C923.9,386.8,925.1,384.9,925.6,382.6z"/>
		<path class="st2" d="M953.2,398.9c-1.8,2.2-2.7,4.2-4.5,6.2c-1.2,1.4-2.6,2.8-4,4c-0.8,0.6-1.8,1.1-2.9,1.3
			c-1.4,0.3-2.4-0.4-2.9-1.8c-0.3-1.2-0.6-2.4-0.6-3.6c-0.1-6.2-0.1-12.3,0.7-18.4c0.4-3.8,1.6-7.2,4.5-9.7c0.5-0.4,1-0.9,1.3-1.5
			c2.3-2.8,4.6-3.9,8.1-3.8c1.9,0.1,3.8,0.1,5.7,0.2c1.1,0.1,1.4,0.6,1.2,1.7c-0.1,0.7-0.3,1.4-0.3,2.1c-0.3,5.9-0.6,11.8-0.7,17.8
			c0,2.1,0.1,4.3,0.6,6.3c0.8,3.6,1.3,4.7,6,5c1.7,0.1,3.5-0.2,5.3-0.2c0.4,0,1.1,0.1,1.1,0.3c0.1,0.4,0,1-0.3,1.3
			c-1.1,1.3-2.3,2.6-3.5,3.8c-0.3,0.3-0.8,0.5-1.3,0.6c-2.6,0.4-5.3,0.5-7.9,0c-2.1-0.4-3.8-1.5-4.4-3.7c-0.4-1.6-0.7-3.3-1-4.9
			C953.2,400.9,953.2,400,953.2,398.9z M953.4,377.9c-2.6-0.2-4.4-0.3-7,0.1c-0.6,0.1-1,0.4-1.2,1.1c-0.2,1.1-0.5,2.1-0.6,3.2
			c-0.3,5.7-0.5,11.3-0.7,17c-0.1,1.1,0.2,2.2,0.3,3.4c0.1,0.8,0.4,1.6,1.3,1.7c0.8,0.1,1.5-0.3,1.9-1c0.6-1.2,1.3-2.3,1.7-3.6
			c1.7-4.9,2.5-9.8,3.4-15C953,382.6,953.5,380.4,953.4,377.9z"/>
	</g>
	<g>
		<path class="st3" d="M482.2,236h-59.4c-5.1,0-9.3,4.2-9.3,9.3v59.4c0,5.1,4.2,9.3,9.3,9.3h59.4c5.1,0,9.3-4.2,9.3-9.3v-59.4
			C491.5,240.1,487.3,236,482.2,236z"/>
		<path class="st4" d="M474.8,263.8h-3.7c-4,0-5.6,0.9-5.6,3.7v5.6h9.3l-1.9,9.3h-7.4v27.9h-9.3v-27.9h-7.4v-9.3h7.4v-5.6
			c0-7.4,3.7-13,11.1-13c5.4,0,7.4,1.9,7.4,1.9V263.8z"/>
	</g>
	<g>
		<ellipse cx="460.9" cy="394.8" rx="4.1" ry="5.1"/>
		<ellipse cx="443.7" cy="394.8" rx="4.1" ry="5.1"/>
		<ellipse cx="460.9" cy="394.8" rx="4.1" ry="5.1"/>
		<ellipse cx="443.7" cy="394.8" rx="4.1" ry="5.1"/>
		<path class="st5" d="M478.1,355.1h-51.7c-7.2,0-12.9,5.8-12.9,12.9v51.7c0,7.2,5.8,12.9,12.9,12.9h47.4l-1.6-6.1l13,13.1
			c2.2,2.2,5.9,0.6,5.9-2.4V368C491.1,360.9,485.3,355.1,478.1,355.1z"/>
		<path class="st2" d="M476.3,405.7c-5.9,5.4-13.6,5.4-13.6,5.4l-1.9-2.5c1.9-0.6,3.5-1.5,5.2-2.8l-0.4-1c-3.1,1.4-7.1,2.3-13.4,2.3
			c-6.2,0-10.3-0.9-13.4-2.3l-0.4,1c1.7,1.3,3.3,2.2,5.2,2.8l-1.9,2.5c0,0-7.7,0-13.6-5.4c-0.9-0.9-1.3-2.2-1.2-3.4
			c1.1-12.5,4.9-20,6.3-22.3c0.3-0.6,0.7-1,1.2-1.4c1.6-1.1,5.7-3.5,10.8-4l1.3,2.6c1.9-0.3,3.9-0.6,5.6-0.6c1.7,0,3.7,0.3,5.6,0.6
			l1.3-2.6c4.8,0.4,9.1,2.9,10.8,4c0.5,0.4,0.9,0.8,1.2,1.4c1.4,2.4,5.2,9.9,6.3,22.3C477.6,403.5,477.2,404.9,476.3,405.7z"/>
		<ellipse cx="460.9" cy="394.8" rx="4.1" ry="5.1"/>
		<ellipse cx="443.7" cy="394.8" rx="4.1" ry="5.1"/>
	</g>
</g>
</svg>
