<?xml version="1.0" encoding="utf-8"?>
<!-- Generator: Adobe Illustrator 25.2.3, SVG Export Plug-In . SVG Version: 6.00 Build 0)  -->
<svg version="1.1" id="Layer_1" xmlns="http://www.w3.org/2000/svg" xmlns:xlink="http://www.w3.org/1999/xlink" x="0px" y="0px"
	 viewBox="0 0 1920 1920" style="enable-background:new 0 0 1920 1920;" xml:space="preserve">
<style type="text/css">
	.st0{fill:#232323;}
	.st1{fill:#FFFFFF;}
	.st2{fill:none;}
	.st3{fill:#020202;}
	.st4{fill:#F9F7F7;}
</style>
<g>
	<path class="st0" d="M951,1841c-118.9,0-234.3-23.3-342.9-69.2C503.2,1727.4,409,1663.9,328,1583s-144.4-175.1-188.8-280
		C93.3,1194.3,70,1078.9,70,960c0-118.9,23.3-234.3,69.2-342.9C183.6,512.2,247.1,418,328,337s175.1-144.4,280-188.8
		C716.7,102.3,832.1,79,951,79c118.9,0,234.3,23.3,342.9,69.2c104.9,44.4,199.1,107.9,280,188.8s144.4,175.1,188.8,280
		c45.9,108.6,69.2,224,69.2,342.9c0,118.9-23.3,234.3-69.2,342.9c-44.4,104.9-107.9,199.1-188.8,280s-175.1,144.4-280,188.8
		C1185.3,1817.7,1069.9,1841,951,1841z"/>
	<path class="st1" d="M951,99c58.4,0,116.8,5.9,173.6,17.5c55.3,11.3,109.6,28.2,161.6,50.2c51,21.6,100.2,48.3,146.2,79.4
		c45.6,30.8,88.5,66.2,127.5,105.2c39,39,74.4,81.9,105.2,127.5c31.1,46,57.8,95.2,79.4,146.2c22,51.9,38.8,106.3,50.2,161.6
		c11.6,56.7,17.5,115.1,17.5,173.6s-5.9,116.8-17.5,173.6c-11.3,55.3-28.2,109.6-50.2,161.6c-21.6,51-48.3,100.2-79.4,146.2
		c-30.8,45.6-66.2,88.5-105.2,127.5c-39,39-81.9,74.4-127.5,105.2c-46,31.1-95.2,57.8-146.2,79.4c-51.9,22-106.3,38.8-161.6,50.2
		c-56.7,11.6-115.1,17.5-173.6,17.5s-116.8-5.9-173.6-17.5c-55.3-11.3-109.6-28.2-161.6-50.2c-51-21.6-100.2-48.3-146.2-79.4
		c-45.6-30.8-88.5-66.2-127.5-105.2c-39-39-74.4-81.9-105.2-127.5c-31.1-46-57.8-95.2-79.4-146.2c-22-51.9-38.8-106.3-50.2-161.6
		C95.9,1076.8,90,1018.4,90,960s5.9-116.8,17.5-173.6c11.3-55.3,28.2-109.6,50.2-161.6c21.6-51,48.3-100.2,79.4-146.2
		c30.8-45.6,66.2-88.5,105.2-127.5S424,276.8,469.6,246c46-31.1,95.2-57.8,146.2-79.4c51.9-22,106.3-38.8,161.6-50.2
		C834.2,104.9,892.6,99,951,99 M951,59C453.4,59,50,462.4,50,960s403.4,901,901,901s901-403.4,901-901S1448.6,59,951,59L951,59z"/>
</g>
<g>
	<path class="st1" d="M661.3,1271.9l608.5-203.9c98.4-33,151.5-139.6,118.5-238l0,0c-33-98.4-139.6-151.5-238-118.5L541.8,915.4
		c-98.4,33-151.5,139.6-118.5,238l0,0C456.3,1251.8,562.8,1304.9,661.3,1271.9z"/>
	<g>
		<g>
			<path class="st2" d="M652.8,912.4c-4.2-12.1-17.4-18.6-29.5-14.4c-193.3,66.3-167.9,188.6-166.7,193.7
				c2.8,12.5,15.3,20.3,27.8,17.5c0.8-0.2,1.6-0.4,2.4-0.7c11.1-3.8,17.7-15.4,15.1-27.1c-0.2-0.9-17.8-86.6,136.5-139.5
				C650.5,937.7,657,924.5,652.8,912.4z"/>
			<path class="st2" d="M1146.9,730.1l-186.8,64.1l17.2,50l30.2,87.9l6.8,19.7l11.6,33.8l4.5,13.2l8.2,23.8l4.9,14.4l9.7,28.4
				l5.3,15.4l13.4,39l2.6,7.6l186.8-64.1c91.9-31.5,141-131.9,109.4-223.8C1339.2,747.7,1238.8,698.6,1146.9,730.1z"/>
			<path d="M1128.1,675.2L549.5,873.7C427.3,915.7,362,1049.1,404,1171.3c41.9,122.2,175.4,187.4,297.6,145.5l578.6-198.6
				c122.1-41.9,187.4-175.4,145.5-297.6C1383.7,698.5,1250.2,633.3,1128.1,675.2z M501.9,1081.4c2.7,11.7-4,23.3-15.1,27.1
				c-0.8,0.3-1.6,0.5-2.4,0.7c-12.5,2.9-25-5-27.8-17.5c-1.2-5.2-26.6-127.4,166.7-193.7c12.1-4.2,25.4,2.3,29.5,14.4
				c4.2,12.1-2.3,25.3-14.4,29.5C484.1,994.8,501.7,1080.5,501.9,1081.4z M1261.3,1063.3l-186.8,64.1l-2.6-7.6l-393.6,135.1
				l-94.6-275.7l393.6-135.1l-17.2-50l186.8-64.1c91.9-31.5,192.3,17.6,223.8,109.4C1402.2,931.4,1353.1,1031.8,1261.3,1063.3z"/>
			<polygon points="1053.2,1065.5 1043.5,1037.1 1038.6,1022.7 1030.4,998.9 1025.9,985.7 1014.3,951.9 1007.5,932.1 977.3,844.2 
				583.7,979.3 678.3,1254.9 1071.9,1119.8 1058.5,1080.8 			"/>
		</g>
		<g>
			<g>
				<path class="st2" d="M971.1,1000.7c2.7,1.6,5.4,3.3,8,5.2c3.7-3,7.6-5.8,11.4-8.7c-4.2-2-8.8-3.6-13.5-3.6c-2.7,0-5.4,1-7.4,2.8
					c-0.8,0.7-1.3,2.1-0.5,3C969.4,1000.3,970.4,1000.3,971.1,1000.7z"/>
				<path class="st2" d="M745.2,1080.6c-1.4,0.3-3,0.4-4.2,1.4l0,0c-1.6,1.4-3.4,3.3-2.9,5.6c1,1.5,3.1,1.4,4.7,1.2
					c5-0.7,9.9-2.4,14.4-5c-0.1-0.1-0.4-0.4-0.6-0.6C753.1,1081.4,749.1,1080,745.2,1080.6z"/>
				<path class="st2" d="M818.3,1111.7c1.5-4.2,3.6-8.6,2.7-13.2c-3.2-7.2-6.5-14.3-9.8-21.5c-3.5,3-8.4,5.2-13.1,3.7
					c-5.7-1.8-9.3-7-11.9-12.1c-2.1,6.5-5,12.8-9,18.4l0,0c3.2,7.6,4.8,15.8,4.8,24c-0.1,2.9,0.1,5.9-1,8.6
					c-4.7,14.7-12.8,28.2-21.8,40.7c-8.1,11-17,21.4-26.8,30.9c2.3,0.3,4.7,0.4,7,0.1c6.3-0.7,12.1-3.5,17.7-6.3
					c17.4-9,31.9-23,43-39C807.6,1135.3,813.7,1123.7,818.3,1111.7z"/>
				<path class="st2" d="M1156.4,887.1c12.9,7.3,26,14.2,39,21.3c-10.3-25.1-20.7-50.2-30.9-75.3c-7,14.2-13.7,28.6-20.2,43.1
					c0.7,1.7,1.4,3.3,2.2,5C1149.7,883.2,1153,885.2,1156.4,887.1z"/>
				<path class="st2" d="M680,1087.9c0.7-0.8-0.3-1.8-1-2.2c-2.5-1.6-5.4-2.6-8.3-3.5c1.3,2.2,2.2,4.6,3.2,7
					C676,1088.8,678.2,1089.1,680,1087.9z"/>
				<path class="st2" d="M1026.3,991.8c-0.9,0.1-1.8,0.5-2.6,1c0.9,1.2,2.2,2,3.5,2.7C1027.2,994.2,1027.3,992.8,1026.3,991.8z"/>
				<path class="st2" d="M1125,858.3c-0.1,0.4-0.1,0.9-0.1,1.3c-2.8-0.9-6-1.2-8.7,0.2c4.6,3.6,9.3,7.2,14.1,10.5
					C1128.6,866.3,1126.8,862.3,1125,858.3z"/>
				<path class="st2" d="M814.6,921.1c-1.3-0.5-2.5,0.7-3,1.8c-0.4,0.5,0.2,1.1,0.7,1.1c1.5,0.3,3.1,0.6,4.7,0.8
					C816.4,923.4,816.1,921.6,814.6,921.1z"/>
				<path class="st2" d="M671.6,1087.1c0-1.6-1.5-2.4-2.7-3.1c-0.9-0.6-2.2-0.1-2.5,1c-0.3,1.2-0.7,2.5-0.2,3.7c1.6,1,3.7,1,5.6,0.7
					C671.7,1088.6,671.7,1087.8,671.6,1087.1z"/>
				<path class="st2" d="M1184.5,993.1c-14.9-33.5-29.6-67-44.4-100.5c-0.4-0.9-1.5-1.3-2.2-1.9c-6.3,13.9-12.1,28.1-18.1,42.1l0,0
					c-1.1,2.9-2.6,5.8-3.6,8.7c2.9,7.1,6.3,14.1,9.4,21.1c4.4,11.9,6.8,25.3,2.8,37.7c-0.3-1.6-1-3.2-1.5-4.8
					c-1.9-5.4-3.7-10.8-5.6-16.2c-1.8-5.1-3.3-10.4-5.3-15.5c-1.1-2.6-2.3-5.1-3.4-7.7c-0.2-0.4-0.4-1.2-1-1
					c0.3-0.8-0.1-1.5-0.4-2.1c-1.6,3.6-3.1,7.3-4.8,10.9c-3.1,7.4-6.7,14.6-9.9,21.9c7.2,3.9,13.1,10.2,16.6,17.6
					c3.7,7.9,4.6,17.3,1.4,25.5c-2.8,7.2-8.4,13-14.9,17.1c-3.1,1.9-6.4,3.6-10.1,3.6c1.6,3.3,3.3,6.5,5.1,9.7
					c3.1,5.3,6.7,10.5,11.4,14.5c2.5,2,5.6,3.7,8.9,3.4c3.6-0.3,6.3-3.1,7.9-6.2c1.4-2.5,1.5-5.6,1.5-8.4c0-8.4-1.8-16.7-0.9-25.1
					c0.5-6.5,1.6-13.2,4.5-19.1c1.5-3.2,3.4-6.1,5.6-8.9c1.5-1.8,3.5-3.5,6-3.6c2.4-0.1,4.4,1.3,6.1,2.8c3.7,3.5,6,8.2,9.3,12
					c2.6,3.2,5.6,6.3,9.6,7.7c4,1.4,8.5,0.7,12.4-0.8c6.8-2.7,12.2-8,16.3-14C1190.5,1006.8,1187.5,999.9,1184.5,993.1z
					 M1164.7,964.1c0.3,1.5,0.7,3.2,0.3,4.7c-0.6,1.5-2.4,2-3.9,1.7c-1.7-0.3-3.3-0.8-5-0.9c-0.1,6-2.8,11.7-6.2,16.6
					c-2.2,3.4-4.9,6.5-7.7,9.4c-1.7,1.8-3.8,3.2-5.8,4.7c-2,1.4-4,3-6.5,3.6c1.5-0.6,2.3-2,3.3-3.1c5.2-6.1,10.3-12.4,14.4-19.2
					c2.2-3.7,4.4-7.6,5.2-11.9c-1.4,0.2-2.9,0.4-4.3,0.7c-2.2-2.8-3.5-6.7-2.1-10.2c-1.5-0.5-2.2-2.1-2.9-3.4
					c-0.6-1.1-0.7-2.8,0.4-3.6v0c1.9-1.5,4.6-1.3,6.8-0.7c3.8,1.2,7.1,3.4,10,6C1162.5,960.1,1164.3,961.8,1164.7,964.1z"/>
				<path class="st2" d="M1152.7,959.1c1.3,2.2,2.2,4.6,3.1,7c1.9-0.4,4-0.3,5.8-1.1c0.9-0.5,0.4-1.7-0.3-2.1
					C1158.7,961,1155.7,960,1152.7,959.1z"/>
				<path class="st2" d="M1089.9,1031.3c7.2-2.8,12.8-8.4,17.3-14.5c1.6-1.7,2.8-4.4,1.2-6.5c-2.1-2.8-4.9-4.9-7.6-7
					c-2.8-2-5.7-4-8.6-5.7c-0.1,0-0.3,0.1-0.4,0.2c-1.2,3.1-2.3,6.3-3.4,9.4c-2,6.3-4,12.6-4.8,19.1c-0.2,1.7-0.2,3.6,1.1,4.9
					C1086.2,1032.3,1088.3,1031.9,1089.9,1031.3z"/>
				<path class="st2" d="M1148.9,960.7c-1.1,1.2-1.1,2.9-1.2,4.4l0,0c1.5,1.4,3.8,1.1,5.8,1.1c0-1.3,0-2.6-0.6-3.7
					C1151.9,961.5,1150.5,960.1,1148.9,960.7z"/>
				<path d="M1200.2,1019.6c0.1-5.1-1.6-10-3.3-14.7c-2.4-7.6-4.9-15.2-7.6-22.7c-3.1-8.6-6.8-17-10.3-25.5
					c-7.9-18.6-15.9-37.1-23.9-55.6c10.2,4.6,20.1,9.7,30,14.8c5.7,3.1,11.5,6,17,9.2c0.8,1.3,1.2,2.8,1.8,4.2
					c7.3,17.9,14.7,35.7,22.1,53.5c4.1,10,7.9,20,11.7,30.1c0.3-5-0.1-9.9-0.3-14.9c-0.2-2.2,0.1-4.4-0.6-6.5
					c-3.3-11.2-6.7-22.4-10.8-33.3c-3.3-8.4-6.6-16.8-10-25.3c8.4,4.9,16.8,10,24.8,15.6c-0.1,0.1-0.2,0.3-0.2,0.4
					c0.2,0,0.5-0.1,0.7-0.1c11.2,7.5,20.8,17.7,26.9,29.8c0-5.6-1.6-11.2-4-16.3c-3.8-8.1-9.8-14.9-16.3-20.9
					c-5-4.6-10.5-8.6-16.1-12.4c-7-4.4-14.2-8.5-21.4-12.5c-0.5-0.3-1.2-0.5-1.3-1.2c-9.5-23.6-19-47.1-28.6-70.6
					c-3.3-8-6.5-16-10.1-23.9c2.6,1.7,4.7,4.1,7.1,6c-0.4-1.9-0.7-3.8-1.2-5.6c-0.9-1.9-2.1-3.6-3.1-5.4c0.9-1.7,1.7-3.4,2.6-5.1
					c1.9-3.7,4.1-7.2,5.2-11.2c2.2-7,3.6-14.9,0.8-22c-4.3,10.4-8.7,20.8-13.4,31c-3.9-5.4-7.7-11-12.3-16
					c-0.6,5.2-1.3,10.5-2.1,15.7c-0.4,1.6,1.3,2.5,1.8,3.8c1.8,4.1,3.4,8.2,5.1,12.3c-2,4.3-4.4,8.4-6.6,12.7
					c-4.8,9.8-9.6,19.7-14.1,29.6c-4.7-10.5-9.2-21.1-14.2-31.6c0.3,0.3,0.7,0.6,1,0.9c2.1,1.8,4.3,3.6,6.4,5.4
					c-0.4-1.6-0.8-3.2-1.1-4.8c-0.3-1.5-1.3-2.6-2.1-3.8c-5.7-8.8-11.9-17.3-18.9-25.1c-0.6,5.4-1.1,10.7-1.8,16.1
					c-0.2,1,0.7,1.7,1.3,2.5c0.6,0.7,0.9,1.6,1.3,2.4c4.1,9.2,8.1,18.4,12.2,27.6c-0.9-0.9-1.9-1.7-3.1-2.2
					c-12.4-5.5-25.1-10.5-37.7-15.6c2.3,6,4.6,12,7.1,17.9c5.4,2.3,10.1,6,14.7,9.6c2.2,1.7,4.1,3.6,6.3,5.2c6.5,5,13,9.9,19.8,14.5
					c-0.5,1.6-1.4,3.1-2,4.6c-6.1,13.3-12,26.6-18,39.9c-11.3-25.7-22.2-51.7-33.5-77.4c-0.2,0-0.5,0.1-0.7,0.1
					c0.2-0.2,0.4-0.3,0.5-0.5c2.4,2,4.7,4.1,7.1,6.1c-0.3-1.5-0.6-3-1-4.5c-0.3-1.7-1.4-3-2.2-4.5c-3.9-6.3-8.2-12.3-12.7-18.2
					c-1.9-2.3-3.6-4.7-5.7-6.9c-0.6,5.6-1.4,11.2-2,16.8c2.2,2.6,3.2,5.9,4.7,8.9c13.4,30.2,26.9,60.4,40.3,90.6
					c0.3,0.5,0.2,1.1-0.1,1.6c-5.7,13-11.4,26-17,39.1c-16.6-8.9-33.2-17.8-49.5-27.2c-1.7-1.1-3.7-1.9-5.3-3.2
					c-10.1-24.5-19.8-49.2-30.3-73.6c2.4,2.1,4.9,4.2,7.2,6.4c-0.6-2.5-0.6-5.2-2.1-7.4c-5.6-9.3-11.8-18.2-18.8-26.5
					c-0.4-0.6-0.6,0.2-0.6,0.5c-0.6,4.7-1.2,9.4-1.9,14c-0.1,0.8-0.5,1.7,0.2,2.4c1.5,1.7,2.2,3.9,3.1,6c5.7,14,11.5,27.9,17.2,41.9
					c3.7,9.1,7.5,18,11.1,27.1c-1-0.9-2.2-1.6-3.3-2.4c-8.7-5.8-17.2-11.8-25.6-18.1c-1.2-0.9-2.6-1.7-3-3.3c0.8-0.1,1.6-0.2,2.5,0
					c2,0.3,4.1,0.3,6.1,0.4c-0.3-2.7-2.6-4.6-4.9-6c-4.4-2.9-9.3-5.2-14.2-7.2c-6.3-2.4-12.7-4.5-19.3-6.2
					c1.6,5.5,3.2,10.9,4.8,16.3c0.2,0.5,0.2,1.2,0.8,1.4c10.4,5.7,19.7,13.1,28.4,21c5.9,4.9,12.4,9.1,18.8,13.2
					c5.5,3.6,11.2,6.8,16.8,10.3c5.8,14,11.5,28,17.3,42c7.5,18.3,15.3,36.5,22.4,55c1.5,3.7,2.6,7.5,4.2,11.1
					c0.2-5.1-0.2-10.2-0.3-15.4c-0.1-2,0-4.2-0.6-6.1c-2.4-8-4.7-16-7.5-23.9c-2.9-8.9-6.6-17.6-10-26.3
					c-3.8-9.4-7.5-18.8-11.3-28.2c8.1,4.5,16.2,9.1,24.3,13.5c2.2,1.3,4.7,2.2,6.9,3.5c3.8,1.9,7.6,3.8,11.3,5.9
					c0,0.8-0.5,1.5-0.7,2.2c-2.3,7-4.8,14.2-5.5,21.6c-0.9,9,0.8,18.1,3.8,26.6c0.8,2.3,2.4,4.5,4.7,5.5c0.6,0.3,1.5,0.3,1.6,1.2
					c2.4,8.4,5.6,16.8,10.4,24.1c-0.1,0.1-0.2,0.3-0.3,0.4c0.1,0,0.3-0.1,0.4-0.1c1.1,1.1,1.9,2.5,3,3.7c3.9,4.6,9.1,8.2,15.1,9.2
					c2.7,0.3,5.5,0.4,8.1-0.3c3.2-1.4,5.2-4.6,6.3-7.8c1.5-4.5,1.5-9.3,1-13.9c-1.5-10.7-1.8-21.9,2.1-32.1c1.2-3.2,3.3-5.9,5.6-8.4
					c1-0.9,2.2-2.1,3.6-1.7c1.9,0.5,2.9,2.3,3.8,3.9c1.9,3.6,4.3,7,7.1,10c4.1,4.4,9.3,7.9,15.2,9c3.3,0.5,6.8,0.3,10-0.9
					c4.8-1.7,9.1-4.5,12.6-8.2C1196.8,1032.3,1199.7,1026,1200.2,1019.6z M1164.4,833.1c10.2,25.1,20.7,50.2,30.9,75.3
					c-13-7.1-26.1-14-39-21.3c-3.4-1.9-6.7-3.9-10-6c-0.7-1.6-1.5-3.3-2.2-5C1150.7,861.7,1157.4,847.4,1164.4,833.1z M1116.2,859.8
					c2.7-1.4,5.9-1.1,8.7-0.2c0-0.4,0.1-0.9,0.1-1.3c1.8,4,3.6,7.9,5.3,12C1125.5,867,1120.8,863.5,1116.2,859.8z M1083.6,1026.2
					c0.8-6.5,2.8-12.9,4.8-19.1c1.1-3.2,2.2-6.3,3.4-9.4c0.1,0,0.3-0.1,0.4-0.2c3,1.8,5.8,3.7,8.6,5.7c2.7,2.1,5.5,4.2,7.6,7
					c1.5,2.1,0.4,4.9-1.2,6.5c-4.5,6.1-10.2,11.7-17.3,14.5c-1.6,0.6-3.7,1-5.2-0.2C1083.4,1029.9,1083.4,1027.9,1083.6,1026.2z
					 M1164.7,1028.5c-4-1.4-7-4.5-9.6-7.7c-3.3-3.8-5.6-8.5-9.3-12c-1.6-1.6-3.7-3-6.1-2.8c-2.5,0.1-4.5,1.8-6,3.6
					c-2.1,2.8-4.1,5.7-5.6,8.9c-2.9,5.9-4.1,12.5-4.5,19.1c-1,8.4,0.9,16.7,0.9,25.1c0,2.8,0,5.8-1.5,8.4c-1.5,3-4.3,5.8-7.9,6.2
					c-3.3,0.3-6.4-1.4-8.9-3.4c-4.8-4-8.3-9.2-11.4-14.5c-1.8-3.2-3.5-6.4-5.1-9.7c3.7,0,7-1.7,10.1-3.6c6.5-4,12.1-9.9,14.9-17.1
					c3.2-8.2,2.2-17.6-1.4-25.5c-3.5-7.4-9.4-13.7-16.6-17.6c3.3-7.3,6.8-14.5,9.9-21.9c1.6-3.6,3.1-7.3,4.8-10.9
					c0.4,0.7,0.7,1.4,0.4,2.1c0.6-0.2,0.7,0.6,1,1c1.1,2.6,2.3,5.1,3.4,7.7c1.9,5.1,3.4,10.4,5.3,15.5c1.9,5.4,3.7,10.8,5.6,16.2
					c0.5,1.6,1.2,3.1,1.5,4.8c4-12.4,1.6-25.8-2.8-37.7c-3.1-7.1-6.5-14-9.4-21.1c1-3,2.4-5.8,3.6-8.7l0,0
					c6-14.1,11.8-28.2,18.1-42.1c0.7,0.7,1.8,1,2.2,1.9c14.8,33.5,29.5,67.1,44.4,100.5c3,6.9,6,13.8,8.9,20.7
					c-4,6-9.5,11.3-16.3,14C1173.2,1029.2,1168.8,1029.9,1164.7,1028.5z"/>
				<path d="M1264.7,921.3c-3.5-9.1-7.6-18-11.4-27c-11.9-27.9-23.6-56-34.9-84.1c2,1.9,4,3.8,6,5.6c-0.5-1.6-0.6-3.3-0.8-5
					c-0.9-1.9-2.1-3.6-3.1-5.4c-6.6-10.3-13.6-20.2-20.8-30.1c-0.4,5.9-0.6,11.7-1,17.6l0,0c0,0.5-0.2,1.1,0.1,1.5
					c1.3,1.8,3.2,3.1,4.3,5c11.9,28.5,23.8,56.9,35.7,85.4c7.7,18.5,15.7,36.8,23.3,55.3c3.3,8,6.8,16.2,7.6,24.9
					c0.9,8.6-0.7,17.4-4,25.4c-3,6.9-6.9,13.2-11.1,19.4c-8.5,12.1-18.1,23.4-28.6,33.7c0.6,0.3,1.2,1.1,1.9,0.5
					c13.3-7.2,26.1-15.9,35.9-27.6c5.5-6.6,9.9-14.3,11.7-22.7c1.3-6.5,1.8-13.1,1.7-19.7C1276.6,955.9,1271.2,938.2,1264.7,921.3z"
					/>
				<polygon points="664.5,976.1 664.5,976.1 664.5,976.1 				"/>
				<path d="M647,1076.5c3.5,0.1,7.4-1,9.5-3.9c2.6-3.4,3.2-7.8,3.5-12c0.3-5.5-0.3-11.1-1.3-16.6c-1.7-8.2-2.6-16.6-2-25
					c0.4-4.1,1-8.3,2.9-12c0.4-0.6,0.7-1.4,1.5-1.6c0.5-0.1,0.8,0.4,1,0.8c0.7,1.1,0.9,2.4,1.1,3.6c0.6,7,1.1,14.1,2.6,21.1
					c1.4,5.2,3.3,10.3,6,15c3,5.3,7.2,10.3,12.9,12.8c4.9,2.3,10.6,2,15.7,0.3c6.2,14.7,12.4,29.5,18.7,44.2
					c7,16.7,14.4,33.4,20.5,50.5c0.2-0.7,0.3-1.4,0.3-2.1c0.1-4.3,0-8.7-0.1-13c0-1.3,0.1-2.6-0.3-3.8c-2.6-9.1-5.4-18.3-8.6-27.2
					c-7-18-14.5-35.8-21.8-53.7c5.3-5,8-12.1,9.3-19.1c1.4-7.9,1.3-15.9,0.4-23.8c0.2-0.1,0.7-0.3,1-0.4c4.2,6.7,9.5,13,16.1,17.4
					c4.7,3.1,10.5,5,16.2,4.2c4.3-0.6,8.7-2.5,11.5-5.9c3.4-3.9,4.6-9.1,4.9-14.1c0-0.6,0.3-1.4-0.5-1.6c0.7-0.1,0.4-1,0.5-1.5
					c-0.2-5.5-1.2-11.1-3.2-16.2c-2.5-6.4-6.6-11.9-10.6-17.3c-4.6-6-9.4-12-14-18.1c-0.5-0.7-0.9-1.5-0.8-2.4
					c2.2-0.3,4.3,0.6,6.1,1.7c-0.1-0.7-0.3-1.5-0.4-2.2c-4.4-4.6-8.9-9-14-12.7c-1.6-1.1-3.3-2.4-5.3-2.6c-0.4,3.9-0.4,7.8,0,11.7
					c0.2,1.2,0.1,2.6,0.9,3.7c3,4.2,6.1,8.4,9.1,12.6c8.8,12,17.6,24.1,27.3,35.5c1,1.5,0.9,3.5,0.2,5.1c-1.6,3.6-4.7,6.2-8,8.1
					c-4.8,2.5-10.6,2.2-15.6,0.6c-6.7-2.2-12-7.3-15.8-13.2c-2.8-4.3-4.7-9.2-7-13.8c-3.6-7.7-7.2-15.4-11.5-22.7
					c-2.8-4.7-6.1-9-9.3-13.3c-0.9,0.6-0.8,1.8-0.9,2.8c-0.1,4.1-0.2,8.3,0.8,12.4c0.7,2.1,2.4,3.7,3.7,5.5
					c6.5,8.6,10.6,18.8,14.2,29c2.1,8.1,2.7,16.9,0.1,25c-1.7,5.4-5.4,10.2-10.5,12.9c-4.2-10.2-8.5-20.3-12.7-30.5
					c-3.4-7.8-6.5-15.8-10.2-23.4c2.6,1.8,4.6,4.3,7.2,6c-0.5-2-0.6-4.1-1.4-6c-5.8-9.9-12.4-19.3-19.8-28.1
					c-0.7,5.6-1.5,11.2-2.3,16.8c2.3,2.6,3.2,5.9,4.6,9c8.4,19.9,16.8,39.7,25.1,59.6c-2.5,0.5-5.1,0.7-7.7,0.4
					c-4.7-0.5-9.2-2.7-12.2-6.4c-4.1-4.7-5.9-10.9-6.8-17c-1.1-7.8-2.2-15.7-2.7-23.5c-0.1-3.9-1.4-7.6-2.2-11.4
					c-0.3-0.7-0.4-1.9-1.3-2.1c-1.3,0.5-1.7,2-2.3,3.2c-1.7,4.3-2.9,8.8-3.9,13.4c-1.4,8.6-1.9,17.3-1.6,26
					c0.4,8.9,2.4,17.6,2.9,26.4c0.1,3.5,0,7.3-2,10.4c-1.8,2.8-5.2,4-8.4,4.1c-3.8,0.1-7.3-1.8-9.9-4.5c-3-3.1-5.1-6.9-6.8-10.9
					c-3.9-9.1-5.9-18.8-7.6-28.5c-0.3,0.2-0.6,0.4-0.9,0.6c1,8.6,2.6,17.2,5,25.5c2.2,7.1,4.9,14.2,9.8,19.9
					C638.5,1073.8,642.5,1076.4,647,1076.5z"/>
				<path d="M964.1,891.5c1.6-3.4,1.5-7.3,1.1-10.9c0-0.9-0.4-1.6-1-2.3c-0.2,2.2-0.5,5-2.6,6.3c-1.1,0.9-2.5,1-3.9,0.8
					c-2.6-1.1-3.5-4.1-3.8-6.7c-0.8-6,0-12,0.8-17.9c-1.4,1.7-1.7,3.9-2.1,5.9l0,0c-0.9,4.9-1.5,9.8-1.4,14.8
					c0.1,3.7,0.5,7.6,2.6,10.7C956.2,895.6,962.3,895.4,964.1,891.5z"/>
				<path d="M827.3,1112.1c0.3-2.8,0.3-5.7,0.3-8.6c-0.2-6.6-0.7-13.3-3-19.5c-2.2-5.5-4.5-11-6.8-16.5c1.9-4.6,3-9.5,3.4-14.5
					c2.5,3.3,6.1,6,10.3,6.8c3.6,0.6,7.3-0.3,10.4-2.2c3.5-2.3,5.4-6.2,6.2-10.2c1.4-7.6,0-15.6-3-22.7c-2-4.3-3.9-8.8-6.5-12.8
					c-0.4,1-0.3,2.1-0.4,3.1c-0.3,4.4-0.7,8.7-0.9,13.1c2,2.3,3.8,4.6,5.6,7c-0.2,1.9-2.1,2.9-3.6,3.9c-3.4,1.7-7,3.6-10.9,3.5
					c-2.2,0-4.6-1.2-5.4-3.4c-1.3-2.5,0-5.5-1.3-8.1c-0.3-0.7-1.1-1.5-2-1.3c-1.7,0.2-2.2,1.9-2.6,3.3c-1.1,3.7-1.5,7.6-1.8,11.5
					c-0.1,3.4-1.1,6.7-3.1,9.5c-12-27.7-24.4-55.2-37.2-82.5c-2.1-4.6-4.5-9.2-6.5-13.8c2.5,2.1,5.1,4,7.5,6.2
					c-0.8-2.1-0.9-4.4-1.9-6.5c-6.2-9.6-13.2-18.6-20.9-27c-0.5,5.7-1,11.3-1.5,17l0,0c0.9,1,1.8,2,2.3,3.2
					c16.8,36.8,33.6,73.7,50.4,110.5c-3.3,1.9-7.6,3-11.1,1c-2.5-1.5-5.1-4.1-4.8-7.2c-0.2-2-0.2-4.3-1.6-6c-1.1-1.1-2.5,0.1-3.2,1
					c-3.1,3.4-5.1,7.6-7,11.7c-1.8,4.7-4.7,8.8-8,12.6c-4-4.5-8.6-8.6-14.1-11.1c-4.3-2-9.4-2.7-14-1.2c-3.8,2-6.7,5.5-8.4,9.4
					c-2.5,5.6-2.6,11.9-1.7,17.9c0.7,4.1,1.6,8.3,4,11.8c1.8,2.7,4.6,4.6,7.7,5.3c3.6,0.8,7.5,0.2,10.9-1.1
					c6.4-2.2,12.1-6,17.2-10.4c1.6,1.9,3.2,3.8,4.7,5.8c0.8,1.2,1.8,2.7,1.2,4.2c-1.8,5.6-4.5,11-7.3,16.2
					c-5.9,10.9-13.1,21-20.8,30.7c-9.1,11.3-19,22.1-29.5,32.2c-7.8-7.5-12.2-17.8-15-28.1c-2.6-9.3-3.9-19-4.2-28.7
					c-0.1-1.6,0-3.2,0.2-4.8c0.1,0,0.4,0,0.5,0c-0.1,0-0.2-0.1-0.3-0.2l-0.2-0.2c0.2-4.8,0.8-9.6,1.4-14.4
					c-1.7,5.9-1.7,12.2-1.8,18.4c-0.4,8.5-0.5,17,0.1,25.5c1,14,3.5,28.3,10.7,40.6c-8.6,7.9-17.5,15.5-26.6,22.7
					c11.6-4,23.1-8.7,34.2-13.9c5.1,4.3,11.7,6.7,18.4,7c7.1,0.3,14.2-1.2,20.9-3.6c6.3-2.7,12.2-6.4,17.8-10.3
					c10.7-7.7,20.2-17.1,28.1-27.7C814.7,1150.5,822.9,1131.7,827.3,1112.1z M742.8,1088.8c-1.6,0.1-3.7,0.3-4.7-1.2
					c-0.5-2.3,1.4-4.2,2.9-5.6l0,0c1.2-1,2.8-1.1,4.2-1.4c4-0.6,7.9,0.7,11.4,2.7c0.1,0.1,0.4,0.4,0.6,0.6
					C752.7,1086.4,747.8,1088.1,742.8,1088.8z M757.2,1184.9c-5.6,2.9-11.4,5.6-17.7,6.3c-2.3,0.3-4.7,0.2-7-0.1
					c9.8-9.5,18.8-19.9,26.8-30.9c9-12.5,17-25.9,21.8-40.7c1.1-2.7,0.9-5.7,1-8.6c-0.1-8.2-1.7-16.4-4.8-24l0,0
					c4-5.6,7-11.8,9-18.4c2.5,5.1,6.2,10.3,11.9,12.1c4.6,1.5,9.6-0.7,13.1-3.7c3.2,7.2,6.6,14.3,9.8,21.5c0.9,4.6-1.3,8.9-2.7,13.2
					c-4.6,12.1-10.7,23.6-18.1,34.2C789.1,1161.9,774.6,1175.9,757.2,1184.9z"/>
				<path d="M843.4,1001.2c-3.5-0.2-6.7-2.3-9.1-4.9c-3.5-3.7-5.7-8.4-7.5-13.1c-3.1-8.3-5-17-6.4-25.7c-0.4,0.1-0.7,0.3-1,0.4
					c0.6,5.3,1.4,10.5,2.5,15.7c1.9,8.4,4.2,16.8,8.4,24.3c2.4,4.2,5.5,8.3,10.1,10.3c3.7,1.7,8.2,1.5,11.8-0.3
					c3.8-2.2,5.3-6.8,5.9-10.9c1.1-7.8,0-15.6-1.6-23.2c-0.9-4.9-1.4-9.8-1.5-14.7c-0.1-6.2,0.2-12.5,2.7-18.2
					c0.3-0.9,0.9-1.6,1.5-2.3c0.3,0,0.8,0.1,1,0.2c1.3,1.7,1.6,3.9,1.7,6c0.6,6.7,1.1,13.4,2.6,20c2.3,8,5.6,16,11.5,22
					c4,4.2,9.8,7,15.7,6.7c5.9-0.3,11.9-2.5,16.2-6.7c3.9-3.8,6.4-8.9,7.9-14.2c2.5-9.1,2.6-18.7,1.5-28c-0.4-0.7,1-1.3,1.2-0.5
					c3.4,5.5,7.6,10.4,12.5,14.6c0.1-0.1,0.4-0.2,0.6-0.3l-0.5,0.3c2.1,1.6,4.3,3.2,6.8,4.3c4.7,2.4,10.2,3.2,15.3,1.8
					c4.2-1,8.1-3.5,10.4-7.2c2.8-4.4,3.6-9.7,3.5-14.8c-0.2-5.4-1-10.8-2.9-15.9c-1.9-5.5-5.2-10.4-8.6-15.1
					c-5.3-7.2-10.9-14-16.3-21.2c-0.6-0.7-0.9-1.5-0.8-2.5c2.2-0.3,4.2,0.6,6.1,1.6c-0.1-0.4-0.3-1.1-0.4-1.5
					c0.2-0.1,0.4-0.2,0.6-0.3c-0.8-0.3-1.3-1.1-1.9-1.6c-3.8-3.9-7.9-7.7-12.3-11c-1.8-1.2-3.6-2.6-5.8-2.9l0,0
					c-0.3,4.8-0.4,9.7,0.4,14.5c0.6,1.4,1.7,2.5,2.6,3.8c11.1,15.4,22.2,30.7,34.4,45.3c1.6,2.4,0.3,5.4-1.3,7.5
					c-3,3.9-7.3,6.9-12.3,7.4c-5.7,0.6-11.7-1.1-16.4-4.4c-3.8-2.6-6.9-6.1-9.4-9.9c-3-4.6-5-9.8-7.4-14.7
					c-3.3-6.9-6.5-13.9-10.3-20.6c-3-5.1-6.5-9.9-10.1-14.5c-0.2,0.3-0.8,0.6-0.7,1c-0.3,4.5-0.3,9,0.5,13.5
					c0.3,1.6,1.4,2.9,2.4,4.2c7.3,9.1,11.9,20,15.6,31c1.5,5.7,2.1,11.6,1.6,17.4c-0.6,5.9-2.5,11.8-6.6,16.2
					c-3.4,3.7-8.1,5.9-12.9,7c-3.4,1-6.9,1.4-10.4,0.8c-5.3-0.7-10.1-3.8-13-8.2c-3.8-5.6-5.1-12.4-5.9-19.1
					c-0.6-4.6-1.2-9.2-1.7-13.8c-0.5-4-0.3-8.1-1.4-12c-0.7-2.4-0.9-5-2.2-7.1c-0.2,0.1-0.7,0.2-0.9,0.3c-2.3,3.3-3.1,7.3-4.3,11.1
					c-1.3,4.3-1.9,8.7-2.3,13.1c-0.8,7.6-0.9,15.3-0.2,22.9c0.7,7.5,2.3,14.9,2.5,22.4c0,3.4-0.2,7.2-2.4,10.1
					C850.4,1000.4,846.7,1001.4,843.4,1001.2z"/>
				<path d="M871.7,909.6c3.6,3.1,5.9,7.5,6.5,12.1c0.1,0.6,0.2,1.2,0.5,1.8c0.6-2.3,0.1-4.7-0.3-7c-0.7-3.1-2.1-6.1-4-8.7
					c-3.7-4.9-9.2-8.2-15-9.8c0.6,2.2,1.1,4.5,1.8,6.7C865.1,905.3,868.8,907,871.7,909.6z"/>
				<path d="M625,1014.3c1.9-3.8,1.4-8.2,1.1-12.3c-0.3-0.2-0.5-0.6-0.9-0.5c-0.3,1.9-0.5,4.2-2,5.5c-1.5,1.1-3.6,1.8-5.2,0.7
					c-1.8-1.2-2.5-3.4-2.9-5.4c-1.1-6.2,0-12.5,0.6-18.6c-1.2,1.5-1.6,3.5-2,5.4l0,0c-1.1,6.1-1.9,12.3-1.3,18.5
					c0.3,2.7,1,5.6,2.8,7.8C617.6,1018.4,623.3,1018,625,1014.3z"/>
				<path d="M1023.6,856c4.3,2.2,7,6.6,8.5,11.1c0.4-0.5,0.9-0.9,1.2-1.5c-1.1-4.5-2.4-9.1-2.5-13.8c-0.1-2.3,0.4-4.9,2.2-6.4
					c1.7-0.6,3,1.1,4.2,1.9c0.5-0.4,0.6-1.4,0.9-2c0.7-1.1-0.2-2.3-1.1-3c-1.5-1.1-3.5-1.4-5.3-1.2c-1.7,0.3-2.2,2.2-2.5,3.6
					c-0.7,4.3,0,8.7,0.7,12.9c-2.9-2.9-6-5.9-9.9-7.5c-1.5-0.6-3.2-1.4-4.7-0.5c0,2.4,1.6,4.5,3.3,6
					C1020.1,856.8,1022,856.4,1023.6,856z"/>
				<path d="M817,951c2.5-6.4,4.3-13.3,4.5-20.2c2.1,1.1,3.8,3,4.6,5.3c2.1,5.3,1.2,11,0.9,16.5c-0.2,3.5,0.6,7.2,3.1,9.7
					c0.9,0.9,2.3,1.7,3.5,1c1.5-0.9,1.9-2.8,2-4.4c0.1-2.1,0.3-4.3-0.7-6.2c-0.4-0.7-1.3-0.3-1.8,0c0.2,1.7,0.6,4-1,5.1
					c-1.3,0-2.1-1.1-2.3-2.2c-1.1-4.7,0.2-9.4,0.1-14.1c0-3.6-0.1-7.5-2.5-10.4c-1.5-2.3-4-3.6-6.3-5c-0.6-2.7-1.6-5.4-3.4-7.5
					c-0.9-1-2.2-1.9-3.6-1.7c-2.8,0.5-4.7,3.3-4.8,6h0c0.2,1.5,0.6,3,1.5,4.2c1.9,2,4.7,2.3,7.2,2.9l0.2,0.3
					c0.5,6.1-1.3,12.1-3.7,17.6c-2.9,6.6-6.7,12.8-10.8,18.7c2.5-2,4.8-4.3,7-6.6C813.2,957.2,815.8,954.5,817,951z M812.2,924
					c-0.5-0.1-1.1-0.6-0.7-1.1c0.6-1.1,1.7-2.3,3-1.8c1.5,0.6,1.8,2.3,2.3,3.7C815.3,924.5,813.8,924.3,812.2,924z"/>
				<path d="M790,951.7c2.9,3.2,4.5,7.5,5,11.8c0.1,0.1,0.2,0.2,0.2,0.3c0.2-0.8,0.5-1.5,0.4-2.3c-0.2-4.8-1.8-9.5-4.6-13.3
					c-3.1-4.2-7.7-7.2-12.6-9c-0.8-0.2-1.5-0.7-2.4-0.6c0.6,2.2,1.1,4.3,1.8,6.5C782.4,945.8,786.8,948.1,790,951.7z"/>
				<polygon points="720.1,962.2 720.1,962.2 720.1,962.2 				"/>
				<path d="M720.1,979.4c2-1,3.2-3.1,3.3-5.3c1.5,1,3.3,2.1,5.2,1.7c1.3-0.4,2.7-1.3,2.7-2.8c0.1-2.2-0.6-4.4-1.2-6.5
					c-1.5-1.7-3.3-3.3-4.4-5.4c-0.4,0.1-0.7,0.2-1.1,0.3c-0.2,1.2,0.1,2.5,0.2,3.7c1.3,1.7,3,3.2,4.2,5.1c0,1-1.1,1-1.8,1.1
					c-0.8,0-1.9-0.1-2.4-0.9c-1.3-1.6-2.5-3.4-3.5-5.3c-0.4-0.9-1.1-1.8-0.7-2.8l-0.4-0.2c-0.3,1.1-0.9,2.2-1,3.4
					c0.5,2.4,1.6,4.7,2.2,7.2c-0.6,1-1.2,2.3-2.5,2.7c-1.2,0.2-2.1-0.8-2.7-1.6c-1.5-2.1-2-4.7-1.5-7.2c-1.3,1.1-1.5,3-1.4,4.6
					c0.2,2.3,1,4.6,2.3,6.5C716.4,979.2,718.4,980.1,720.1,979.4z"/>
				<path d="M1028.5,889.1c-1.7,0-3.4,0.1-4.9-0.8c1-2.2,2.6-4,4.2-5.7c8.2-8.1,16.8-15.8,25.4-23.5c1.3-1.3,1.3-3.3,0.9-5
					c-6.2,5-12.1,10.4-17.9,15.8l0,0c-4.4,4.2-8.9,8.3-12.7,13c-0.8,1.2-2.1,2.4-1.8,4c0.3,1.7,0.9,3.4,1.4,5
					c2.1,0.9,4.4,0.9,6.7,0.7C1029.3,891.5,1028.9,890.3,1028.5,889.1z"/>
				<path d="M875.8,950.1c1.8,1,4.2,1,5.8-0.3c2.4-1.8,3.9-4.7,3.9-7.7c1.7,1.4,3.8,2.5,5.9,2.9c1.9,0.3,3.7-0.6,5.1-1.8
					c1.1-1.2,1.3-3,1.1-4.6c-0.3-2.7-1-5.4-1.9-8c-2.4-2.6-5.2-4.9-6.7-8.1c-0.7,0.2-1.3,0.4-2,0.5c0,0.5,0,1,0.1,1.5
					c0.2,0.2,0.4,0.4,0.6,0.6c-0.1,0.1-0.3,0.2-0.4,0.2c-0.1,1.2,0.1,2.4,0.2,3.6c2.1,1.9,3.9,4.1,5.6,6.3c0.4,0.6,1,1.4,0.6,2.1
					c-0.8,0.8-2,0.8-3,0.8c-1.2-0.1-2.6-0.2-3.3-1.3c-1.9-2.5-3.7-5.2-5.3-8c-0.8-1.5-1.8-3.2-1.3-4.9c-1.1,1.5-1.5,3.3-2.2,5.1
					c1,3.7,2.5,7.3,3.5,11c-0.9,1.8-2,3.9-4.1,4.4c-2.1,0.1-3.4-1.9-4.4-3.4c-1.9-3-2.4-6.7-1.9-10.1c-1.3,1.3-1.9,3-2,4.8
					c-0.2,3,0.6,6.1,1.7,8.9C872.3,946.7,873.6,949,875.8,950.1z"/>
				<path d="M745.8,1009.8c-0.2-4.9-1.7-9.7-4.7-13.6c-3.7-4.8-9.1-8.2-14.9-9.7c0.6,2.2,1.2,4.4,1.7,6.6c4.6,0.9,9,3.1,12.2,6.6
					c3.1,3.3,4.7,7.8,5.2,12.3C745.5,1011.3,745.9,1010.6,745.8,1009.8z"/>
				<path d="M1042.8,909.9c-0.3,2.6,0.4,5.1,1.1,7.6c0.9,2.5,2.1,5.1,4.3,6.7c1.9,1.3,4.9,1.5,6.6-0.2c2.3-1.8,3.6-4.6,3.6-7.5
					c1.9,1.4,4.1,2.7,6.5,2.9c1.7,0.2,3.2-0.7,4.5-1.8c1.4-1.3,1.4-3.5,1.2-5.2c-0.3-2.5-1-5-1.8-7.5c-2.4-2.5-5.2-4.9-6.7-8.1
					c-0.6,0.1-1.3,0.3-1.9,0.5c0.1,2,0.1,4.1,0.5,6c2.1,2.1,4.1,4.4,5.9,6.9c0.5,0.6,0.4,1.6-0.4,1.9c-1.7,0.6-3.8,0.6-5.4-0.5
					c-1.6-1.9-2.9-4-4.3-6.1c-1.3-2.3-3.1-4.7-2.8-7.5c-0.7,1.5-1.3,3.1-1.8,4.7c-0.4,0.7,0.1,1.5,0.3,2.2c1.1,3.1,2,6.2,3.1,9.3
					c-0.8,1.7-1.8,3.6-3.7,4.4c-1.3,0.4-2.6-0.3-3.4-1.2c-2.9-3.3-4.2-7.9-3.3-12.2C1043.5,906.4,1043,908.2,1042.8,909.9z"/>
				<path d="M1217.8,883.1c-0.2-7.2-2.6-14.4-7.4-19.9c-4.9-5.7-11.6-9.6-18.8-11.6c0.7,2.9,1.6,5.8,2.3,8.7
					c7.3,1.4,14.4,5.4,18.5,11.7c2.8,3.9,4,8.7,4.7,13.4C1217.4,884.7,1217.8,884,1217.8,883.1z"/>
				<path d="M820.8,988.3c-3.2,3.8-6.3,7.7-9.4,11.6h0c-3.9,4.9-8,9.8-11.9,14.8c-0.4,2.4-0.7,4.7-1,7.1c7-8.4,13.9-17,20.9-25.5
					C821.4,994.2,821.2,991,820.8,988.3z"/>
				<path d="M978.8,978.2c4.5-2.4,7.5-6.8,9.8-11.3c1.8-3.8,3.2-8,3-12.3c-0.1-2.2-1.1-4.3-2.8-5.6c-1.3-1-3.1-0.4-4,0.7l0,0
					c-2.4,2.5-3.6,5.9-4.8,9.1c-0.3,1.1-1.1,2.4-0.3,3.5c1.2-2,2-4.5,4.2-5.7c1.7-0.3,3.8,0.7,4.3,2.4c0.5,2.1-0.4,4.3-1.2,6.2
					c-1.6,3.4-3.7,6.6-6,9.6C980.3,976,979.3,977,978.8,978.2z"/>
				<path d="M1092.2,919.8c-10.3,12.6-20.5,25.3-30.9,37.9v0c0,2.3-0.1,4.6,0,6.9c10-12.3,20.1-24.5,30-36.8
					C1092.9,925.5,1092.7,922.4,1092.2,919.8z"/>
				<path d="M952.1,1055.1c2.6-6.7,7.3-12.3,12-17.6c5.9-6.5,12.5-12.3,19.2-18c2.5,2.2,5.1,4.6,6.4,7.7c0.3,0.7,1.2,0.5,1.8,0.4
					c0.4-4.3-2.2-8.1-4.1-11.7c5.4-4.1,11.2-7.5,16.9-11.1c-0.2-5-0.3-10.1-0.4-15.1c-0.6-0.7-1.6-0.9-2.4-1.3
					c-6.8-3.1-14-5.7-21.4-7.1c0,0.1-0.1,0.4-0.2,0.5c-0.1-0.1-0.2-0.4-0.3-0.6c-1.7-0.3-3.4-0.4-5.2-0.6c-2.7-0.2-5.5,0.8-7.2,3
					c-1.6,2.2-2.1,4.9-2.8,7.5c-1.1,4.5-1.4,9.6,1,13.7c1.5,3,4.6,4.7,7.1,6.7c-11.8,11.4-23.2,23.6-31.9,37.6
					c-1.9,3.3-3.9,6.7-5.2,10.4c0.7,5.5,1.4,10.9,2.1,16.4c20.9-7.5,41.9-14.8,62.9-22.2c-4.5,2.8-8.8,6-12.9,9.4
					c-5.4,4.5-10.7,9.2-15.7,14.3c-2.5,2.5-4.2,5.6-5.6,8.8c-1.2,3-2.2,6.2-2,9.5c0.1,2,1.3,3.8,1.4,5.8c0.1,0.1,0.4,0.2,0.5,0.2
					c-0.1,0-0.4,0.1-0.6,0.1c-0.3,1.5-2,1.3-3,0.8c-3.8-1.8-7.6-4-11.1-6.4c-0.1,0.2-0.3,0.5-0.4,0.7c0-0.2-0.1-0.7-0.1-0.9
					c-1.4-1.2-2.9-2.3-4.2-3.7c-6.5-6.9-10.7-15.6-14.1-24.3c-1.4-4.5-3.6-8.7-5.7-12.9c-7-13.5-15.8-26.1-26.2-37.1
					c-4.8-5.2-9.7-10.3-15-15c-2-1.6-4-3.5-6.4-4.5l0,0c0.6,5.4,0.9,10.8,1.6,16.2c4.9,5.6,10.1,11.1,15.3,16.4
					c3.5,4.2,6.6,8.7,9.9,13.1c6.1,8.5,12.1,17,18.1,25.6c-4.9,11.8-10.3,23.3-16.5,34.5c-4.7,8.3-9.8,16.7-16.4,23.7
					c-2.5,2.7-5.8,4.5-8.9,6.4c-4.2,2.3-9.1,4.3-14,3.2c-0.5-0.2-1.1-0.1-1.3-0.6c8-13,15.8-26.2,21.4-40.5
					c1.6-4.3,3.1-8.7,3.7-13.2c0.7-5.1-0.3-10.3-1.8-15.2c-1.3-4.5-3.2-8.9-5.6-12.9c-4-6.8-8.8-13.2-14.5-18.8
					c-0.3-0.3-0.6-0.7-0.8-1c2.7,0.7,4.8,2.6,7.3,3.7c-1.4-2.5-2.7-5.3-4.8-7.3c-3.9-3.6-8.1-7-12.4-10.2c-2-1.4-4-2.9-6.4-3.6
					c0.4,6,1,12.1,1.4,18.1c8.8,10.5,17.7,20.9,26.5,31.3c0.2,0.3,0.6,0.4,1,0.4c0,0.3,0,0.5,0,0.8c1.5,1.4,3,3.1,3.1,5.3
					c0.2,1.9-0.9,3.5-1.5,5.2c-2.3,6-5,11.8-8.1,17.4c-5,9.1-10.7,17.8-16.7,26.3c-2-9.4-1.8-19.2,0-28.6c0.2-1.5,0-2.9,0.1-4.4
					c-0.1,0.1-0.3,0.2-0.3,0.2c-4.3,11.7-4.2,24.5-2.7,36.7c-13.2,18.4-27.7,35.8-42.6,52.8c-5.5,6.3-11.2,12.4-16.7,18.7
					c6.9-4,13.7-8.2,20.5-12.4c9.4-6,18.9-12,27.6-19.1c3.5-2.8,6.1-6.4,8.8-9.9c2.9-4,5.7-8.1,8.5-12.2c2.7,4.3,6.3,8.5,11.4,9.9
					c4.5,1.3,9.2-0.5,13.1-2.8c7.2-4.4,12.9-10.8,17.8-17.5c4.7-6.4,8.8-13.2,12.5-20.2c3.6-6.9,6.9-14,9.8-21.2
					c0.4-1,0.9-2.1,0.8-3.2c0-4.8-0.5-9.7-1.2-14.5c0.3-0.1,0.6-0.1,1-0.2c4.2,9.9,9.5,19.5,16.3,27.9c5,6,10.9,11.4,17.8,15.1
					c6.3,3.5,13.5,5.4,20.8,5.2c5.3-0.1,10.5-1.5,15.7-2.6c2.6-0.6,5.3-1.1,7.9-1.9c-1.5-5.6-3.4-11-5-16.6
					c-3.4,0.1-6.8,0.3-10.2,0.4c-4.7,0.2-9.5,0.5-14.2-0.3c-2.2-0.4-4.6-0.4-6.4-1.8c-0.9-0.7-0.8-2-0.2-2.9
					c5.9-7.8,13.3-14.2,20.8-20.3c18-14.4,37.2-27.1,56.6-39.5c0.6-5.3,1.2-10.5,1.7-15.8C1016.7,1032.9,984.4,1044,952.1,1055.1z
					 M969.5,996.5c2-1.8,4.7-2.8,7.4-2.8c4.7-0.1,9.3,1.6,13.5,3.6c-3.8,2.9-7.7,5.7-11.4,8.7c-2.6-1.9-5.2-3.6-8-5.2
					c-0.7-0.4-1.7-0.4-2.1-1.2C968.2,998.6,968.7,997.2,969.5,996.5z"/>
				<path d="M668.1,1109.3c3.3-4.9,6-10.5,6.2-16.5c1.5,0.2,3.1,0.4,4.6,0.8c1.5,0.4,3.4,0,4.2-1.5c0.5-1.6,0.1-3.4-0.2-5
					c-0.2-1.2-0.8-2.4-1.7-3.3c-2.7-3.1-6.1-5.6-9.9-7.3c-2.7-1.1-6-2-8.7-0.4l0,0c-1.3,0.8-1.5,2.6-0.8,3.8
					c0.7,1.3,1.4,2.9,2.8,3.4c-1.4,3.5,0,7.4,2.2,10.2c1.4-0.3,2.9-0.5,4.4-0.7c-1.3,5.2-4.1,10-7,14.5c-4.3,6.5-9.2,12.6-14.4,18.5
					c-0.5,0.6-1.3,0.9-1.9,1.3c1.2-0.4,2.4-0.8,3.5-1.5c2.7-1.7,5.3-3.7,7.7-5.7C662.4,1116.7,665.5,1113.2,668.1,1109.3z
					 M679.1,1085.7c0.7,0.4,1.7,1.4,1,2.2c-1.8,1.2-4.1,0.9-6.1,1.4c-0.9-2.4-1.8-4.8-3.2-7C673.6,1083.2,676.5,1084.1,679.1,1085.7
					z M666.2,1088.6c-0.5-1.2-0.1-2.5,0.2-3.7c0.3-1.1,1.6-1.5,2.5-1c1.2,0.7,2.7,1.6,2.7,3.1c0.1,0.7,0.1,1.5,0.2,2.2
					C669.9,1089.6,667.8,1089.6,666.2,1088.6z"/>
				<path d="M915.9,997.4c-0.2,0.1-0.7,0.2-0.9,0.3c-2.5,3.3-1.7,7.7-0.6,11.3c0.8,2.5,2,5.1,4,6.9c1.9,1.6,4.9,1.9,6.9,0.3
					c2.4-1.8,3.9-4.6,3.8-7.6c2.3,1.5,4.9,3.2,7.8,2.8c2.1-0.5,4.4-2.1,4.4-4.5c0.1-3.4-0.9-6.8-2-10c-2.5-2.5-5.1-4.9-6.7-8
					c-0.6,0.2-1.2,0.4-1.8,0.6c0.2,1.9,0.3,3.9,0.4,5.8c2.2,2.2,4.3,4.6,6.1,7.1c0.7,1-0.2,2.1-1.2,2.1c-1.7,0.2-3.9,0.3-5-1.3
					c-1.5-2.1-3-4.2-4.3-6.4c-1.2-2-2.5-4.1-2.3-6.6c-0.8,1.7-1.5,3.5-2,5.2l0,0c1,3.7,2.3,7.3,3.5,10.9c-0.7,1.6-1.6,3.2-3.1,4.1
					c-1.2,0.7-2.8,0.3-3.7-0.7c-3-3.1-4.4-7.7-3.7-11.9C915.5,997.7,915.7,997.5,915.9,997.4z"/>
				<path d="M695.1,1094.4c-10.3,12.6-20.6,25.2-30.8,37.9l0,0c-0.1,2.2,0,4.5-0.1,6.7c0.3-0.2,0.6-0.5,0.8-0.7
					c9.5-11.7,19.1-23.3,28.6-34.9C695.9,1101,695.7,1097.4,695.1,1094.4z"/>
				<path d="M1010.8,1023.5c3.6-0.7,6.9-2.6,9.4-5.2c4.9-4.7,7.9-11.1,9.2-17.7c1.3,0.5,2.6,1.2,4,1.4c-0.5-1.5-0.9-3.1-1.2-4.6
					c-0.7-0.2-1.5-0.4-2.2-0.7c0.4-2.6-0.6-5.1-1.9-7.2c-0.6-0.9-1.6-2-2.9-1.6c-1.7,0.7-3.3,2-3.9,3.8v0c-0.6,2.1,0.6,4.1,1.8,5.7
					c1.1,0.9,2.5,1.4,3.7,2c-0.5,2.5-1.2,4.9-2.2,7.2C1021.6,1013.4,1016.5,1018.9,1010.8,1023.5z M1023.7,992.9
					c0.8-0.5,1.7-0.9,2.6-1c1,1,0.9,2.4,0.9,3.7C1025.9,994.8,1024.6,994,1023.7,992.9z"/>
				<path d="M1150.9,952.6c-2.2-0.6-4.9-0.8-6.8,0.7v0c-1.1,0.8-1,2.5-0.4,3.6c0.7,1.3,1.4,2.9,2.9,3.4c-1.5,3.5-0.1,7.3,2.1,10.2
					c1.4-0.3,2.9-0.5,4.3-0.7c-0.9,4.3-3.1,8.2-5.2,11.9c-4.2,6.9-9.2,13.2-14.4,19.2c-1,1.1-1.9,2.5-3.3,3.1
					c2.4-0.6,4.4-2.2,6.5-3.6c2-1.5,4.1-2.9,5.8-4.7c2.8-3,5.5-6,7.7-9.4c3.4-4.9,6.1-10.5,6.2-16.6c1.7,0.2,3.3,0.6,5,0.9
					c1.5,0.3,3.3-0.2,3.9-1.7c0.4-1.6,0-3.2-0.3-4.7c-0.4-2.3-2.2-4-3.8-5.5C1158,956,1154.7,953.8,1150.9,952.6z M1153.5,966.2
					c-1.9,0-4.2,0.3-5.8-1.1l0,0c0-1.5,0-3.2,1.2-4.4c1.6-0.6,3,0.8,4.1,1.8C1153.6,963.6,1153.5,965,1153.5,966.2z M1161.6,965
					c-1.8,0.9-3.9,0.8-5.8,1.1c-0.9-2.4-1.8-4.8-3.1-7c3,0.9,6,1.9,8.6,3.7C1162,963.2,1162.5,964.5,1161.6,965z"/>
				<path d="M847.2,1080.7c-2.9-3-6.1-5.9-9.9-7.7c-1.4-0.5-3.1-1.4-4.6-0.5c-0.4,1.3,0.4,2.5,1,3.5c1,1.5,2.3,3.2,4.3,3.3
					c1.1,0.2,2.4-0.8,3.4,0c3.9,2.3,6.4,6.4,7.8,10.6c0.4-0.4,0.8-0.9,1.3-1.3c-1.2-4.7-2.4-9.4-2.6-14.3c0-2.2,0.5-4.8,2.4-6.2
					c1.7-0.3,3,1.1,4.2,2.2c0.4-1,0.8-2,1.1-3.1c-0.5-2.6-3.6-3.5-6-3.4c-2-0.1-2.9,2.1-3.1,3.7l0,0
					C845.8,1072,846.5,1076.4,847.2,1080.7z"/>
				<path d="M673.5,1146c-1.6,2.1-1.9,4.8-2.4,7.3l0,0c-1,6.1-1.7,12.4-0.7,18.5c0.5,3,1.8,6.6,5,7.6c2.4,0.7,5.4,0.3,6.8-1.9
					c1.9-2.8,1.9-6.4,1.9-9.6c-0.1-1.5,0.1-3.3-1.1-4.4c-0.3,2.2-0.5,4.9-2.6,6.2c-1.4,0.9-3.2,1.3-4.6,0.5c-2-1.4-2.7-3.9-3.1-6.2
					C671.8,1158,672.7,1152,673.5,1146z"/>
				<path d="M1056.4,1060.6c-0.2,0-0.4,0.1-0.4,0.3v0c-2.5,6.1-3,13.2-0.4,19.4c0.8,2.1,3,3.4,5.2,3c2-2.4,1.3-5.8,0.4-8.4
					c-0.2,1.1,0,2.4-0.8,3.2c-2,0.7-3.7-1.2-4.3-2.9c-1.7-3.5-0.9-7.4-0.3-11.1C1055.9,1062.9,1055.9,1061.7,1056.4,1060.6z"/>
				<path d="M930.4,1105L930.4,1105c-1.8,2-1.5,5.1-0.6,7.5c0.4-1.4,1-2.9,2.3-3.6c1-0.5,2,0,2.9,0.4c-2.5,1.4-5.2,3.1-6,6
					c-0.6,1.8-1.2,3.9-0.3,5.7c1.9,5,4.6,9.5,7.6,13.9c1.6,2.4,3.5,4.7,4.6,7.3c0.3-1.8-0.2-3.7-0.7-5.5c-1.6-5-4.9-9.1-7.5-13.6
					c-0.7-1.3-1.5-2.7-1.4-4.2c0.1-1.2,1.1-1.9,1.8-2.7c1.6-1.1,3.5-1.5,5.2-2.4c0.3-1.8,1.1-3.4,1.6-5.1c-0.6-1.9-1.4-3.9-3.2-5
					C934.7,1102.7,932,1103.4,930.4,1105z"/>
				<path d="M1031.9,1093.8c-1.9,0.7-4,1.4-6.1,1.1c-1.4-0.2-2.4-1.6-1.8-3c2-5.2,5.8-9.4,9-13.9c0.8-1.1,1.3-2.8-0.1-3.7
					c-2.6-0.6-5.2,0.2-7.7,0.9c-2.4,0.8-5.1,1.9-6.4,4.2h0c-1,1.7-0.3,3.7,0.6,5.3c0.7-1.2,1.3-2.6,2.7-3.2c2.1-1,4.3-1.7,6.6-2.3
					c-2.5,3.2-5,6.4-6.7,10.2c-0.6,1.5-1.2,3-1.2,4.7c0,2.9,2.2,5.6,5,6.2c2.6,0.7,5.3-0.1,7.7-1.2c3-1.6,5.2-4.1,7.1-6.9
					c2.2-3.3,3.9-6.9,5.3-10.6c-0.9,1-1.6,2.2-2.4,3.3C1040.2,1088.7,1036.4,1092,1031.9,1093.8z"/>
				<path d="M1149.7,1046.5c-0.2,0-0.5,0.1-0.7,0.2c-3-2.4-6.6-4.1-10.3-5.1v0c0.6,2.1,1.1,4.3,1.7,6.4l-0.3,0.1
					c5.4,0.9,10.6,3.8,13.8,8.3c2.3,3.1,3.4,6.9,3.9,10.6c0.2-0.5,0.5-1.1,0.5-1.7c0.1-7.1-3.4-14.1-9-18.5
					C1149.5,1046.9,1149.6,1046.7,1149.7,1046.5z"/>
				<path d="M1228,1014.7c-12,11.9-24,23.9-36,35.9c-0.4,0.4-0.8,0.7-0.8,1.3c-0.2,2.1-0.4,4.1-0.7,6.2c0.9-0.6,1.6-1.3,2.3-2.1
					c11.1-11,22.2-22,33.3-33C1228.1,1020.8,1228.1,1017.5,1228,1014.7z"/>
			</g>
			<g>
				<path class="st1" d="M1056,1075.1c0.3,0.7,0.7,1.4,1.3,2l-2.3-6.6C1055,1072.1,1055.3,1073.7,1056,1075.1z"/>
				<path class="st1" d="M971.1,1000.7c2.7,1.6,5.4,3.3,8,5.2c3.7-3,7.6-5.8,11.4-8.7c-4.2-2-8.8-3.6-13.5-3.6c-2.7,0-5.4,1-7.4,2.8
					c-0.8,0.7-1.3,2.1-0.5,3C969.4,1000.3,970.4,1000.3,971.1,1000.7z"/>
				<path d="M745.2,1080.6c-1.4,0.3-3,0.4-4.2,1.4c-1.5,1.4-3.4,3.3-2.9,5.6c1,1.5,3.1,1.4,4.7,1.2c5-0.7,9.9-2.4,14.4-5
					c-0.1-0.1-0.4-0.4-0.6-0.6C753.1,1081.3,749.1,1080,745.2,1080.6z"/>
				<path d="M818.3,1111.6c1.5-4.2,3.6-8.6,2.7-13.2c-3.2-7.2-6.5-14.3-9.8-21.5c-3.5,3-8.4,5.2-13.1,3.7c-5.7-1.8-9.3-7-11.9-12.1
					c-2.1,6.5-5,12.8-9,18.4l0,0c3.2,7.6,4.8,15.8,4.8,24c-0.1,2.9,0.1,5.9-1,8.6c-4.7,14.7-12.8,28.2-21.8,40.7
					c-8.1,11-17,21.4-26.8,30.9c2.3,0.3,4.7,0.4,7,0.1c6.3-0.7,12.1-3.5,17.7-6.3c17.4-9,31.9-23,43-39
					C807.6,1135.3,813.7,1123.7,818.3,1111.6z"/>
				<path class="st3" d="M680,1087.9c0.7-0.8-0.3-1.8-1-2.2c-2.5-1.6-5.4-2.6-8.3-3.5c1.3,2.2,2.2,4.6,3.2,7
					C676,1088.8,678.2,1089.1,680,1087.9z"/>
				<path d="M1023.7,992.8c0.9,1.2,2.2,2,3.5,2.7c0-1.3,0.1-2.7-0.9-3.7C1025.3,991.9,1024.5,992.3,1023.7,992.8z"/>
				<path class="st1" d="M814.6,921.1c-1.3-0.5-2.5,0.7-3,1.8c-0.4,0.5,0.2,1.1,0.7,1.1c1.5,0.3,3.1,0.6,4.7,0.8
					C816.4,923.4,816.1,921.6,814.6,921.1z"/>
				<path d="M671.6,1087.1c0-1.6-1.5-2.4-2.7-3.1c-0.9-0.6-2.2-0.1-2.5,1c-0.3,1.2-0.7,2.5-0.2,3.7c1.6,1,3.7,1,5.6,0.7
					C671.7,1088.5,671.7,1087.8,671.6,1087.1z"/>
				<path class="st1" d="M990.7,921.9c-1.2-0.9-2.6-1.7-3-3.3c0.8-0.1,1.6-0.2,2.5,0c2,0.3,4.1,0.3,6.1,0.4c-0.3-2.7-2.6-4.6-4.9-6
					c-4.4-2.9-9.3-5.2-14.2-7.2c-6.3-2.4-12.7-4.5-19.3-6.2c1.6,5.5,3.2,10.9,4.8,16.3c0.2,0.5,0.2,1.2,0.8,1.4
					c10.4,5.7,19.7,13.1,28.4,21c5.9,4.9,12.4,9.1,18.8,13.2c1.4,0.9,2.8,1.8,4.2,2.6l-6.8-19.7
					C1002.4,930.4,996.5,926.3,990.7,921.9z"/>
				<polygon class="st1" points="664.5,976.1 664.5,976.1 664.5,976.1 				"/>
				<path class="st1" d="M686.6,987.4c-5.8-9.9-12.4-19.3-19.8-28.1c-0.7,5.6-1.5,11.2-2.3,16.8c2.3,2.6,3.2,5.9,4.6,9
					c8.4,19.9,16.8,39.7,25.1,59.6c-2.5,0.5-5.1,0.7-7.7,0.4c-4.7-0.5-9.2-2.7-12.2-6.4c-4.1-4.7-5.9-10.9-6.8-17
					c-1.1-7.8-2.2-15.7-2.7-23.5c-0.1-3.9-1.4-7.6-2.2-11.4c-0.3-0.7-0.4-1.9-1.3-2.1c-1.3,0.5-1.7,2-2.3,3.2
					c-1.7,4.3-2.9,8.8-3.9,13.4c-1.4,8.6-1.9,17.3-1.6,26c0.4,8.9,2.4,17.6,2.9,26.4c0.1,3.5,0,7.3-2,10.4c-1.8,2.8-5.2,4-8.4,4.1
					c-3.8,0.1-7.3-1.8-9.9-4.5c-3-3.1-5.1-6.9-6.8-10.9c-3.9-9.1-5.9-18.8-7.6-28.5c-0.3,0.2-0.6,0.4-0.9,0.6c1,8.6,2.6,17.2,5,25.5
					c2.2,7.1,4.9,14.2,9.8,19.9c2.8,3.3,6.8,5.9,11.3,6c3.5,0.1,7.4-1,9.5-3.9c2.6-3.4,3.2-7.8,3.5-12c0.3-5.5-0.3-11.1-1.3-16.6
					c-1.7-8.2-2.6-16.6-2-25c0.4-4.1,1-8.3,2.9-12c0.4-0.6,0.7-1.4,1.5-1.6c0.5-0.1,0.8,0.4,1,0.8c0.7,1.1,0.9,2.4,1.1,3.6
					c0.6,7,1.1,14.1,2.6,21.1c1.4,5.2,3.3,10.3,6,15c3,5.3,7.2,10.3,12.9,12.8c4.9,2.3,10.6,2,15.7,0.3
					c6.2,14.7,12.4,29.5,18.7,44.2c7,16.7,14.4,33.4,20.5,50.5c0.2-0.7,0.3-1.4,0.3-2.1c0.1-4.3,0-8.7-0.1-13c0-1.3,0.1-2.6-0.3-3.8
					c-2.6-9.1-5.4-18.3-8.6-27.2c-7-18-14.5-35.8-21.8-53.7c5.3-5,8-12.1,9.3-19.1c1.4-7.9,1.3-15.9,0.4-23.8c0.2-0.1,0.7-0.3,1-0.4
					c4.2,6.7,9.5,13,16.1,17.4c4.7,3.1,10.5,5,16.2,4.2c4.3-0.6,8.7-2.5,11.5-5.9c3.4-3.9,4.6-9.1,4.9-14.1c0-0.6,0.3-1.4-0.5-1.6
					c0.7-0.1,0.4-1,0.5-1.5c-0.2-5.5-1.2-11.1-3.2-16.2c-2.5-6.4-6.6-11.9-10.6-17.3c-4.6-6-9.4-12-14-18.1
					c-0.5-0.7-0.9-1.5-0.8-2.4c2.2-0.3,4.3,0.6,6.1,1.7c-0.1-0.7-0.3-1.5-0.4-2.2c-4.4-4.6-8.9-9-14-12.7c-1.6-1.1-3.3-2.4-5.3-2.6
					c-0.4,3.9-0.4,7.8,0,11.7c0.2,1.2,0.1,2.6,0.9,3.7c3,4.2,6.1,8.4,9.1,12.6c8.8,12,17.6,24.1,27.3,35.5c1,1.5,0.9,3.5,0.2,5.1
					c-1.6,3.6-4.7,6.2-8,8.1c-4.8,2.5-10.6,2.2-15.6,0.6c-6.7-2.2-12-7.3-15.8-13.2c-2.8-4.3-4.7-9.2-7-13.8
					c-3.6-7.7-7.2-15.4-11.5-22.7c-2.8-4.7-6.1-9-9.3-13.3c-0.9,0.6-0.8,1.8-0.9,2.8c-0.1,4.1-0.2,8.3,0.8,12.4
					c0.7,2.1,2.4,3.7,3.7,5.5c6.5,8.6,10.6,18.8,14.2,29c2.1,8.1,2.7,16.9,0.1,25c-1.7,5.4-5.4,10.2-10.5,12.9
					c-4.2-10.2-8.5-20.3-12.7-30.5c-3.4-7.8-6.5-15.8-10.2-23.4c2.6,1.8,4.6,4.3,7.2,6C687.6,991.5,687.4,989.3,686.6,987.4z"/>
				<path class="st1" d="M964.1,891.5c1.6-3.4,1.5-7.3,1.1-10.9c0-0.9-0.4-1.6-1-2.3c-0.2,2.2-0.5,5-2.6,6.3c-1.1,0.9-2.5,1-3.9,0.8
					c-2.6-1.1-3.5-4.1-3.8-6.7c-0.8-6,0-12,0.8-17.9c-1.4,1.7-1.7,3.9-2.1,5.9c-0.9,4.9-1.5,9.8-1.4,14.8c0.1,3.7,0.5,7.6,2.6,10.7
					C956.2,895.6,962.3,895.4,964.1,891.5z"/>
				<path class="st1" d="M827.3,1112c0.3-2.8,0.3-5.7,0.3-8.6c-0.2-6.6-0.7-13.3-3-19.5c-2.2-5.5-4.5-11-6.8-16.5
					c1.9-4.6,3-9.5,3.4-14.5c2.5,3.3,6.1,6,10.3,6.8c3.6,0.6,7.3-0.3,10.4-2.2c3.5-2.3,5.4-6.2,6.2-10.2c1.4-7.6,0-15.6-3-22.7
					c-2-4.3-3.9-8.8-6.5-12.8c-0.4,1-0.3,2.1-0.4,3.1c-0.3,4.4-0.7,8.7-0.9,13.1c2,2.3,3.8,4.6,5.6,7c-0.2,1.9-2.1,2.9-3.6,3.9
					c-3.4,1.7-7,3.6-10.9,3.5c-2.2,0-4.6-1.2-5.4-3.4c-1.3-2.5,0-5.5-1.3-8.1c-0.3-0.7-1.1-1.5-2-1.3c-1.7,0.2-2.2,1.9-2.7,3.3
					c-1.1,3.7-1.5,7.6-1.8,11.5c-0.1,3.4-1.1,6.7-3.1,9.5c-12-27.7-24.4-55.2-37.2-82.5c-2.1-4.6-4.5-9.2-6.5-13.8
					c2.5,2.1,5.1,4,7.5,6.2c-0.8-2.1-0.9-4.4-1.9-6.5c-6.2-9.6-13.2-18.6-20.9-27c-0.5,5.7-1,11.3-1.5,17l0,0c0.9,1,1.8,2,2.3,3.2
					c16.8,36.8,33.6,73.7,50.4,110.5c-3.3,1.9-7.6,3-11.1,1c-2.5-1.5-5.1-4.1-4.8-7.2c-0.2-2-0.2-4.3-1.6-6c-1.1-1.1-2.5,0.1-3.2,1
					c-3.1,3.4-5.1,7.6-7,11.7c-1.8,4.7-4.7,8.8-8,12.6c-4-4.5-8.6-8.6-14.1-11.1c-4.3-2-9.4-2.7-14-1.2c-3.8,2-6.7,5.5-8.4,9.4
					c-2.5,5.6-2.6,11.9-1.7,17.9c0.7,4.1,1.6,8.3,4,11.8c1.8,2.7,4.6,4.6,7.7,5.3c3.6,0.8,7.5,0.2,10.9-1.1
					c6.4-2.2,12.1-6,17.2-10.4c1.6,1.9,3.2,3.8,4.7,5.8c0.8,1.2,1.8,2.7,1.2,4.2c-1.8,5.6-4.5,11-7.3,16.2
					c-5.9,10.9-13.1,21-20.8,30.7c-9.1,11.3-19,22.1-29.5,32.2c-7.8-7.5-12.2-17.8-15-28.1c-2.6-9.3-3.9-19-4.2-28.7
					c-0.1-1.6,0-3.2,0.2-4.8c0.1,0,0.4,0,0.5,0c-0.1,0-0.2-0.1-0.3-0.2l-0.2-0.2c0.2-4.8,0.8-9.6,1.4-14.4
					c-1.7,5.9-1.7,12.2-1.8,18.4c-0.4,8.5-0.5,17,0.1,25.5c1,14,3.5,28.3,10.7,40.6c-8.6,7.9-17.5,15.5-26.6,22.7
					c11.6-4,23.1-8.7,34.2-13.9c5.1,4.3,11.7,6.7,18.4,7c7.1,0.3,14.2-1.2,20.9-3.6c6.3-2.7,12.2-6.4,17.8-10.3
					c10.7-7.7,20.2-17.1,28.1-27.7C814.7,1150.5,822.9,1131.6,827.3,1112z M742.8,1088.8c-1.6,0.1-3.7,0.3-4.7-1.2
					c-0.5-2.3,1.4-4.2,2.9-5.6c1.2-1,2.8-1.1,4.2-1.4c4-0.6,7.9,0.7,11.4,2.7c0.1,0.1,0.4,0.4,0.6,0.6
					C752.7,1086.4,747.8,1088.1,742.8,1088.8z M757.2,1184.9c-5.6,2.9-11.4,5.6-17.7,6.3c-2.3,0.3-4.7,0.2-7-0.1
					c9.8-9.5,18.8-19.9,26.8-30.9c9-12.5,17-25.9,21.8-40.7c1.1-2.7,0.9-5.7,1-8.6c-0.1-8.2-1.7-16.4-4.8-24l0,0
					c4-5.6,7-11.8,9-18.4c2.5,5.1,6.2,10.3,11.9,12.1c4.6,1.5,9.6-0.7,13.1-3.7c3.2,7.2,6.6,14.3,9.8,21.5c0.9,4.6-1.3,8.9-2.7,13.2
					c-4.6,12.1-10.7,23.6-18.1,34.2C789.1,1161.9,774.6,1175.9,757.2,1184.9z"/>
				<path class="st1" d="M843.4,1001.2c-3.5-0.2-6.7-2.3-9.1-4.9c-3.5-3.7-5.7-8.4-7.5-13.1c-3.1-8.3-5-17-6.4-25.7
					c-0.4,0.1-0.7,0.3-1,0.4c0.6,5.3,1.4,10.5,2.5,15.7c1.9,8.4,4.2,16.8,8.4,24.3c2.4,4.2,5.5,8.3,10.1,10.3
					c3.7,1.7,8.2,1.5,11.8-0.3c3.8-2.2,5.3-6.8,5.9-10.9c1.1-7.8,0-15.6-1.6-23.2c-0.9-4.9-1.4-9.8-1.5-14.7
					c-0.1-6.2,0.2-12.5,2.7-18.2c0.3-0.9,0.9-1.6,1.5-2.3c0.3,0,0.8,0.1,1,0.2c1.3,1.7,1.6,3.9,1.7,6c0.6,6.7,1.1,13.4,2.6,20
					c2.3,8,5.6,16,11.5,22c4,4.2,9.8,7,15.7,6.7c5.9-0.3,11.9-2.5,16.2-6.7c3.9-3.8,6.4-8.9,7.9-14.2c2.5-9.1,2.6-18.7,1.5-28
					c-0.4-0.7,1-1.3,1.2-0.5c3.4,5.5,7.6,10.4,12.5,14.6c0.1-0.1,0.4-0.2,0.6-0.3l-0.5,0.3c2.1,1.6,4.3,3.2,6.8,4.3
					c4.7,2.4,10.2,3.2,15.3,1.8c4.2-1,8.1-3.5,10.4-7.2c2.8-4.4,3.6-9.7,3.5-14.8c-0.2-5.4-1-10.8-2.9-15.9
					c-1.9-5.5-5.2-10.4-8.6-15.1c-5.3-7.2-10.9-14-16.3-21.2c-0.6-0.7-0.9-1.5-0.8-2.5c2.2-0.3,4.2,0.6,6.1,1.6
					c-0.1-0.4-0.3-1.1-0.4-1.5c0.2-0.1,0.4-0.2,0.6-0.3c-0.8-0.3-1.3-1.1-1.9-1.6c-3.8-3.9-7.9-7.7-12.3-11
					c-1.8-1.2-3.6-2.6-5.8-2.9l0,0c-0.3,4.8-0.4,9.7,0.4,14.5c0.6,1.4,1.7,2.5,2.6,3.8c11.1,15.4,22.2,30.7,34.4,45.3
					c1.6,2.4,0.3,5.4-1.3,7.5c-3,3.9-7.3,6.9-12.3,7.4c-5.7,0.6-11.7-1.1-16.4-4.4c-3.8-2.6-6.9-6.1-9.4-9.9c-3-4.6-5-9.8-7.4-14.7
					c-3.3-6.9-6.5-13.9-10.3-20.6c-3-5.1-6.5-9.9-10.1-14.5c-0.2,0.3-0.8,0.6-0.7,1c-0.3,4.5-0.3,9,0.5,13.5
					c0.3,1.6,1.4,2.9,2.4,4.2c7.3,9.1,11.9,20,15.6,31c1.5,5.7,2.1,11.6,1.6,17.4c-0.6,5.9-2.5,11.8-6.6,16.2
					c-3.4,3.7-8.1,5.9-12.9,7c-3.4,1-6.9,1.4-10.4,0.8c-5.3-0.7-10.1-3.8-13-8.2c-3.8-5.6-5.1-12.4-5.9-19.1
					c-0.6-4.6-1.2-9.2-1.7-13.8c-0.5-4-0.3-8.1-1.4-12c-0.7-2.4-0.9-5-2.2-7.1c-0.2,0.1-0.7,0.2-0.9,0.3c-2.3,3.3-3.1,7.3-4.3,11.1
					c-1.3,4.3-1.9,8.7-2.3,13.1c-0.8,7.6-0.9,15.3-0.2,22.9c0.7,7.5,2.3,14.9,2.5,22.4c0,3.4-0.2,7.2-2.4,10.1
					C850.4,1000.3,846.7,1001.4,843.4,1001.2z"/>
				<path class="st1" d="M871.7,909.6c3.6,3.1,5.9,7.5,6.5,12.1c0.1,0.6,0.2,1.2,0.5,1.8c0.6-2.3,0.1-4.7-0.3-7
					c-0.7-3.1-2.1-6.1-4-8.7c-3.7-4.9-9.2-8.2-15-9.8c0.6,2.2,1.1,4.5,1.8,6.7C865.1,905.3,868.8,907,871.7,909.6z"/>
				<path class="st1" d="M615.6,983.6c-1.2,1.5-1.6,3.5-2,5.4c-1.1,6.1-1.9,12.3-1.3,18.5c0.3,2.7,1,5.6,2.8,7.8
					c2.5,3,8.2,2.7,9.9-1c1.9-3.8,1.4-8.2,1.1-12.3c-0.3-0.2-0.5-0.6-0.9-0.5c-0.3,1.9-0.5,4.2-2,5.5c-1.5,1.1-3.6,1.8-5.2,0.7
					c-1.8-1.2-2.5-3.4-2.9-5.4C613.9,996.1,614.9,989.8,615.6,983.6z"/>
				<path class="st1" d="M817,951c2.5-6.4,4.3-13.3,4.5-20.2c2.1,1.1,3.8,3,4.6,5.3c2.1,5.3,1.2,11,0.9,16.5
					c-0.2,3.5,0.6,7.2,3.1,9.7c0.9,0.9,2.3,1.7,3.5,1c1.5-0.9,1.9-2.8,2-4.4c0.1-2.1,0.3-4.3-0.7-6.2c-0.4-0.7-1.3-0.3-1.8,0
					c0.2,1.7,0.6,4-1,5.1c-1.3,0-2.1-1.1-2.3-2.2c-1.1-4.7,0.2-9.4,0.1-14.1c0-3.6-0.1-7.5-2.5-10.4c-1.5-2.3-4-3.6-6.3-5
					c-0.6-2.7-1.6-5.4-3.4-7.5c-0.9-1-2.2-1.9-3.6-1.7c-2.8,0.5-4.7,3.3-4.8,6c0.2,1.5,0.6,3,1.5,4.2c1.9,2,4.7,2.3,7.2,2.9l0.2,0.3
					c0.5,6.1-1.3,12.1-3.7,17.6c-2.9,6.6-6.7,12.8-10.8,18.7c2.5-2,4.8-4.3,7-6.6C813.2,957.2,815.8,954.5,817,951z"/>
				<path d="M812.2,924c-0.5-0.1-1.1-0.6-0.7-1.1c0.6-1.1,1.7-2.3,3-1.8c1.5,0.6,1.8,2.3,2.3,3.7C815.3,924.5,813.8,924.3,812.2,924
					z"/>
				<path class="st1" d="M790,951.7c2.9,3.2,4.5,7.5,5,11.8c0.1,0.1,0.2,0.2,0.2,0.3c0.2-0.8,0.5-1.5,0.4-2.3
					c-0.2-4.8-1.8-9.5-4.6-13.3c-3.1-4.2-7.7-7.2-12.6-9c-0.8-0.2-1.5-0.7-2.4-0.6c0.6,2.2,1.1,4.3,1.8,6.5
					C782.4,945.8,786.8,948.1,790,951.7z"/>
				<path class="st1" d="M720.1,979.4c2-1,3.2-3.1,3.3-5.3c1.5,1,3.3,2.1,5.2,1.7c1.3-0.4,2.7-1.3,2.7-2.8c0.1-2.2-0.6-4.4-1.2-6.5
					c-1.5-1.7-3.3-3.3-4.4-5.4c-0.4,0.1-0.7,0.2-1.1,0.3c-0.2,1.2,0.1,2.5,0.2,3.7c1.3,1.7,3,3.2,4.2,5.1c0,1-1.1,1-1.8,1.1
					c-0.8,0-1.9-0.1-2.4-0.9c-1.3-1.6-2.5-3.4-3.5-5.3c-0.4-0.9-1.1-1.8-0.7-2.8l-0.4-0.2c-0.3,1.1-0.9,2.2-1,3.4
					c0.5,2.4,1.6,4.7,2.2,7.2c-0.6,1-1.2,2.3-2.5,2.7c-1.2,0.2-2.1-0.8-2.7-1.6c-1.5-2.1-2-4.7-1.5-7.2c-1.3,1.1-1.5,3-1.4,4.6
					c0.2,2.3,1,4.6,2.3,6.5C716.4,979.1,718.4,980,720.1,979.4z"/>
				<path class="st1" d="M875.8,950.1c1.8,1,4.2,1,5.8-0.3c2.4-1.8,3.9-4.7,3.9-7.7c1.7,1.4,3.8,2.5,5.9,2.9
					c1.9,0.3,3.7-0.6,5.1-1.8c1.1-1.2,1.3-3,1.1-4.6c-0.3-2.7-1-5.4-1.9-8c-2.4-2.6-5.2-4.9-6.7-8.1c-0.7,0.2-1.3,0.4-2,0.5
					c0,0.5,0,1,0.1,1.5c0.2,0.2,0.4,0.4,0.6,0.6c-0.1,0.1-0.3,0.2-0.4,0.2c-0.1,1.2,0.1,2.4,0.2,3.6c2.1,1.9,3.9,4.1,5.6,6.3
					c0.4,0.6,1,1.4,0.6,2.1c-0.8,0.8-2,0.8-3,0.8c-1.2-0.1-2.6-0.2-3.3-1.3c-1.9-2.5-3.7-5.2-5.3-8c-0.8-1.5-1.8-3.2-1.3-4.9
					c-1.1,1.5-1.5,3.3-2.2,5.1c1,3.7,2.5,7.3,3.5,11c-0.9,1.8-2,3.9-4.1,4.4c-2.1,0.1-3.4-1.9-4.4-3.4c-1.9-3-2.4-6.7-1.9-10.1
					c-1.3,1.3-1.9,3-2,4.8c-0.2,3,0.6,6.1,1.7,8.9C872.3,946.7,873.6,949,875.8,950.1z"/>
				<path class="st1" d="M745.8,1009.8c-0.2-4.9-1.7-9.7-4.7-13.6c-3.7-4.8-9.1-8.2-14.9-9.7c0.6,2.2,1.2,4.4,1.7,6.6
					c4.6,0.9,9,3.1,12.2,6.6c3.1,3.3,4.7,7.8,5.2,12.3C745.5,1011.3,745.8,1010.6,745.8,1009.8z"/>
				<path class="st1" d="M820.8,988.3c-3.2,3.8-6.3,7.7-9.4,11.6c-3.9,4.9-8,9.8-11.9,14.8c-0.4,2.4-0.7,4.7-1,7.1
					c7-8.4,13.9-17,20.9-25.5C821.4,994.2,821.2,991,820.8,988.3z"/>
				<path class="st1" d="M978.8,978.2c4.5-2.4,7.5-6.8,9.8-11.3c1.8-3.8,3.2-8,3-12.3c-0.1-2.2-1.1-4.3-2.8-5.6
					c-1.3-1-3.1-0.4-4,0.7c-2.4,2.5-3.6,5.9-4.8,9.1c-0.3,1.1-1.1,2.4-0.3,3.5c1.2-2,2-4.5,4.2-5.7c1.7-0.3,3.8,0.7,4.3,2.4
					c0.5,2.1-0.4,4.3-1.2,6.2c-1.6,3.4-3.7,6.6-6,9.6C980.3,976,979.3,977,978.8,978.2z"/>
				<path class="st1" d="M952.1,1055.1c2.6-6.7,7.3-12.3,12-17.6c5.9-6.5,12.5-12.3,19.2-18c2.5,2.2,5.1,4.6,6.4,7.7
					c0.3,0.7,1.2,0.5,1.8,0.4c0.4-4.3-2.2-8.1-4.1-11.7c5.4-4.1,11.2-7.5,16.9-11.1c-0.2-5-0.3-10.1-0.4-15.1
					c-0.6-0.7-1.6-0.9-2.4-1.3c-6.8-3.1-14-5.7-21.4-7.1c0,0.1-0.1,0.4-0.2,0.5c-0.1-0.1-0.2-0.4-0.3-0.6c-1.7-0.3-3.4-0.4-5.2-0.6
					c-2.7-0.2-5.5,0.8-7.2,3c-1.6,2.2-2.1,4.9-2.8,7.5c-1.1,4.5-1.4,9.6,1,13.7c1.5,3,4.6,4.7,7.1,6.7
					c-11.8,11.4-23.2,23.6-31.9,37.6c-1.9,3.3-3.9,6.7-5.2,10.4c0.7,5.5,1.4,10.9,2.1,16.4c20.9-7.5,41.9-14.8,62.9-22.2
					c-4.5,2.8-8.8,6-12.9,9.4c-5.4,4.5-10.7,9.2-15.7,14.3c-2.5,2.5-4.2,5.6-5.6,8.8c-1.2,3-2.2,6.2-2,9.5c0.1,2,1.3,3.8,1.4,5.8
					c0.1,0.1,0.4,0.2,0.5,0.2c-0.1,0-0.4,0.1-0.6,0.1c-0.3,1.5-2,1.3-3,0.8c-3.8-1.8-7.6-4-11.1-6.4c-0.1,0.2-0.3,0.5-0.4,0.7
					c0-0.2-0.1-0.7-0.1-0.9c-1.4-1.2-2.9-2.3-4.2-3.7c-6.5-6.9-10.7-15.6-14.1-24.3c-1.4-4.5-3.6-8.7-5.7-12.9
					c-7-13.5-15.8-26.1-26.2-37.1c-4.8-5.2-9.7-10.3-15-15c-2-1.6-4-3.5-6.4-4.5l0,0c0.6,5.4,0.9,10.8,1.6,16.2
					c4.9,5.6,10.1,11.1,15.3,16.4c3.5,4.2,6.6,8.7,9.9,13.1c6.1,8.5,12.1,17,18.1,25.6c-4.9,11.8-10.3,23.3-16.5,34.5
					c-4.7,8.3-9.8,16.7-16.4,23.7c-2.5,2.7-5.8,4.5-8.9,6.4c-4.2,2.3-9.1,4.3-14,3.2c-0.5-0.2-1.1-0.1-1.3-0.6
					c8-13,15.8-26.2,21.4-40.5c1.6-4.3,3.1-8.7,3.7-13.2c0.7-5.1-0.3-10.3-1.8-15.2c-1.3-4.5-3.2-8.9-5.6-12.9
					c-4-6.8-8.8-13.2-14.5-18.8c-0.3-0.3-0.6-0.7-0.8-1c2.7,0.7,4.8,2.6,7.3,3.7c-1.4-2.5-2.7-5.3-4.8-7.3c-3.9-3.6-8.1-7-12.4-10.2
					c-2-1.4-4-2.9-6.4-3.6c0.4,6,1,12.1,1.4,18.1c8.8,10.5,17.7,20.9,26.5,31.3c0.2,0.3,0.6,0.4,1,0.4c0,0.3,0,0.5,0,0.8
					c1.5,1.4,3,3.1,3.1,5.3c0.2,1.9-0.9,3.5-1.5,5.2c-2.3,6-5,11.8-8.1,17.4c-5,9.1-10.7,17.8-16.7,26.3c-2-9.4-1.8-19.2,0-28.6
					c0.2-1.5,0-2.9,0.1-4.4c-0.1,0.1-0.3,0.2-0.3,0.2c-4.3,11.7-4.2,24.5-2.7,36.7c-13.2,18.4-27.7,35.8-42.6,52.8
					c-5.5,6.3-11.2,12.4-16.7,18.7c6.9-4,13.7-8.2,20.5-12.4c9.4-6,18.9-12,27.6-19.1c3.5-2.8,6.1-6.4,8.8-9.9
					c2.9-4,5.7-8.1,8.5-12.2c2.7,4.3,6.3,8.5,11.4,9.9c4.5,1.3,9.2-0.5,13.1-2.8c7.2-4.4,12.9-10.8,17.8-17.5
					c4.7-6.4,8.8-13.2,12.5-20.2c3.6-6.9,6.9-14,9.8-21.2c0.4-1,0.9-2.1,0.8-3.2c0-4.8-0.5-9.7-1.2-14.5c0.3-0.1,0.6-0.1,1-0.2
					c4.2,9.9,9.5,19.5,16.3,27.9c5,6,10.9,11.4,17.8,15.1c6.3,3.5,13.5,5.4,20.8,5.2c5.3-0.1,10.5-1.5,15.7-2.6
					c2.6-0.6,5.3-1.1,7.9-1.9c-1.5-5.6-3.4-11-5-16.6c-3.4,0.1-6.8,0.3-10.2,0.4c-4.7,0.2-9.5,0.5-14.2-0.3
					c-2.2-0.4-4.6-0.4-6.4-1.8c-0.9-0.7-0.8-2-0.2-2.9c5.9-7.8,13.3-14.2,20.8-20.3c17.1-13.6,35.3-25.8,53.7-37.7l-4.9-14.4
					C1010.3,1035.1,981.2,1045.1,952.1,1055.1z"/>
				<path d="M969.5,996.5c2-1.8,4.7-2.8,7.4-2.8c4.7-0.1,9.3,1.6,13.5,3.6c-3.8,2.9-7.7,5.7-11.4,8.7c-2.6-1.9-5.2-3.6-8-5.2
					c-0.7-0.4-1.7-0.4-2.1-1.2C968.2,998.6,968.7,997.2,969.5,996.5z"/>
				<path class="st4" d="M668.1,1109.3c3.3-4.9,6-10.5,6.2-16.5c1.5,0.2,3.1,0.4,4.6,0.8c1.5,0.4,3.4,0,4.2-1.5
					c0.5-1.6,0.1-3.4-0.2-5c-0.2-1.2-0.8-2.4-1.7-3.3c-2.7-3.1-6.1-5.6-9.9-7.3c-2.7-1.1-6-2-8.7-0.4l0,0c-1.3,0.8-1.5,2.6-0.8,3.8
					c0.7,1.3,1.4,2.9,2.8,3.4c-1.4,3.5,0,7.4,2.2,10.2c1.4-0.3,2.9-0.5,4.4-0.7c-1.3,5.2-4.1,10-7,14.5c-4.3,6.5-9.2,12.6-14.4,18.5
					c-0.5,0.6-1.3,0.9-1.9,1.3c1.2-0.4,2.4-0.8,3.5-1.5c2.7-1.7,5.3-3.7,7.7-5.7C662.4,1116.7,665.5,1113.2,668.1,1109.3z
					 M679.1,1085.7c0.7,0.4,1.7,1.4,1,2.2c-1.8,1.2-4.1,0.9-6.1,1.4c-0.9-2.4-1.8-4.8-3.2-7C673.6,1083.1,676.5,1084.1,679.1,1085.7
					z M666.2,1088.6c-0.5-1.2-0.1-2.5,0.2-3.7c0.3-1.1,1.6-1.5,2.5-1c1.2,0.7,2.7,1.6,2.7,3.1c0.1,0.7,0.1,1.5,0.2,2.2
					C669.9,1089.6,667.8,1089.6,666.2,1088.6z"/>
				<path class="st1" d="M915.9,997.3c-0.2,0.1-0.7,0.2-0.9,0.3c-2.5,3.3-1.7,7.7-0.6,11.3c0.8,2.5,2,5.1,4,6.9
					c1.9,1.6,4.9,1.9,6.9,0.3c2.4-1.8,3.9-4.6,3.8-7.6c2.3,1.5,4.9,3.2,7.8,2.8c2.1-0.5,4.4-2.1,4.4-4.5c0.1-3.4-0.9-6.8-2-10
					c-2.5-2.5-5.1-4.9-6.7-8c-0.6,0.2-1.2,0.4-1.8,0.6c0.2,1.9,0.3,3.9,0.4,5.8c2.2,2.2,4.3,4.6,6.1,7.1c0.7,1-0.2,2.1-1.2,2.1
					c-1.7,0.2-3.9,0.3-5-1.3c-1.5-2.1-3-4.2-4.3-6.4c-1.2-2-2.5-4.1-2.3-6.6c-0.8,1.7-1.5,3.5-2,5.2c1,3.7,2.3,7.3,3.5,10.9
					c-0.7,1.6-1.6,3.2-3.1,4.1c-1.2,0.7-2.8,0.3-3.7-0.7c-3-3.1-4.4-7.7-3.7-11.9C915.5,997.7,915.7,997.5,915.9,997.3z"/>
				<path class="st1" d="M695.1,1094.4c-10.3,12.6-20.6,25.2-30.8,37.9l0,0c-0.1,2.2,0,4.5-0.1,6.7c0.3-0.2,0.6-0.5,0.8-0.7
					c9.5-11.7,19.1-23.3,28.6-34.9C695.8,1101,695.7,1097.4,695.1,1094.4z"/>
				<path class="st1" d="M1025.2,987.9c-1.7,0.7-3.3,2-3.9,3.8c-0.6,2.1,0.6,4.1,1.8,5.7c1.1,0.9,2.5,1.4,3.7,2
					c-0.5,2.5-1.2,4.9-2.2,7.2c-2.9,6.8-8.1,12.3-13.8,16.8c3.6-0.7,6.9-2.6,9.4-5.2c4.9-4.7,7.9-11.1,9.2-17.7
					c0.6,0.2,1.2,0.5,1.8,0.8l-4.5-13.2C1026.3,987.8,1025.8,987.7,1025.2,987.9z M1027.2,995.5c-1.3-0.7-2.6-1.5-3.5-2.7
					c0.8-0.5,1.7-0.9,2.6-1C1027.3,992.8,1027.2,994.2,1027.2,995.5z"/>
				<path class="st1" d="M849.6,1064c-2-0.1-2.9,2.1-3.1,3.7c-0.7,4.3,0,8.7,0.7,13c-2.9-3-6.1-5.9-9.9-7.7
					c-1.4-0.5-3.1-1.4-4.6-0.5c-0.4,1.3,0.4,2.5,1,3.5c1,1.5,2.3,3.2,4.3,3.3c1.1,0.2,2.4-0.8,3.4,0c3.9,2.3,6.4,6.4,7.8,10.6
					c0.4-0.4,0.8-0.9,1.3-1.3c-1.2-4.7-2.4-9.4-2.6-14.3c0-2.2,0.5-4.8,2.4-6.2c1.7-0.3,3,1.1,4.2,2.2c0.4-1,0.8-2,1.1-3.1
					C855,1064.7,851.9,1063.9,849.6,1064z"/>
				<path class="st1" d="M673.5,1146c-1.6,2.1-1.9,4.8-2.4,7.3c-1,6.1-1.7,12.4-0.7,18.5c0.5,3,1.8,6.6,5,7.6
					c2.4,0.7,5.4,0.3,6.8-1.9c1.9-2.8,1.9-6.4,1.9-9.6c-0.1-1.5,0.1-3.3-1.1-4.4c-0.3,2.2-0.5,4.9-2.6,6.2c-1.4,0.9-3.2,1.3-4.6,0.5
					c-2-1.4-2.7-3.9-3.1-6.2C671.8,1158,672.7,1152,673.5,1146z"/>
				<path class="st1" d="M1056,1075.1c-0.7-1.5-1-3.1-1-4.7l-0.9-2.6c-0.6,4.2-0.2,8.5,1.5,12.4c0.6,1.6,2.1,2.8,3.8,3l-2.1-6.1
					C1056.7,1076.6,1056.2,1075.8,1056,1075.1z"/>
				<path class="st1" d="M930.3,1105c-1.8,2-1.5,5.1-0.6,7.5c0.4-1.4,1-2.9,2.3-3.6c1-0.5,2,0,2.9,0.4c-2.5,1.4-5.2,3.1-6,6
					c-0.6,1.8-1.2,3.9-0.3,5.7c1.9,5,4.6,9.5,7.6,13.9c1.6,2.4,3.5,4.7,4.6,7.3c0.3-1.8-0.2-3.7-0.7-5.5c-1.6-5-4.9-9.1-7.5-13.6
					c-0.7-1.3-1.5-2.7-1.4-4.2c0.1-1.2,1.1-1.9,1.8-2.7c1.6-1.1,3.5-1.5,5.2-2.4c0.3-1.8,1.1-3.4,1.6-5.1c-0.6-1.9-1.4-3.9-3.2-5
					C934.6,1102.7,931.9,1103.4,930.3,1105z"/>
				<path class="st1" d="M1031.8,1093.8c-1.9,0.7-4,1.4-6.1,1.1c-1.4-0.2-2.4-1.6-1.8-3c2-5.2,5.8-9.4,9-13.9
					c0.8-1.1,1.3-2.8-0.1-3.7c-2.6-0.6-5.2,0.2-7.7,0.9c-2.4,0.8-5.1,1.9-6.4,4.2c-1,1.7-0.3,3.7,0.6,5.3c0.7-1.2,1.3-2.6,2.7-3.2
					c2.1-1,4.3-1.7,6.6-2.3c-2.5,3.2-5,6.4-6.7,10.2c-0.6,1.5-1.2,3.1-1.2,4.7c0,2.9,2.2,5.6,5,6.2c2.6,0.7,5.3-0.1,7.7-1.2
					c3-1.6,5.2-4.1,7.1-6.9c2.2-3.3,3.9-6.9,5.3-10.6c-0.9,1-1.6,2.2-2.4,3.3C1040.2,1088.7,1036.4,1092,1031.8,1093.8z"/>
			</g>
		</g>
	</g>
</g>
<g>
	<path class="st1" d="M617.7,523.4c-2.3-2.8-5.1-5.2-7-8.3c-29.3-41.8-58.4-83.3-87.5-124.8c-1.7-2.4-3.6-5.1-5.7-8.1
		c-15,9.9-26.2,23.7-41.9,35.3c-0.6-5.1-1.1-7.3-0.9-9.6c0.4-5.1,2.4-10.1,2.3-14.9c-0.2-12.7,6.4-21.1,15.4-28.6
		c20.2-16.2,40-32.8,60-49.2c4.2-3.4,9.2-6.2,14.2-7.5c11-2.7,17.8,3.9,16.4,14.8c-1.1,6.7-2,13.2-2.9,19.7c-0.7,3.1-2.1,6.3-3.2,10
		c-2.4-0.8-4.1-1.1-5.1-1.9c-4.8-3.6-9.6-3.1-14,0c-5.3,3.4-10.3,7.3-16.4,11.6c2.4,3.8,4.2,7,6,10.1c24.4,34.9,48.6,70,73.2,104.7
		c4.7,6.6,6.6,13,4.6,21c-1.3,5.4-1.6,10.7-2.5,16.1c-0.5,2.9-1.4,5.8-2.3,8.6C619.5,522.9,618.6,523.1,617.7,523.4z"/>
	<path class="st1" d="M818.4,386.5c0.5,2.7,1.1,4.4,1.2,6c-0.2,2-1.1,3.7-1.6,5.5c-3.7,8.3-5.4,18.4-11.3,24.7
		c-6,6-16.1,8.2-24.2,12.2c-7.7,3.5-14.8,7.4-22.3,10.4c-10.5,4.3-15.4,2.7-21.6-6.7c-2.7-4.1-5.1-8.6-8.4-14.1
		c-1.8,3.6-3,6.1-4.2,8.8c-3.4,8.2-6.1,16.8-10.1,24.5c-3,5.4-7,10.6-11.5,14.7c-5.5,5.5-11.5,4.4-15.8-2.3c-2.3-3.3-3.9-7.2-5.5-11
		c-8-22-16.2-44.3-24.3-66.5c-3.4-9.9-3.5-19.6,1.3-29.4c3.3-6.2,5.5-12.6,7.9-19.5c2-5.4,5.8-9.5,11.2-12.3
		c9.9-5,20.1-10.2,30.6-14.8c8.4-4.1,9.7-3.3,13.3,5.6c6.5,16.8,12.8,33.7,19.4,50.4c3.9,9.4,8.1,19,13.2,28.3
		c5.1,9.3,7.5,9.6,17.3,4.9c12.8-5.9,25.5-11.4,38-17.2C813.2,387.9,815.5,387.3,818.4,386.5z M702.3,353.9
		c-7.9,3.6-14.9,7.1-22.3,10.4c6.2,23.1,15.4,43.9,24.2,65.3c1.1,2.8,1.8,7.7,6.5,7.1c4.6-0.6,4.3-5.3,5-9.2c0.8-2.9,1-6.2,1.1-9.2
		c0-16.5-2-32.6-8.1-48.2C706.9,365,704.7,359.7,702.3,353.9z"/>
	<path class="st1" d="M942.9,379.9c-4.3,6.8-8.9,14-13.8,20.3c-2.3,2.8-5.7,5.6-8.9,6.4c-12.6,2.8-25.4,4.7-38,7.2
		c-10.6,1.8-18.4-2.6-23.9-11.4c-9.6-15.4-19.5-30.4-29.4-45.5c-1.2-1.9-2.8-3.8-4.4-5.9c-0.8,0.4-1.4,0.6-2.3,0.7
		c0.2,3,0.1,6.1,0.6,9c1.1,10.2,2.6,20.6,4.4,30.9c0.9,5,0,9.1-2.9,13.3c-4.5,5.9-7.9,12.3-12.4,18c-1.8,2.1-4.6,3.5-7,5.2
		c-1.3-2.5-2.9-4.7-3.4-7.3c-2.2-14.8-4.3-30-6.5-44.8c-5.8-38.9-11.2-77.5-17-116.4c-1.5-8.6-0.6-16,5.6-22.6c3.5-4.3,6.1-9,9-13.4
		c1.7-2.4,4.1-4.7,7.4-8.6c1.5,5.2,3,8.3,3.5,11.3c4.5,31.2,8.9,62.1,13.3,93c0.7,3.8,1.4,8,2.3,13.6c12.3-14.9,22.7-28.9,21.6-47.9
		c-0.2-6.7,1.7-11.6,5.3-16.7c3.7-4.9,7-10.3,10.7-15.5c1.7-2.4,3.8-4.3,6.2-6.5c4.9,3.7,3.8,8.2,3.9,11.8
		c0.4,14.5-4.4,27.2-11.4,39.7c-2.8,5-5.8,10.4-8.8,15.8c2.1,3.3,4.2,6.6,6.2,9.6c9.6,15.1,19.7,29.5,28.4,44.7
		c5.9,9.6,13.2,13,23.7,10.5c9.4-1.9,18.5-3.8,27.9-5.7c3.5-0.6,7.1-1.2,10.3-1.8C946.5,374.4,944.9,377.4,942.9,379.9z"/>
	<path class="st1" d="M1052.9,383c-2.2,3.5-3.8,6.5-5.7,8.8c-4,4.4-8.6,7.9-12,12.3c-5.3,6.2-11.9,8.7-20.1,8.7
		c-22.8-0.3-45.3-0.1-68.1-1c-21-0.6-26.8-7.1-26.5-28.1c0.2-19.5,0.8-39.3,1.4-58.8c0.7-12.6,4.3-23.9,15-32.3
		c4.6-3.5,8.3-7.6,12.3-12c5.3-5.9,12.3-9,20.1-8.7c8.4,0.2,17.1,0.8,25.1,2.5c9.8,2.4,14.5,8.8,13.9,19
		c-0.4,14.4-4.7,27.5-15.5,38.3c-13.3,13.4-26.3,27.2-39.6,40.9c1.1,5.1,4.9,7,9.4,7.5c8.4,0.8,17.1,1.7,25.5,1.6
		c19.2,0.2,38.4-0.1,57.6-0.2C1047.6,381.7,1049.4,382.3,1052.9,383z M952,355.6c1.2-0.3,2.7,0.1,3.3-0.5
		c9.2-6.3,16.9-13.6,20.2-25.2c5.3-19.1-0.4-27.3-20.6-26.7c-0.3,0-0.6,0.3-1.5,0.9C953,320.8,952.5,337.9,952,355.6z"/>
	<path class="st1" d="M1214.6,439.7c-1.6,2-2.9,4.7-5.3,6.1c-6.7,3.7-14,7.2-21,10.8c-3.9,2.1-8.1,2.2-12.7,0.9
		c-15.7-5.2-31.7-10.2-47.9-14.9c-20.4-6.2-26.4-17.2-19.4-37c9.3-26.3,19.3-52.1,28.8-78.3c3.6-9.2,7-18.2,10-27.6
		c1.7-4.8,4.4-8,9.3-10.1c6.8-3,13.5-6.7,20.4-10c2.3-1.1,5.3-1.6,10.2-2.8c-4.5,12.7-8.3,23.5-12.1,34.2c1.2,0.1,2.3-0.2,3.4,0.2
		c19.5,6.9,21.8,7.7,41.5,14.9c2,0.7,3.9,2.3,6.3,3.8c-1.7,2.2-2.3,3.9-3.5,4.5c-9,4.8-18,9.6-27.1,13.7c-2.3,1.1-5.7,0.9-8.3,0
		c-11.7-3.8-16.5-5.5-22.9-8.1c-6.7,18-13.3,36-20,54c-0.9,2.5-1.3,5.6-1.3,8.1c-0.5,8.7,1.7,12.4,9.8,15.5c5.7,2,11.4,3.7,16.9,5.3
		c13.1,4.3,26,8.2,38.9,12.4C1211.1,436.2,1212.7,438.1,1214.6,439.7z"/>
	<path class="st1" d="M1333.9,512.2c-1.6,1.5-2.8,2.9-4,3.2c-9.8,2.9-19.3,6-29.2,8.1c-2.6,0.9-6.3-0.6-9-1.9
		c-9.8-4.7-19.5-10.1-29.3-15.3c-1.5-0.9-3.4-2-4.9-2.9c-9.9-6.2-11.8-11.2-6-21c11.2-18.8,23.2-36.8,34.9-55.3
		c4.1-6.3,7.6-12.9,10.9-19c-0.8-1.5-1.2-2.1-1.6-2.7c-16.9-11.4-18.5-11.7-34,2.1c-13.4,12-26.4,24.5-39,36.9
		c-4.9,4.8-10.1,8.3-17,9.8c-5.9,1.1-11.4,3.4-17.4,4.7c-3.1,0.6-6.2,0.5-11.4,0.9c1.6-3.9,2.3-6.3,3.6-8.4
		c29.7-47.2,59.5-94.5,89-141.9c3.5-5.9,8.1-9.5,14.5-10.9c6.7-1.3,12.9-3.5,19.3-4.9c2.9-0.7,5.6-0.5,9.6-0.9
		c-2.5,10.7-9.2,17.2-13.5,25.1c-4.6,8.4-9.6,16.3-14.5,24.5c-4.8,7.6-9.8,15.4-14.4,23.2c-4.8,7.6-9.2,15.5-14.5,24.5
		c2.7-0.5,4.2-0.6,5.6-1.2c8.6-2.2,17.2-3.7,25.4-6.9c16.7-5.8,31.1-1.8,45.1,7.5c4.9,3.6,6.4,6.2,3.7,12c-2.6,6.1-5.7,12-9.1,17.6
		c-11.1,17.5-22.5,35.1-33.6,52.6c-1.1,1.8-2.6,3.7-3.4,5.7c-2.1,5.4-2,6.9,3.5,10.1s11,6.2,16.6,8.4
		C1319.5,500.6,1328.9,506.5,1333.9,512.2z"/>
	<path class="st1" d="M1407.7,592.6c-4,1.2-7.1,2.4-10.1,2.9c-5.9,0.7-11.7,0.2-17.1,1.3c-8,1.2-14.7-1.3-20.9-6.6
		c-16.9-15.3-34.1-29.9-50.6-45.6c-15.4-14.3-15.5-23-1.5-38.6c13-14.5,26.5-29.1,39.7-43.4c8.8-9,18.9-15.2,32.6-14.4
		c5.7,0.4,11.2-0.2,17.2-0.9c7.8-0.9,15.1,1.3,20.9,6.6c6.2,5.7,12.4,11.8,17.3,18.4c5.8,8.3,5.1,16.1-2.1,23.4
		c-9.8,10.6-21.6,17.6-36.8,18.6c-18.8,1.4-37.7,3.2-56.7,4.8c-2.6,4.6-0.9,8.5,2.2,11.8c5.8,6.1,11.7,12.5,18.1,18
		c14.3,12.8,29,25.2,43.5,37.8C1404.6,588,1405.5,589.7,1407.7,592.6z M1349.8,505.5c1.1,0.6,2,1.8,2.8,1.8
		c11.1,1.3,21.7,0.9,31.8-5.7c16.6-10.8,17.7-20.9,2.1-33.6c-0.2-0.2-0.6-0.2-1.7-0.4C1373.4,479.9,1361.8,492.5,1349.8,505.5z"/>
</g>
<g>
	<path class="st1" d="M461.1,1504.3l107.5-123l15,13.1l-107.5,123L461.1,1504.3z"/>
	<path class="st1" d="M592.4,1560.5c-11.3,3.8-23.4,6.5-35.2,7.9c-5.3,0.7-11.7-1.9-16.4-4.7c-15.3-10-30.2-21-45-31.6
		c-0.6-0.4-0.8-1.5-1.6-2.9c1.6-1,3-2.2,4.4-2.5c7.6-1.8,15.3-3.9,23-5c2.8-0.2,6.2,1.1,8.7,2.8c9.3,6.3,18.4,13,27.8,19.7
		c3.4,2.6,7.3,4.9,11.6,7.8c0.7-7.3-1.7-12.6-4.7-17.6c-3.3-5.8-6.8-11.8-9.9-17.9c-2.1-4.5-3.8-9.2-5-14c-2.6-8.7,0.4-16.3,8-21.2
		c2.9-2,6-3.5,9.2-4.3c8.4-2.2,17-4.2,25.6-5.3c13.5-1.7,25.8,2.9,36.6,11.5c5.6,4.7,6.6,10.8,4.4,17.2c-1.3,3.3-3.3,5.3-6.6,6.1
		c-7.4,1.6-15,3.4-22.5,4.7c-1.7,0.3-3.7-0.4-5.9-0.7c0.4-5.5,4.4-9.7,1.1-14.6c-2.7-3.6-9.5-7.9-16-9c-2.7,3-2,6.5-0.5,9.6
		c3.9,9,8.5,17.8,12.9,26.8c2.3,5.1,5.1,10.4,6.5,15.8C605.3,1548.6,601.4,1557.5,592.4,1560.5z"/>
	<path class="st1" d="M690.5,1622.8c-6.5,2.4-12.8,5.1-19.3,6.9c-3.1,0.7-6.9,0.5-9.7-0.6c-15-5.8-29.7-12.2-44.6-18.2
		c-0.7-0.3-1.6-0.8-2.2-1.1c-11-5.4-13.2-11-7.7-22.2c8.8-17.7,18-35.2,26.9-52.5c10.8-21.2,21.8-42.2,32.5-63.4
		c2.2-4.5,5.1-7.5,10-9c5.6-1.7,10.8-3.8,16.4-5.5c2.3-0.8,4.9-0.9,7.3-1.1c0.5,0.8,1,1.3,1.5,2.1c-1.6,3.1-3,6-4.4,9
		c-18.7,36-37.2,72.2-55.9,108.2c-1.2,2.5-2.6,5.2-3.6,7.7c-2.2,5.6-1.5,7.6,3.5,10.4c2.5,1.2,4.7,2.3,7.2,3.6
		c11.9,4.8,24,9.6,35.7,14.6c3.9,1.7,7.4,3.7,11,5.4C695.4,1620.8,693.1,1622.1,690.5,1622.8z"/>
	<path class="st1" d="M810.1,1653.5c-1.2,2-1.6,3.4-2.5,4.4c-1.2,1.2-2.7,1.8-4,2.6c-6.9,3.3-13.4,8.8-20.5,9.7
		c-7,0.6-14.7-3.4-21.9-5.3c-6.7-1.9-13.4-3.3-19.8-5.4c-9-2.9-11.3-6.5-10.1-15.9c0.5-4,1.4-8.2,2.3-13.5c-3.1,1.4-5.2,2.3-7.4,3.4
		c-6.6,3.4-12.9,7.4-19.6,10.2c-4.8,1.9-10.2,3-15.2,3.2c-6.5,0.5-9.7-3.4-8.9-10c0.3-3.3,1.4-6.7,2.4-10
		c6.7-18.3,13.5-36.9,20.3-55.4c3.2-8.2,8.3-14.4,16.6-18c5.4-2.2,10.3-5.1,15.5-8.1c4.2-2.3,8.8-2.9,13.7-1.9
		c9,2.1,18.3,4.4,27.4,7c7.5,1.9,7.9,3.1,5.5,10.7c-4.9,14.2-10,28.3-14.8,42.5c-2.6,8.1-5.1,16.5-6.8,25.1
		c-1.7,8.6-0.4,10.1,8.3,12.4c11.3,3.1,22.3,6.5,33.4,9.5C806,1651.6,807.8,1652.5,810.1,1653.5z M753.8,1570.3
		c-7-2-13.3-3.5-19.8-5.4c-8.5,18-13.9,36.2-19.8,54.6c-0.8,2.4-3,5.9,0.3,8c3.3,2.1,5.6-1.1,8.1-3.2c2-1.4,4-3.4,5.6-5.3
		c8.9-10.5,16.3-21.8,20.8-35C750.7,1579.8,752.1,1575.3,753.8,1570.3z"/>
	<path class="st1" d="M991,1671.8c-2.4,3.8-3.6,6.2-5.3,7.8c-4.7,4.3-9.6,8.1-14.2,12.5c-2.7,2.3-5.6,3.5-9.3,2.9
		c-12.2-1.4-24.1-2.5-36.3-3.9c-2.2-0.2-4.7-0.7-6.9-1.4c-5.9-1.8-8.3-4.8-8-11c0.3-6,1.9-11.9,2.4-17.9c1.7-15.4,3.2-30.8,4.6-46.3
		c0.2-1.7-0.1-3.8-0.5-5.6c-0.4-3.6-2.8-4.8-5.8-5.6c-3.4-0.8-4.9,1.5-5.9,4.2c-4,10.9-8.1,22.1-11.9,33.3
		c-1.8,5.9-3.2,12.3-4.7,18.4c-0.4,1.7-0.8,3.7-2.2,4.8c-6.6,5.9-13.4,11.8-20.2,17.4c-1.1,0.9-2.8,0.5-5.3,0.5
		c2.4-27.9,5-55.3,7.3-82.4c-9.5-3.2-10-3-14.5,4.2c-8.6,14-13.3,29.6-16.4,45.7c-1.5,7.4-4.3,13.2-10.7,17.6
		c-4.3,3.1-7.9,7-12,10.2c-1.3,0.9-3.7,1.7-4.9,1s-1.7-3.2-1.6-4.7c0.1-4,0.5-8,0.9-12c2.4-22.4,4.7-45,6.6-67.4
		c0.5-5.5,2.4-9.6,6.7-12.7c4.6-3.3,8.5-7.2,12.8-10.8c1.9-1.6,4-2.6,7.5-4.8c1.4,11.7-1.8,21.9-1.3,32.5
		c8.1-6.5,15.7-12.3,23.1-18.7c5.4-4.5,11.7-6.9,18.9-6.5c9,0.6,11.1,2.5,11.5,11.4c0.3,2.5,0,5.3-0.3,8c0,2.5-0.5,5-0.9,9.5
		c4.9-3.8,8.1-6.3,11.4-9.2c3.8-2.9,7.1-6.4,11.1-8.7c3.7-2.2,7.9-4.3,12.3-4.9c9.2-1.4,15.4,4,15.8,13c0.6,17.1-1,34.3-4.3,51.1
		c-0.9,4.4-1.8,8.9-2.2,13.1c-0.8,8-0.1,9,7.3,10c8.7,1.1,17.4,1.6,26.1,2.7C977.4,1669.8,983.1,1670.8,991,1671.8z"/>
	<path class="st1" d="M983.6,1583.5c-1.3-0.6-2.5-2.6-2.6-4.1c-0.3-7.5-1.1-23-0.9-30.5c-0.1-1.7,0.7-3.6,1.9-4.9
		c5-6.4,10.3-12.9,15.5-19c0.9-0.8,2.7-1.2,5.1-2.7c1.9,10.6,2,28.4,1.8,37.7c-0.2,1-0.6,2.1-1.3,2.9c-5,6.4-10.3,12.6-15.5,19
		C986.6,1582.7,984.4,1583.9,983.6,1583.5z M1054.9,1666.3c-4.1,5.1-8.2,10.4-12.6,15c-2.3,2.4-5.4,4.7-8.6,5.2
		c-9.4,1.5-19.1,2.5-28.9,2.8c-9.7,0.5-15.2-5.1-16.3-16.3c-1.1-7.7-1.5-15.2-1.6-22.9c-0.6-13.5-0.7-27.3-1.2-40.8
		c-0.1-4.5,0.9-8.1,3.8-11.6c3.9-4.1,7.3-8.9,11.2-13.2c1.6-1.9,3.5-3.3,5.4-4.9c4.3,3.7,3.4,7.8,3.4,11.5
		c0.7,17.8,1.1,35.3,1.7,52.8c0.3,3.5,0.8,7,1.6,10.2c2,6.4,3.6,7.7,10.4,7.4c10.7-0.6,21.7-1.7,33.4-2.9
		C1058.6,1661.5,1056.5,1663.9,1054.9,1666.3z"/>
	<path class="st1" d="M1152.3,1647c-3.7,6.1-7.3,12.1-11.5,18c-1.6,2.1-4.3,3.9-7,4.4c-20.1,4.2-40.2,8.3-60.3,12
		c-10.6,1.8-17.7-1.9-22.4-11.7c-2.5-4.9-4.3-10.4-5.4-15.8c-2.2-11.5-4.5-23.1-5.7-34.8c-1-9,1.4-17.8,6.2-25.7
		c4.1-6.4,8.2-12.8,12.6-19c8.2-11.5,20.4-14.2,33.3-14.6c6.4,0,10.6,4.8,13,10.5c1.6,4.3,2.5,8.9,3.4,13.6c0.3,1.7,0,3.8-1,5.3
		c-4.1,6.6-8.4,13.3-12.7,19.8c-1,1.5-3.3,2.7-4.4,2.4c-1.3-0.3-2.5-2.3-3.1-4c-0.7-2.4-1-5.2-1.7-7.6c-2.5-8.9-7.7-12-16.4-9.8
		c-2.7,0.5-5.1,1.5-8.9,2.7c1.8,12.1,3.5,23.5,6,34.7c1,5.2,2.7,10.2,4.7,14.9c3.9,8.4,8.2,10.6,17.1,9.2
		c14.8-2.6,29.5-5.5,44.2-8.3c6.6-1.3,13.3-2.6,19.4-3.8C1155,1642.4,1153.9,1644.6,1152.3,1647z"/>
	<path class="st1" d="M1263.5,1507.4c6.9,16.1,13.9,32.2,20.9,48.5c3.2,7.9,3.1,15.7,0.1,23.8c-2,5.1-3.3,10.5-5.1,15.8
		c-3.7,10.7-10,19.5-20.4,25.1c-0.8,0.7-1.7,1.1-2.5,1.8c-0.2,0.1-0.3,0.4-1,1.9c1.2,2.5,2.5,5.7,4.3,9c2.2,3.9,2.4,7.7,0.8,12.1
		c-1.9,5.3-3.4,10.8-5.4,16.5c-1,2.4-2.5,4.5-4.7,8.1c-2.3-3.1-3.7-4.9-4.7-6.9c-17.3-35.8-34.3-71.7-51.3-107.4
		c-1.2-2.5-1.9-5.7-1.2-8.3c2-7.9,5-15.5,7.7-23.2c0.2-1.2,1.5-2.1,3.2-4.3c6.3,8.9,8.8,18.2,14.8,27.8c2.1-6.6,3.9-11.6,5.8-16.7
		c1.9-5.3,3.6-10.3,6.1-15.5c4.4-8.2,12-13,20-17.2c3.2-1.5,6.2-1,8.2,2.1C1260.8,1502.8,1262.6,1504.8,1263.5,1507.4z
		 M1246.2,1530.2c-2.7,1.3-4.1,2-5.4,2.6c-7.1,3.1-10.7,8.2-9.1,16.3c2.2,10.9,4.3,22.1,7,33c1.4,5.7,3.6,11,5.8,17.2
		c9.7-4.7,18.2-8.2,25.7-14.6C1262.8,1566.3,1255.2,1548.3,1246.2,1530.2z"/>
	<path class="st1" d="M1273.8,1494.4c-1.5,0-3.4-1.1-4.2-2.4c-3.8-6.5-11.8-19.8-15.2-26.5c-0.9-1.5-1-3.5-0.7-5.2
		c1.4-8,3-16.2,4.8-24.1c0.4-1.2,1.8-2.3,3.2-4.7c6.6,8.5,15.1,24.2,19.3,32.5c0.3,1,0.4,2.1,0.2,3.1c-1.4,8-3.2,16-4.8,24.1
		C1276.1,1492.3,1274.7,1494.4,1273.8,1494.4z M1375.7,1534c-1.2,6.4-2.3,13.1-4,19.2c-0.9,3.2-2.6,6.7-5.2,8.6
		c-7.6,5.7-15.7,11.2-24.2,16c-8.4,5-15.8,2.7-22.1-6.7c-4.6-6.3-8.4-12.7-12.2-19.5c-6.8-11.6-13.4-23.8-20.3-35.4
		c-2.2-3.9-3-7.5-2.1-12c1.6-5.4,2.3-11.3,3.7-16.9c0.5-2.4,1.5-4.5,2.4-6.9c5.5,1.2,6.6,5.3,8.4,8.6c8.9,15.4,17.5,30.6,26.3,45.8
		c1.9,3,4,5.8,6.2,8.2c4.8,4.7,6.8,5.1,12.7,1.7c9.2-5.6,18.3-11.7,28.1-18.2C1376.7,1528.1,1376,1531.2,1375.7,1534z"/>
	<path class="st1" d="M1440.4,1477.5c-0.6,6.9-0.9,13.8-2,20.4c-0.7,3.1-2.5,6.5-4.7,8.5c-11.6,11.1-23.6,21.7-35.4,32.6
		c-0.6,0.5-1.4,1.1-2,1.6c-9.6,7.6-15.6,7.3-23.4-2.5c-12.3-15.5-24.2-31.2-36.1-46.6c-14.6-18.7-29-37.6-43.6-56.4
		c-3.1-3.9-4.6-7.8-3.9-12.9c0.8-5.8,1.1-11.4,2-17.2c0.3-2.5,1.3-4.8,2.1-7.1c0.9-0.1,1.6-0.3,2.5-0.4c2.2,2.7,4.2,5.3,6.2,7.8
		c24.6,32.2,49.6,64.4,74.2,96.5c1.7,2.2,3.6,4.5,5.5,6.5c4.1,4.4,6.2,4.6,10.9,1.2c2.2-1.7,4.1-3.3,6.3-5
		c9.4-8.7,18.9-17.6,28.4-26.1c3.2-2.8,6.5-5.1,9.6-7.6C1440.7,1472.2,1440.9,1474.9,1440.4,1477.5z"/>
	<path class="st1" d="M1499.7,1414.1c0.2,6.9,0.8,13.8,0.5,20.5c-0.3,3.2-1.7,6.7-3.6,9c-10.1,12.5-20.8,24.4-31.1,36.7
		c-0.5,0.5-1.2,1.2-1.8,1.8c-8.6,8.7-14.6,9.2-23.5,0.4c-14.1-13.8-27.8-28-41.6-41.9c-16.8-16.8-33.4-33.8-50.1-50.6
		c-3.6-3.5-5.5-7.2-5.4-12.3c0.1-5.8-0.3-11.5-0.2-17.3c0-2.5,0.7-5,1.2-7.3c0.9-0.2,1.6-0.5,2.5-0.7c2.5,2.5,4.8,4.7,7.1,7
		c28.4,28.9,57.1,57.8,85.5,86.7c2,1.9,4.1,4,6.2,5.8c4.6,3.8,6.8,3.8,11-0.1c1.9-2,3.7-3.7,5.6-5.7c8.2-9.8,16.6-19.8,25-29.4
		c2.8-3.2,5.8-5.9,8.6-8.7C1499.3,1408.8,1499.8,1411.5,1499.7,1414.1z"/>
</g>
</svg>
